<svg width="24" height="25" viewBox="0 0 24 25" fill="none" xmlns="http://www.w3.org/2000/svg">
<path d="M5.66144 16.7055C5.66612 16.836 5.65508 16.9663 5.65952 17.0969C5.78144 17.0958 5.90324 17.0981 6.02504 17.0969L6.02264 16.6947C5.90215 16.6935 5.78165 16.6971 5.66144 16.7055ZM12.8784 5.45361C12.818 5.53818 12.7522 5.61871 12.6813 5.69469C12.9108 5.69053 13.1404 5.68673 13.37 5.68329C13.2026 5.61441 13.0386 5.53777 12.8784 5.45361ZM16.3022 19.4445C15.8858 19.2678 15.4713 19.0868 15.0585 18.9018C14.8602 18.8124 14.6625 18.7218 14.4666 18.6272C14.3517 18.5717 14.2356 18.5159 14.1264 18.4496C13.9832 18.5119 13.8369 18.5669 13.6881 18.6143C13.4094 18.7011 13.1183 18.7416 12.8264 18.7343C12.8274 18.7375 12.8278 18.7408 12.8278 18.7442C12.8133 18.9931 12.801 19.2422 12.7911 19.4913L12.7879 19.5727L13.7727 19.5593C14.6772 19.5469 15.5817 19.5349 16.4862 19.5233C16.4247 19.4969 16.3635 19.4703 16.3022 19.4445Z" fill="#FFD2D2"/>
<path d="M19.5542 16.9033C19.545 15.8917 19.5317 14.8802 19.5141 13.8686C19.4976 12.9299 19.4781 11.991 19.4467 11.0526C19.4113 9.98063 19.3548 8.90927 19.3062 7.83791C19.2463 6.51623 19.1839 5.19471 19.1192 3.87335C19.1112 3.71127 19.1029 3.54915 19.0944 3.38699C19.0942 3.37626 19.0899 3.36602 19.0823 3.35843C19.0747 3.35084 19.0644 3.3465 19.0537 3.34631C17.2359 3.42083 15.4177 3.46199 13.5983 3.49031C11.7579 3.51839 9.91738 3.53363 8.07706 3.55763C6.98843 3.57179 5.89991 3.59007 4.81151 3.61247C4.80077 3.61266 4.79053 3.617 4.78294 3.62459C4.77536 3.63218 4.77101 3.64242 4.77083 3.65315C4.76063 4.85111 4.74347 6.04907 4.72955 7.24703C4.71563 8.43935 4.70555 9.63179 4.70819 10.8242C4.71131 12.0214 4.72847 13.2185 4.76819 14.4149C4.79563 15.2347 4.81899 16.0547 4.83827 16.8749C4.85423 17.5806 4.86791 18.2866 4.87091 18.9925C4.89851 19.0102 4.9261 19.0285 4.95346 19.046C5.18199 19.1975 5.40074 19.3632 5.60843 19.5421C5.61353 19.5472 5.6172 19.5535 5.61903 19.5604C5.62087 19.5674 5.62081 19.5747 5.61886 19.5816L5.61742 19.5876C5.61082 19.6147 5.60351 19.6418 5.59691 19.669C6.08795 19.6631 6.57898 19.657 7.07002 19.6507C8.12962 19.6369 9.18923 19.6227 10.2488 19.6081L12.7059 19.5746L12.7093 19.4933C12.7195 19.2438 12.7313 18.9943 12.7463 18.7451C12.7466 18.7409 12.7477 18.7369 12.7495 18.7331C12.6969 18.7308 12.6444 18.7272 12.5921 18.7222C12.4116 18.7046 12.2322 18.6781 12.0545 18.6426C11.8927 18.6135 11.7353 18.5634 11.5865 18.4937C11.338 18.367 11.1405 18.1589 11.0269 17.9042C11.0211 17.898 11.0173 17.8902 11.0161 17.8818C10.8985 17.6059 10.823 17.3139 10.7921 17.0156C10.4997 16.8383 10.2068 16.6618 9.90995 16.4924C9.85835 16.4629 9.80634 16.434 9.75394 16.4056C9.64431 16.3481 9.5571 16.2556 9.50627 16.1428C9.45423 16.0252 9.44573 15.8929 9.48226 15.7697C9.51994 15.6451 9.57083 15.5231 9.61655 15.4013C9.71567 15.1373 9.81851 14.8748 9.93455 14.6182C10.0316 14.4035 10.1317 14.1686 10.3341 14.0328C10.4469 13.9574 10.5794 13.9168 10.715 13.916C10.8434 13.9207 10.9705 13.9432 11.0927 13.9826C11.0367 13.9047 10.9812 13.8263 10.9263 13.7474C10.5304 13.7604 10.1344 13.7729 9.73835 13.785C9.30819 13.7976 8.87802 13.8085 8.44787 13.8178C8.14103 13.8239 7.83419 13.8298 7.52735 13.8277C7.43507 13.8277 7.34281 13.8257 7.25063 13.8218C7.12092 13.8212 6.99231 13.798 6.87058 13.7532C6.80016 13.7256 6.73862 13.6792 6.69262 13.6192C6.63968 13.5346 6.61308 13.4362 6.61619 13.3366C6.59435 12.8426 6.59518 12.3464 6.5953 11.8522C6.5953 11.6111 6.59339 11.3695 6.60119 11.1286C6.59009 10.9523 6.64378 10.778 6.75215 10.6385C6.89879 10.4849 7.13891 10.4711 7.34015 10.4602C7.53143 10.4498 7.72295 10.4456 7.91435 10.4417C8.06183 10.4386 8.20943 10.4372 8.35691 10.4351L8.6197 10.343C8.52718 10.211 8.40107 10.081 8.41091 9.91007C8.41907 9.76931 8.51891 9.62651 8.67575 9.65579C8.80439 9.67979 8.87459 9.81743 8.93711 9.91823C8.97057 9.98306 9.01726 10.0401 9.07417 10.0858C9.13107 10.1314 9.19693 10.1646 9.26747 10.1832C9.42107 10.234 9.58306 10.2526 9.73774 10.2992C9.84229 10.3314 9.94394 10.3723 10.0416 10.4216C10.3039 10.4208 10.5662 10.4202 10.8284 10.4179C11.0601 10.416 11.2919 10.4071 11.5233 10.3981C11.5316 10.28 11.5502 10.1628 11.579 10.048C11.5453 10.0495 11.5147 10.0081 11.5465 9.98087C11.5677 9.96275 11.5899 9.94487 11.613 9.92867C11.6165 9.91775 11.6189 9.90635 11.6225 9.89555C11.6714 9.74439 11.7451 9.60244 11.8407 9.47555L11.4715 9.48443C10.6759 9.50291 9.88023 9.51967 9.08447 9.53471C8.52563 9.54479 7.96571 9.55991 7.40675 9.55175C7.08431 9.54707 6.7027 9.50495 6.54274 9.17975C6.48593 9.03892 6.46042 8.88742 6.46799 8.73575C6.46223 8.56271 6.45526 8.38967 6.4489 8.21663C6.43606 7.86683 6.42491 7.51679 6.42971 7.16675C6.43199 6.99191 6.43787 6.81719 6.44939 6.64283C6.44818 6.50733 6.47515 6.37305 6.52859 6.24851C6.58234 6.1443 6.66397 6.05706 6.76439 5.99651C6.87524 5.93525 6.99977 5.90297 7.12643 5.90267C7.83043 5.86315 8.53442 5.82855 9.23842 5.79887C10.2823 5.75495 11.3266 5.72223 12.3711 5.70071C12.42 5.55321 12.4781 5.40893 12.545 5.26871C12.3802 5.17095 12.2188 5.06811 12.0608 4.96019C12.0177 4.93091 12.0585 4.86047 12.1019 4.88999C12.1613 4.93039 12.2213 4.97039 12.2819 5.00999C12.5198 4.74863 12.7682 4.49699 13.0058 4.23515C13.0122 4.22889 13.0205 4.22488 13.0294 4.22373C13.0382 4.22258 13.0472 4.22436 13.055 4.22879C13.2248 4.32719 13.3896 4.43375 13.559 4.53215C13.5667 4.53676 13.5726 4.54371 13.576 4.55197C13.5794 4.56023 13.58 4.56936 13.5777 4.57799C13.4835 4.91051 13.4305 5.25287 13.3526 5.58923C13.4307 5.62199 13.5095 5.65331 13.5891 5.68199C14.9507 5.66599 16.3122 5.67047 17.6737 5.69543C17.747 5.69159 17.8204 5.6994 17.8913 5.71859C17.9495 5.73927 18.004 5.76909 18.0528 5.80691C18.1307 5.85981 18.1895 5.93627 18.2208 6.02507C18.2395 6.13281 18.2471 6.24219 18.2433 6.35147C18.2575 6.80915 18.2553 7.26755 18.2547 7.72535C18.2543 7.98351 18.2533 8.24163 18.252 8.49971C18.258 8.61766 18.2542 8.73591 18.2407 8.85323C18.2203 8.96492 18.1692 9.06872 18.0931 9.15302C18.017 9.23733 17.919 9.29881 17.81 9.33059C17.6927 9.35612 17.5729 9.3682 17.4529 9.36659C17.1889 9.38043 16.9251 9.39191 16.6615 9.40103C16.0135 9.42443 15.3632 9.44123 14.7135 9.44507C14.793 9.58126 14.8595 9.72456 14.9123 9.87311C14.9572 9.99976 14.9988 10.1276 15.0368 10.2565C15.54 10.236 16.0433 10.2164 16.5465 10.1977C16.9321 10.1839 17.3178 10.1695 17.7035 10.1642C17.9546 10.1608 18.2457 10.1414 18.4311 10.3422C18.6788 10.6105 18.6326 11.0524 18.6345 11.3873L18.6435 12.8774C18.6481 12.9601 18.6361 13.0428 18.6082 13.1208C18.5802 13.1987 18.5369 13.2703 18.4808 13.3312C18.4248 13.3884 18.3576 13.4336 18.2834 13.4639C18.2092 13.4942 18.1296 13.509 18.0494 13.5073C17.9941 13.5058 17.9385 13.5073 17.8832 13.508C17.6367 13.5122 17.3904 13.52 17.144 13.5286C16.7803 13.5403 16.4165 13.5529 16.0529 13.5664C16.2113 13.8183 16.356 14.0787 16.4863 14.3464C16.6968 14.7823 16.8749 15.2331 17.0192 15.6952C17.1374 16.0707 17.2348 16.4525 17.3108 16.8388C18.0357 17.1462 18.7725 17.4295 19.4803 17.7748C19.5075 17.788 19.5345 17.8018 19.5615 17.8152C19.5592 17.5108 19.5568 17.2068 19.5542 16.9033ZM5.25359 7.65599C5.4152 7.45362 5.55769 7.23669 5.67922 7.00799C5.6834 7.00129 5.68942 6.99593 5.69656 6.99256C5.7037 6.98919 5.71166 6.98794 5.71949 6.98896C5.72732 6.98998 5.73469 6.99324 5.74072 6.99834C5.74675 7.00344 5.75119 7.01016 5.75351 7.01771C5.82483 7.24867 5.92763 7.4687 6.05903 7.67159C6.06405 7.67848 6.06636 7.68699 6.06549 7.69547C6.06463 7.70395 6.06066 7.71182 6.05435 7.71755C6.05083 7.72228 6.04624 7.72611 6.04097 7.72874C6.03569 7.73136 6.02988 7.73271 6.02399 7.73267C5.77678 7.74278 5.52922 7.74033 5.28227 7.72535C5.27434 7.72508 5.26667 7.72252 5.26016 7.718C5.25365 7.71348 5.24858 7.70718 5.24555 7.69985C5.24253 7.69252 5.24168 7.68448 5.2431 7.67668C5.24452 7.66888 5.24816 7.66178 5.25359 7.65599ZM5.55275 11.877C5.57888 11.811 5.62351 11.754 5.68126 11.7128C5.739 11.6715 5.80743 11.6479 5.87831 11.6446C5.95391 11.6447 6.02744 11.6693 6.08789 11.7148C6.14833 11.7602 6.19243 11.824 6.21359 11.8966C6.29471 12.1861 5.86079 12.3944 5.64491 12.2326C5.59487 12.1898 5.55919 12.1328 5.5427 12.0691C5.52622 12.0054 5.52972 11.9386 5.55275 11.877ZM5.57927 17.1374C5.56907 16.9806 5.58947 16.824 5.57927 16.6672C5.57945 16.6564 5.5838 16.6462 5.59139 16.6386C5.59899 16.6311 5.60922 16.6267 5.61994 16.6266C5.76733 16.6144 5.91526 16.6101 6.0631 16.6139C6.072 16.614 6.08055 16.6173 6.08711 16.6234C6.08864 16.6243 6.09009 16.6254 6.09143 16.6266L6.09263 16.6282C6.09948 16.6352 6.10327 16.6447 6.10319 16.6546L6.10594 17.138C6.10582 17.1488 6.10151 17.159 6.09394 17.1666C6.08636 17.1742 6.07611 17.1786 6.06539 17.1787C5.91671 17.1808 5.76803 17.1756 5.61935 17.1787C5.60861 17.1785 5.59837 17.1742 5.59078 17.1666C5.5832 17.159 5.57945 17.1482 5.57927 17.1374ZM10.8924 18.8414L11.4637 18.8188C11.5161 18.8166 11.5158 18.898 11.4637 18.9L10.8924 18.9228C10.8401 18.9248 10.8403 18.8436 10.8924 18.8414ZM9.86795 18.7927C9.91979 18.7969 9.92003 18.8783 9.86795 18.8741C9.43726 18.8387 9.00479 18.8299 8.57303 18.8478C8.52071 18.85 8.52095 18.7686 8.57303 18.7664C9.0048 18.7487 9.43725 18.7574 9.86795 18.7927ZM7.85015 14.9388H9.02459C9.03498 14.9394 9.04476 14.9439 9.05191 14.9514C9.05907 14.959 9.06306 14.969 9.06306 14.9794C9.06306 14.9898 9.05907 14.9998 9.05191 15.0074C9.04476 15.0149 9.03498 15.0195 9.02459 15.02H7.85015C7.83975 15.0195 7.82997 15.0149 7.82282 15.0074C7.81566 14.9998 7.81167 14.9898 7.81167 14.9794C7.81167 14.969 7.81566 14.959 7.82282 14.9514C7.82997 14.9439 7.83975 14.9394 7.85015 14.9388ZM7.18499 18.5472C7.22332 18.607 7.28174 18.6512 7.34975 18.6719C7.39967 18.6874 7.37831 18.7658 7.32815 18.7502C7.24 18.7234 7.16434 18.6659 7.11479 18.5882C7.08623 18.5446 7.15619 18.5035 7.18499 18.5472ZM7.01039 17.1983C7.03695 17.3303 7.04994 17.4647 7.04915 17.5993C7.04915 17.6101 7.04486 17.6204 7.03723 17.6281C7.0296 17.6357 7.01925 17.64 7.00847 17.64C6.99768 17.64 6.98733 17.6357 6.9797 17.6281C6.97207 17.6204 6.96779 17.6101 6.96779 17.5993C6.96878 17.4719 6.95671 17.3448 6.93179 17.2199C6.92171 17.1686 7.00019 17.1469 7.01039 17.1983ZM6.90527 15.1606C6.90167 15.1082 6.98303 15.1086 6.98663 15.1606C6.99788 15.3252 6.98731 15.4907 6.95519 15.6526C6.94499 15.704 6.86675 15.6821 6.87671 15.631C6.90703 15.4761 6.91664 15.3179 6.90527 15.1606ZM17.9985 4.80899L16.9443 4.82099C16.934 4.82043 16.9242 4.8159 16.917 4.80835C16.9099 4.80079 16.9059 4.79078 16.9059 4.78037C16.9059 4.76997 16.9099 4.75996 16.917 4.7524C16.9242 4.74484 16.934 4.74032 16.9443 4.73975L17.9985 4.72775C18.0093 4.72775 18.0197 4.73204 18.0273 4.73967C18.0349 4.7473 18.0392 4.75764 18.0392 4.76843C18.0392 4.77922 18.0349 4.78957 18.0273 4.7972C18.0197 4.80483 18.0093 4.80899 17.9985 4.80899ZM16.8543 4.27871H17.9384C17.9492 4.27871 17.9596 4.283 17.9672 4.29063C17.9748 4.29826 17.9791 4.3086 17.9791 4.31939C17.9791 4.33018 17.9748 4.34053 17.9672 4.34816C17.9596 4.35579 17.9492 4.36007 17.9384 4.36007H16.8543C16.8436 4.36007 16.8332 4.35579 16.8256 4.34816C16.8179 4.34053 16.8137 4.33018 16.8137 4.31939C16.8137 4.3086 16.8179 4.29826 16.8256 4.29063C16.8332 4.283 16.8436 4.27871 16.8543 4.27871ZM18.0588 5.20403C17.6671 5.19323 17.2752 5.2044 16.8848 5.23751C16.8325 5.24195 16.833 5.16059 16.8848 5.15627C17.2752 5.12304 17.6671 5.11187 18.0588 5.12279C18.0643 5.12249 18.0698 5.12332 18.075 5.12523C18.0802 5.12713 18.085 5.13008 18.089 5.13388C18.093 5.13768 18.0962 5.14226 18.0984 5.14734C18.1005 5.15242 18.1017 5.15789 18.1017 5.16341C18.1017 5.16894 18.1005 5.17441 18.0984 5.17949C18.0962 5.18457 18.093 5.18915 18.089 5.19295C18.085 5.19675 18.0802 5.19969 18.075 5.2016C18.0698 5.20351 18.0643 5.20433 18.0588 5.20403ZM17.8782 14.8698C17.6934 14.878 17.5083 14.866 17.3262 14.8338C17.2747 14.8248 17.2967 14.7464 17.3479 14.7554C17.523 14.7858 17.7008 14.7969 17.8783 14.7886C17.9306 14.7858 17.9303 14.8674 17.8782 14.8698ZM18.5513 16.7867C18.5513 16.7975 18.547 16.8078 18.5394 16.8154C18.5317 16.8231 18.5214 16.8274 18.5106 16.8274C18.4998 16.8274 18.4894 16.8231 18.4818 16.8154C18.4742 16.8078 18.4699 16.7975 18.4699 16.7867V16.1543C18.4699 16.1435 18.4742 16.1331 18.4818 16.1255C18.4894 16.1179 18.4998 16.1136 18.5106 16.1136C18.5214 16.1136 18.5317 16.1179 18.5394 16.1255C18.547 16.1331 18.5513 16.1435 18.5513 16.1543V16.7867ZM18.5909 15.5219C18.5809 15.3295 18.5433 15.1396 18.4794 14.9579C18.462 14.9083 18.5406 14.8872 18.5577 14.9363C18.6236 15.1251 18.6622 15.3224 18.6722 15.5221C18.6749 15.5744 18.5936 15.5738 18.5909 15.5219Z" fill="#FFD2D2"/>
<path d="M18.2427 6.35012C18.2465 6.24084 18.2389 6.13145 18.2202 6.02372C18.1889 5.93492 18.13 5.85847 18.0522 5.80556C18.0033 5.76774 17.9488 5.73792 17.8906 5.71724C17.8198 5.69805 17.7464 5.69023 17.6731 5.69408C16.3118 5.66792 14.9503 5.66344 13.5885 5.68064C13.5978 5.684 13.6069 5.68784 13.6161 5.69108C13.6267 5.6951 13.6354 5.70316 13.6401 5.71351C13.6448 5.72385 13.6452 5.73564 13.6412 5.74628C13.639 5.75213 13.6356 5.75742 13.6311 5.76176C13.6265 5.76659 13.6205 5.76991 13.614 5.7713C13.6075 5.7727 13.6007 5.77209 13.5945 5.76956C13.5882 5.76728 13.5818 5.76464 13.5754 5.76224C13.5062 5.73752 13.4376 5.7112 13.3696 5.68328C13.14 5.6864 12.9105 5.6902 12.681 5.69468C12.6555 5.72244 12.6299 5.75 12.6042 5.77736C12.4784 5.90237 12.3634 6.03777 12.2605 6.18212C12.2549 6.19106 12.246 6.19746 12.2357 6.19997C12.2255 6.20248 12.2146 6.2009 12.2055 6.19557C12.1964 6.19024 12.1897 6.18158 12.1869 6.17141C12.184 6.16124 12.1853 6.15037 12.1903 6.14108C12.2489 6.02498 12.2994 5.90497 12.3415 5.78192C12.3512 5.75468 12.361 5.72744 12.3706 5.70008C11.3262 5.7216 10.2819 5.75432 9.23792 5.79824C8.53392 5.82784 7.82992 5.86244 7.12592 5.90204C6.99926 5.90234 6.87473 5.93462 6.76388 5.99588C6.66349 6.05647 6.58187 6.1437 6.52808 6.24788C6.47467 6.37243 6.4477 6.5067 6.44888 6.6422C6.43746 6.81663 6.43089 6.99134 6.4292 7.16612C6.42488 7.51616 6.43556 7.8662 6.4484 8.216C6.45476 8.38904 6.46172 8.56208 6.46748 8.73512C6.45992 8.88679 6.48542 9.03829 6.54224 9.17912C6.70196 9.50396 7.08356 9.54608 7.40624 9.55112C7.9652 9.5594 8.52512 9.54416 9.08396 9.53408C9.87972 9.51984 10.6754 9.50308 11.471 9.4838C11.5941 9.481 11.7172 9.47804 11.8402 9.47492C11.8625 9.44606 11.8862 9.41838 11.9114 9.392C11.9265 9.37616 11.9426 9.36128 11.9588 9.34652C11.9733 9.28488 12.003 9.22783 12.0452 9.18056C12.1373 9.07987 12.2478 8.99775 12.3708 8.93864C12.6462 8.78793 12.9509 8.69826 13.264 8.67572C13.6333 8.65547 13.9985 8.76092 14.3001 8.97488C14.4426 9.08063 14.565 9.21105 14.6616 9.35996C14.6797 9.38708 14.6965 9.41504 14.7132 9.44312C15.3627 9.43823 16.0121 9.42355 16.6611 9.39908C16.9251 9.38956 17.1889 9.37808 17.4525 9.36464C17.5726 9.36624 17.6924 9.35417 17.8098 9.32864C17.9187 9.29684 18.0167 9.23535 18.0928 9.15105C18.1688 9.06675 18.2199 8.96296 18.2403 8.85128C18.2539 8.73396 18.2576 8.61571 18.2516 8.49776C18.2529 8.23968 18.2538 7.98156 18.2544 7.7234C18.2547 7.2662 18.2569 6.8078 18.2427 6.35012ZM7.4828 6.71816C7.7138 6.70496 7.94504 6.69512 8.17628 6.68648C8.65796 6.66836 9.13976 6.6554 9.62168 6.64352C10.0525 6.63272 10.4833 6.62348 10.9142 6.6122C10.9246 6.61277 10.9344 6.6173 10.9415 6.62485C10.9487 6.63241 10.9527 6.64242 10.9527 6.65282C10.9527 6.66323 10.9487 6.67324 10.9415 6.6808C10.9344 6.68835 10.9246 6.69288 10.9142 6.69344C10.686 6.69944 10.458 6.705 10.2302 6.71012C9.7502 6.72152 9.269 6.73292 8.7884 6.74732C8.35316 6.7604 7.91768 6.77468 7.48292 6.79952C7.4306 6.80252 7.43084 6.72116 7.4828 6.71816ZM10.357 7.37096C10.159 7.3752 9.96108 7.37988 9.76316 7.385C9.00284 7.40504 8.24204 7.42868 7.48316 7.47644C7.43084 7.47968 7.4312 7.39832 7.48316 7.39508C7.68268 7.3826 7.88232 7.37184 8.08208 7.3628C8.84012 7.3268 9.59876 7.30556 10.3574 7.28972C10.3678 7.29029 10.3776 7.29482 10.3847 7.30237C10.3919 7.30993 10.3959 7.31994 10.3959 7.33034C10.3959 7.34075 10.3919 7.35076 10.3847 7.35832C10.3776 7.36587 10.3674 7.3704 10.357 7.37096ZM9.5666 8.71856C9.4196 8.72444 9.2726 8.72816 9.1256 8.73056C8.57792 8.73968 8.03024 8.73596 7.4828 8.75936C7.43036 8.76164 7.43072 8.68028 7.4828 8.678C7.6508 8.67096 7.8188 8.66572 7.9868 8.66228C8.51336 8.65148 9.04028 8.6582 9.56672 8.63732C9.61892 8.63528 9.61868 8.71652 9.5666 8.71856ZM12.6372 7.9658C12.2488 7.98764 11.86 8.00408 11.4709 8.01512C10.8132 8.03468 10.1551 8.04188 9.49712 8.05112C8.82512 8.06024 8.15396 8.07236 7.4828 8.1002C7.43036 8.10236 7.43072 8.021 7.4828 8.01884C7.86568 8.00284 8.24868 7.99124 8.6318 7.98404C9.28748 7.97048 9.94328 7.96532 10.599 7.95404C11.2788 7.94204 11.9583 7.92284 12.6372 7.88468C12.6896 7.88156 12.6892 7.9628 12.6372 7.9658ZM17.5383 7.1654C17.3782 7.50728 17.1864 7.83176 17.0088 8.16452C17.0032 8.17384 16.9941 8.18056 16.9835 8.18319C16.973 8.18582 16.9618 8.18416 16.9525 8.17856C16.9468 8.17506 16.942 8.17024 16.9386 8.16452C16.8105 7.92151 16.7073 7.66622 16.6304 7.40252C16.6275 7.39212 16.6289 7.381 16.6343 7.37161C16.6396 7.36223 16.6484 7.35535 16.6588 7.35248C16.6692 7.34962 16.6804 7.35101 16.6897 7.35634C16.6991 7.36167 16.706 7.37052 16.7089 7.38092C16.7769 7.61378 16.8661 7.83992 16.9753 8.05652C17.1424 7.74728 17.319 7.44368 17.4681 7.12496C17.4903 7.07756 17.5604 7.11824 17.5383 7.1654Z" fill="#FF8684"/>
<path d="M17.6847 11.9553C17.7238 11.8974 17.7424 11.8279 17.7373 11.7582C17.7323 11.6884 17.7039 11.6223 17.6568 11.5706C17.5728 11.4787 17.4103 11.3771 17.2812 11.4329C17.2045 11.4634 17.1404 11.5193 17.0997 11.5911C17.0589 11.663 17.0438 11.7466 17.0569 11.8281C17.1174 12.1074 17.5249 12.2076 17.6847 11.9553ZM10.8719 13.6674C10.802 13.566 10.7327 13.4641 10.6642 13.3615C10.6635 13.3604 10.6642 13.3587 10.6631 13.3575C10.662 13.3563 10.6601 13.3555 10.659 13.3538C10.3858 12.9438 10.1289 12.524 9.86701 12.1069C9.82202 12.027 9.7654 11.9542 9.69901 11.8909C9.67045 11.8662 9.63769 11.8435 9.60013 11.8609C9.55345 11.8911 9.51172 11.9283 9.47641 11.9713C9.32605 12.1147 9.09877 12.2953 8.89465 12.1393C8.86278 12.1158 8.83749 12.0845 8.82121 12.0483C8.70445 12.1571 8.52397 12.3075 8.36749 12.2163C8.32084 12.1887 8.28524 12.1457 8.26681 12.0947C8.24837 12.0437 8.24825 11.9879 8.26645 11.9369C8.29165 11.861 8.32875 11.7897 8.37637 11.7255C8.35603 11.7166 8.33816 11.7028 8.32429 11.6855C8.30082 11.6408 8.28728 11.5916 8.2846 11.5413C8.28193 11.4909 8.29019 11.4406 8.30881 11.3937C8.3273 11.3078 8.35865 11.2252 8.40181 11.1487C8.48173 11.0222 8.57728 10.9063 8.68621 10.8037C8.51424 10.8686 8.33479 10.9115 8.15209 10.9316C8.05907 10.9501 7.9625 10.9312 7.88329 10.8791C7.86107 10.8569 7.84697 10.8279 7.84325 10.7967C7.83952 10.7655 7.8464 10.734 7.86277 10.7072C7.8994 10.6424 7.95473 10.5902 8.02153 10.5575C8.05154 10.542 8.08262 10.5288 8.11453 10.5179C8.15989 10.5017 8.20621 10.4877 8.25109 10.4721L8.35705 10.4349C8.20957 10.4371 8.06209 10.4384 7.91461 10.4415C7.72261 10.4455 7.53157 10.4497 7.34029 10.4601C7.13917 10.4709 6.89905 10.4841 6.75229 10.6383C6.64372 10.7778 6.5899 10.9521 6.60097 11.1285C6.59317 11.3695 6.59521 11.6111 6.59521 11.8521C6.59521 12.3464 6.59425 12.8426 6.61597 13.3365C6.61345 13.4362 6.6406 13.5343 6.69397 13.6185C6.73993 13.6786 6.80148 13.725 6.87193 13.7526C6.99366 13.7974 7.12227 13.8206 7.25197 13.8212C7.34413 13.8257 7.43641 13.8265 7.52869 13.8271C7.83553 13.8289 8.14237 13.8233 8.44921 13.8171C8.87937 13.8087 9.30953 13.7977 9.73969 13.7844C10.1356 13.7729 10.5316 13.7603 10.9277 13.7468C10.9089 13.7205 10.8903 13.694 10.8719 13.6674ZM7.51885 12.078H8.15125C8.16164 12.0785 8.17142 12.0831 8.17858 12.0906C8.18573 12.0982 8.18972 12.1082 8.18972 12.1186C8.18972 12.129 8.18573 12.139 8.17858 12.1466C8.17142 12.1541 8.16164 12.1587 8.15125 12.1592H7.51885C7.50846 12.1587 7.49868 12.1541 7.49152 12.1466C7.48437 12.139 7.48038 12.129 7.48038 12.1186C7.48038 12.1082 7.48437 12.0982 7.49152 12.0906C7.49868 12.0831 7.50846 12.0785 7.51885 12.078ZM8.15125 11.5365C8.16164 11.5371 8.17142 11.5416 8.17858 11.5492C8.18573 11.5567 8.18972 11.5667 8.18972 11.5772C8.18972 11.5876 8.18573 11.5976 8.17858 11.6051C8.17142 11.6127 8.16164 11.6172 8.15125 11.6178L7.48873 11.6211C7.47834 11.6206 7.46856 11.616 7.4614 11.6085C7.45425 11.6009 7.45026 11.5909 7.45026 11.5805C7.45026 11.5701 7.45425 11.5601 7.4614 11.5525C7.46856 11.545 7.47834 11.5405 7.48873 11.5399L8.15125 11.5365Z" fill="#FF9F48"/>
<path d="M18.634 11.3854C18.6321 11.0505 18.6783 10.6087 18.4306 10.3403C18.2452 10.1396 17.9541 10.1589 17.7029 10.1624C17.3172 10.1677 16.9315 10.1821 16.5461 10.1959C16.0427 10.2139 15.5395 10.2335 15.0363 10.2547C15.0443 10.2815 15.0525 10.3083 15.0603 10.3352C15.127 10.5597 15.1923 10.7847 15.2763 11.0037C15.4318 11.405 15.6289 11.7889 15.8643 12.1492C15.883 12.1781 15.9003 12.208 15.9156 12.2386C15.9989 12.4039 16.0606 12.5793 16.0992 12.7604C16.1476 12.9258 16.1519 13.1011 16.1118 13.2687C16.0936 13.333 16.0526 13.3884 15.9965 13.4247C15.9879 13.4297 15.9789 13.4341 15.9696 13.4378C15.9799 13.4536 15.9901 13.4697 16.0003 13.4858C16.0174 13.5122 16.0347 13.5385 16.0513 13.5651C16.415 13.5521 16.7787 13.5395 17.1425 13.5273C17.3889 13.5193 17.6352 13.511 17.8817 13.5068C17.937 13.5058 17.9926 13.5046 18.0479 13.5061C18.128 13.5078 18.2077 13.493 18.2819 13.4627C18.3561 13.4324 18.4233 13.3872 18.4793 13.3299C18.5354 13.269 18.5787 13.1975 18.6067 13.1195C18.6346 13.0416 18.6466 12.9589 18.642 12.8762L18.634 11.3854ZM17.2697 12.1597C17.1884 12.135 17.1164 12.0866 17.0629 12.0206C17.0095 11.9546 16.977 11.8741 16.9697 11.7895C16.9667 11.6994 16.9908 11.6105 17.0391 11.5344C17.0873 11.4582 17.1574 11.3984 17.2402 11.3627C17.4233 11.2837 17.6423 11.4094 17.7507 11.5576C17.7995 11.6298 17.8233 11.716 17.8185 11.8031C17.8136 11.8901 17.7804 11.9731 17.7238 12.0394C17.6689 12.1027 17.5962 12.148 17.5153 12.1695C17.4343 12.1909 17.3487 12.1875 17.2697 12.1597ZM12.5611 11.5533C12.5128 11.5538 12.4645 11.5519 12.4164 11.5475C12.1877 11.5361 11.9687 11.4514 11.7918 11.3059C11.6181 11.1258 11.5206 10.8856 11.5197 10.6354C11.517 10.5835 11.5167 10.5314 11.5186 10.4794C11.5193 10.4523 11.5211 10.4253 11.523 10.3981C11.2915 10.4071 11.0598 10.4159 10.8282 10.4179C10.5659 10.4201 10.3036 10.4207 10.0413 10.4216C10.0918 10.4468 10.1416 10.4735 10.1899 10.5025C10.194 10.505 10.1983 10.5071 10.2019 10.5095C10.4961 10.6968 10.7592 10.9288 10.9819 11.1971C11.2524 11.5091 11.5041 11.8378 11.7595 12.1625L11.7627 12.1679C11.7636 12.1697 11.7646 12.1689 11.7653 12.1699C11.9333 12.3825 12.0947 12.6239 12.3485 12.7408C12.4996 12.8039 12.6659 12.8211 12.8267 12.7901C12.8371 12.6155 12.8479 12.4408 12.8658 12.2669C12.7781 12.0234 12.6764 11.7851 12.5611 11.5533Z" fill="#FF9F48"/>
<path d="M16.4858 14.3445C16.3556 14.0769 16.2109 13.8165 16.0524 13.5645C16.0357 13.5379 16.0184 13.5116 16.0014 13.4852L15.9707 13.4372C15.9438 13.4469 15.9161 13.4541 15.8879 13.4586C16.0521 13.7071 16.2023 13.9645 16.3379 14.2297C16.5565 14.6608 16.7419 15.1079 16.8926 15.5672C17.0219 15.9576 17.1285 16.3552 17.212 16.7578L17.22 16.7988L17.3104 16.8373C17.2343 16.451 17.137 16.0692 17.0188 15.6937C16.8744 15.2315 16.6963 14.7806 16.4858 14.3445ZM11.2217 14.0205C11.2003 13.9911 11.1786 13.9622 11.1575 13.9327C11.018 13.7383 10.882 13.5415 10.7495 13.3423C11.0444 12.9526 11.3735 12.5901 11.7329 12.2589C11.9009 12.4749 12.0697 12.7083 12.3286 12.82C12.4868 12.8832 12.6596 12.901 12.8274 12.8714V12.8373C12.8276 12.8278 12.8313 12.8186 12.8376 12.8114C12.844 12.8043 12.8527 12.7997 12.8622 12.7983C12.8717 12.797 12.8813 12.7991 12.8894 12.8043C12.8974 12.8094 12.9034 12.8173 12.9062 12.8264V12.8251C12.9166 12.6517 12.9276 12.4782 12.9443 12.3052C12.9284 12.3038 12.9124 12.3026 12.8963 12.3004C12.8895 12.2986 12.8832 12.295 12.8782 12.2901C12.8732 12.2851 12.8697 12.2788 12.8678 12.272L12.8659 12.2667C12.848 12.4406 12.8372 12.6153 12.8268 12.7899C12.666 12.8209 12.4997 12.8037 12.3486 12.7406C12.0948 12.6237 11.9329 12.3823 11.7654 12.1696C11.7647 12.1687 11.7636 12.1686 11.7628 12.1677C11.7686 12.1753 11.7715 12.1848 11.771 12.1944C11.7704 12.204 11.7664 12.2131 11.7596 12.2199C11.4569 12.4991 11.1733 12.7983 10.9108 13.1156C10.8483 13.1935 10.7878 13.2729 10.7292 13.3537C10.7233 13.3627 10.7141 13.369 10.7036 13.3712C10.6931 13.3735 10.6821 13.3715 10.673 13.3657C10.6692 13.3633 10.6659 13.3603 10.6631 13.3568C10.6631 13.358 10.6631 13.3597 10.6642 13.3608C10.7326 13.4632 10.8018 13.5652 10.8719 13.6666C10.8902 13.6932 10.909 13.7194 10.9273 13.746C10.9823 13.8248 11.0377 13.9032 11.0936 13.9812C11.1269 13.9908 11.16 14.0006 11.1923 14.0102C11.2022 14.0138 11.2122 14.0176 11.2217 14.0205Z" fill="black"/>
<path d="M13.6973 12.0059C13.6476 11.9022 13.6001 11.7974 13.5548 11.6917C13.4837 11.5293 13.4253 11.3617 13.3799 11.1903C13.2869 11.3014 13.1706 11.3909 13.0394 11.4523C12.9161 11.508 12.7839 11.541 12.649 11.5499C12.6198 11.5521 12.5906 11.5531 12.5613 11.5533C12.6766 11.7851 12.7784 12.0234 12.8661 12.2669L12.868 12.2723C12.8698 12.2792 12.8734 12.2854 12.8784 12.2903C12.8834 12.2953 12.8896 12.2989 12.8964 12.3007C12.9122 12.3028 12.9282 12.304 12.9444 12.3055C13.1315 12.3215 13.3198 12.294 13.4944 12.2251C13.5822 12.1923 13.6634 12.1443 13.7344 12.0832C13.7213 12.0575 13.7094 12.0316 13.6973 12.0059Z" fill="#A76C6C"/>
<path d="M16.1002 12.7606C16.0616 12.5795 15.9999 12.4042 15.9166 12.2389C15.9009 12.2083 15.8837 12.1784 15.8652 12.1495C15.6299 11.7891 15.4328 11.4052 15.2772 11.0039C15.1925 10.7849 15.1277 10.5599 15.0612 10.3354L15.0372 10.2549C14.9992 10.126 14.9577 9.99813 14.9127 9.8715C14.8599 9.72294 14.7934 9.57964 14.7139 9.44346C14.6975 9.41529 14.6803 9.38756 14.6623 9.3603C14.5658 9.21138 14.4434 9.08096 14.3009 8.97522C13.9991 8.76101 13.6336 8.65547 13.2641 8.67582C12.9511 8.69841 12.6465 8.78808 12.3712 8.93874C12.2482 8.99784 12.1377 9.07996 12.0456 9.18066C12.0035 9.22793 11.9738 9.28497 11.9592 9.34662C11.9668 9.33978 11.9737 9.33258 11.9814 9.32598C12.0188 9.29411 12.0586 9.26515 12.1003 9.23934C12.1485 9.20885 12.2011 9.18617 12.2563 9.17214C12.3594 9.15116 12.4658 9.15378 12.5676 9.17982C12.7877 9.23118 12.9905 9.33938 13.1556 9.49362C13.3119 9.64997 13.4262 9.84321 13.4879 10.0555C13.5286 10.0016 13.5837 9.96023 13.6467 9.9361C13.7098 9.91197 13.7784 9.90604 13.8447 9.91899C13.911 9.93193 13.9723 9.96323 14.0216 10.0093C14.071 10.0554 14.1064 10.1144 14.1239 10.1797C14.1413 10.2496 14.1427 10.3226 14.1282 10.3932C14.1137 10.4638 14.0835 10.5302 14.0399 10.5877C13.9285 10.7249 13.7388 10.7189 13.5787 10.6855C13.5761 10.7398 13.5688 10.7938 13.5571 10.847C13.5348 10.9388 13.4963 11.026 13.4435 11.1045C13.424 11.1341 13.4028 11.1626 13.38 11.1898C13.4254 11.3612 13.4838 11.5288 13.5549 11.6912C13.6002 11.7969 13.6477 11.9017 13.6974 12.0055L13.7334 12.0827C13.7934 12.2097 13.8556 12.3362 13.9134 12.4642C14.0059 12.6826 14.1357 12.8833 14.2968 13.0573C14.4266 13.1912 14.581 13.2989 14.7515 13.3744C15.0242 13.4889 15.3216 13.5319 15.6155 13.4993C15.7042 13.4908 15.7919 13.4767 15.8795 13.4596L15.8868 13.4582C15.915 13.4537 15.9427 13.4466 15.9695 13.4368C15.9788 13.4331 15.9878 13.4288 15.9965 13.4237C16.0526 13.3875 16.0936 13.332 16.1118 13.2677C16.152 13.1005 16.148 12.9258 16.1002 12.7606Z" fill="black"/>
<path d="M9.46888 10.9846C9.40144 10.8457 9.26824 10.988 9.20488 11.0525C9.10088 11.1589 8.99716 11.2651 8.89372 11.3713L8.7322 11.5366C8.68901 11.5845 8.64292 11.6296 8.5942 11.6719C8.5585 11.7011 8.51673 11.722 8.47192 11.7331C8.43998 11.7412 8.40623 11.7386 8.37592 11.7256C8.3283 11.7898 8.2912 11.8611 8.266 11.9369C8.2478 11.988 8.24793 12.0438 8.26636 12.0948C8.28479 12.1458 8.32039 12.1888 8.36704 12.2164C8.52304 12.3073 8.704 12.1564 8.82076 12.0484C8.80759 12.0182 8.80218 11.9852 8.80504 11.9524C8.81812 11.7983 8.9836 11.63 9.07756 11.5291C9.16732 11.4331 9.26728 11.3491 9.36412 11.2609C9.44068 11.1904 9.52096 11.0917 9.46888 10.9846Z" fill="#7D4AB4"/>
<path d="M11.9291 9.92998C11.9619 9.97018 11.9051 10.028 11.8716 9.98746C11.8184 9.92242 11.7447 9.94318 11.6814 9.98146C11.6701 10.02 11.6588 10.0585 11.6501 10.0974C11.5531 10.5221 11.5512 11.1066 11.9871 11.3447C12.1829 11.4434 12.4019 11.487 12.6206 11.4708C12.7957 11.4639 12.966 11.4112 13.1144 11.3181C13.2229 11.248 13.3149 11.1552 13.3841 11.0461C13.4604 10.923 13.5007 10.7809 13.5006 10.6361C13.5007 10.6307 13.5018 10.6253 13.5039 10.6204C13.5061 10.6154 13.5092 10.6109 13.5131 10.6071C13.5169 10.6034 13.5215 10.6004 13.5266 10.5984C13.5316 10.5964 13.5369 10.5954 13.5423 10.5955C13.5456 10.5955 13.5489 10.596 13.5521 10.5968C13.7192 10.6383 13.9371 10.6568 14.0174 10.4687C14.0442 10.4076 14.058 10.3417 14.058 10.2751C14.0574 10.2091 14.0339 10.1454 13.9915 10.0949C13.9491 10.0443 13.8905 10.01 13.8256 9.99788C13.7608 9.98573 13.6938 9.99649 13.636 10.0283C13.5782 10.0601 13.5332 10.111 13.5087 10.1723C13.503 10.1815 13.4938 10.1882 13.4832 10.1906C13.4726 10.1931 13.4614 10.1913 13.4521 10.1856C13.4436 10.1803 13.4373 10.1721 13.4343 10.1625C13.3763 9.90851 13.2405 9.67887 13.0459 9.50554C12.8678 9.35313 12.6465 9.26016 12.413 9.23962C12.3132 9.24273 12.2155 9.26949 12.128 9.3177C12.0405 9.36591 11.9657 9.4342 11.9097 9.51694C11.8264 9.62554 11.7612 9.74686 11.7165 9.87622C11.7277 9.8724 11.7391 9.86939 11.7507 9.86722C11.7834 9.86156 11.8169 9.86435 11.8481 9.87534C11.8793 9.88633 11.9072 9.90514 11.9291 9.92998ZM13.5455 10.3557C13.6367 10.3152 13.7274 10.273 13.8174 10.2293C13.8643 10.2065 13.9055 10.2773 13.8584 10.2995C13.7684 10.3431 13.6778 10.3853 13.5865 10.4261C13.539 10.4471 13.4977 10.377 13.5455 10.3557ZM11.6941 10.4325V10.2967C11.6941 10.2859 11.6984 10.2756 11.706 10.2679C11.7137 10.2603 11.724 10.256 11.7348 10.256C11.7456 10.256 11.7559 10.2603 11.7636 10.2679C11.7712 10.2756 11.7755 10.2859 11.7755 10.2967V10.4325C11.7755 10.4433 11.7712 10.4537 11.7636 10.4613C11.7559 10.4689 11.7456 10.4732 11.7348 10.4732C11.724 10.4732 11.7137 10.4689 11.706 10.4613C11.6984 10.4537 11.6941 10.4433 11.6941 10.4325ZM12.6301 10.4702C12.6367 10.5221 12.5553 10.5213 12.5489 10.4702C12.5433 10.4203 12.5433 10.37 12.5489 10.3201C12.5533 10.2683 12.6347 10.268 12.6301 10.3201C12.6245 10.37 12.6245 10.4203 12.6301 10.4702ZM12.3823 9.91078C12.4368 9.84333 12.5132 9.7972 12.5983 9.78046C12.6956 9.7711 12.7586 9.84046 12.8225 9.90286C12.86 9.93958 12.8024 9.99694 12.765 9.96034C12.7181 9.9145 12.6697 9.85078 12.597 9.86254C12.5349 9.88047 12.4799 9.91745 12.4399 9.96826C12.4322 9.97537 12.422 9.97921 12.4115 9.97899C12.401 9.97877 12.391 9.97451 12.3836 9.96709C12.3762 9.95967 12.3719 9.94966 12.3717 9.93917C12.3715 9.92868 12.3752 9.91851 12.3823 9.91078ZM12.5521 10.6674C12.5575 10.6675 12.5628 10.6686 12.5678 10.6707C12.5727 10.6729 12.5772 10.676 12.581 10.6799C12.5847 10.6838 12.5876 10.6883 12.5896 10.6934C12.5916 10.6984 12.5925 10.7037 12.5924 10.7091C12.5923 10.7159 12.5905 10.7225 12.5873 10.7285C12.5542 10.807 12.501 10.8755 12.4331 10.927C12.3652 10.9785 12.2849 11.0112 12.2004 11.022C12.0927 11.029 11.9858 10.9989 11.8976 10.9365C11.8183 10.8733 11.7556 10.7917 11.7149 10.6988C11.7143 10.6971 11.7138 10.6953 11.7134 10.6935V10.692C11.7104 10.6835 11.7104 10.6742 11.7134 10.6657C11.7152 10.6586 11.7192 10.6522 11.7248 10.6474C11.7303 10.6426 11.7372 10.6396 11.7445 10.6388L11.7488 10.638H11.7506C12.0182 10.638 12.2846 10.6667 12.5521 10.6674Z" fill="#A76C6C"/>
<path d="M11.5196 10.6354C11.5205 10.8856 11.618 11.1258 11.7917 11.3058C11.9686 11.4514 12.1876 11.5361 12.4163 11.5475C12.4645 11.5519 12.5128 11.5538 12.5611 11.5533C12.5903 11.5532 12.6196 11.5521 12.6488 11.5499C12.7837 11.541 12.9159 11.5079 13.0391 11.4522C13.1704 11.3908 13.2867 11.3014 13.3797 11.1903C13.4025 11.163 13.4237 11.1346 13.4432 11.1049C13.496 11.0265 13.5344 10.9393 13.5568 10.8474C13.5685 10.7943 13.5758 10.7402 13.5785 10.6859C13.7385 10.7194 13.9282 10.7254 14.0396 10.5881C14.0832 10.5307 14.1133 10.4642 14.1279 10.3936C14.1424 10.323 14.1409 10.2501 14.1236 10.1801C14.1063 10.1147 14.071 10.0555 14.0216 10.0093C13.9723 9.96302 13.9109 9.93163 13.8445 9.91866C13.7781 9.9057 13.7095 9.9117 13.6463 9.93597C13.5832 9.96024 13.5282 10.0018 13.4876 10.0559C13.4258 9.84365 13.3116 9.65041 13.1553 9.49405C12.9901 9.33982 12.7874 9.23161 12.5673 9.18025C12.4655 9.15422 12.359 9.15159 12.256 9.17257C12.2008 9.18662 12.1482 9.2093 12.1 9.23977C12.0582 9.26558 12.0185 9.29455 11.9811 9.32641C11.9734 9.33301 11.9665 9.34021 11.9589 9.34705C11.9426 9.36166 11.9268 9.37683 11.9115 9.39253C11.8864 9.41888 11.8626 9.44656 11.8405 9.47545C11.7448 9.6023 11.671 9.74426 11.6221 9.89545C11.6185 9.90625 11.6161 9.91765 11.6126 9.92857C11.644 9.90542 11.6792 9.88774 11.7165 9.87625C11.7612 9.74692 11.8264 9.62564 11.9097 9.51709C11.9656 9.43431 12.0404 9.36599 12.1279 9.31776C12.2154 9.26953 12.3131 9.24276 12.413 9.23965C12.6465 9.26018 12.8678 9.35315 13.0459 9.50557C13.2405 9.6789 13.3762 9.90853 13.4343 10.1626C13.4375 10.173 13.4446 10.1818 13.4542 10.1869C13.4639 10.1921 13.4751 10.1932 13.4855 10.1901C13.4951 10.1871 13.5034 10.1808 13.5087 10.1723C13.5332 10.111 13.5781 10.0601 13.6359 10.0283C13.6937 9.99651 13.7608 9.98576 13.8256 9.9979C13.8905 10.01 13.9491 10.0443 13.9914 10.0949C14.0338 10.1455 14.0573 10.2092 14.0579 10.2751C14.0579 10.3418 14.0441 10.4077 14.0174 10.4687C13.9371 10.6566 13.7192 10.6384 13.552 10.5969C13.5468 10.5955 13.5413 10.5952 13.536 10.5959C13.5306 10.5966 13.5255 10.5984 13.5208 10.6012C13.5161 10.6039 13.5121 10.6076 13.5088 10.6119C13.5056 10.6162 13.5032 10.6211 13.5019 10.6264C13.501 10.6295 13.5006 10.6328 13.5005 10.6361C13.5007 10.781 13.4603 10.9231 13.384 11.0463C13.3148 11.1552 13.2229 11.248 13.1145 11.3182C12.966 11.4112 12.7957 11.4639 12.6206 11.4708C12.4019 11.487 12.1829 11.4434 11.9871 11.3446C11.5511 11.1065 11.5531 10.522 11.65 10.0973C11.6588 10.0584 11.6701 10.0199 11.6813 9.98137C11.6539 9.99818 11.6279 10.0172 11.6036 10.0381C11.5966 10.0441 11.5878 10.0475 11.5786 10.0477C11.5498 10.1626 11.5312 10.2798 11.5229 10.398C11.521 10.4251 11.5192 10.4521 11.5185 10.4793C11.5171 10.5316 11.5165 10.5838 11.5196 10.6354Z" fill="black"/>
<path d="M11.7481 10.6374L11.7438 10.6382C11.7365 10.639 11.7296 10.642 11.7241 10.6468C11.7185 10.6516 11.7146 10.658 11.7127 10.6651C11.7097 10.6736 11.7097 10.6829 11.7127 10.6914V10.693C11.7127 10.6948 11.7137 10.6964 11.7143 10.6982C11.7551 10.7914 11.818 10.8733 11.8977 10.9366C11.9857 10.9988 12.0924 11.0291 12.1999 11.0222C12.2845 11.0115 12.3647 10.9787 12.4326 10.9272C12.5005 10.8757 12.5537 10.8072 12.5868 10.7287C12.5903 10.7225 12.5921 10.7155 12.5921 10.7084C12.592 10.7013 12.5901 10.6944 12.5866 10.6882C12.583 10.682 12.578 10.6769 12.5718 10.6733C12.5657 10.6697 12.5588 10.6677 12.5517 10.6676C12.2842 10.667 12.0174 10.6382 11.7499 10.6376C11.7493 10.6366 11.7489 10.6374 11.7481 10.6374ZM12.4816 10.7466C12.4535 10.799 12.4133 10.844 12.3643 10.8777C12.3153 10.9114 12.259 10.9329 12.1999 10.9403C12.1091 10.9469 12.0188 10.9219 11.9442 10.8696C11.8918 10.8299 11.8489 10.779 11.8187 10.7206C12.0401 10.7242 12.2605 10.7424 12.4816 10.7466Z" fill="black"/>
<path d="M7.92888 10.7558C7.92358 10.7696 7.92205 10.7846 7.92444 10.7991C7.927 10.8048 7.93009 10.8102 7.93368 10.8152C7.94304 10.8255 7.94172 10.8239 7.95768 10.8324C7.98887 10.845 8.02208 10.8519 8.05571 10.8528C8.11483 10.8547 8.17399 10.8505 8.23224 10.8402C8.43615 10.8019 8.63573 10.7433 8.82804 10.6655C8.86836 10.6502 8.8932 10.706 8.86764 10.7334C8.71824 10.8936 8.53332 11.0481 8.44044 11.2509C8.39245 11.3493 8.36735 11.4573 8.367 11.5668C8.37036 11.6288 8.40756 11.6748 8.4726 11.6508C8.5368 11.6189 8.59308 11.573 8.63736 11.5166C8.74136 11.4104 8.84508 11.3041 8.94852 11.1979C9.03991 11.0956 9.13656 10.998 9.23808 10.9057C9.27124 10.8701 9.31678 10.8484 9.36537 10.8453C9.41396 10.8421 9.46192 10.8576 9.49944 10.8887C9.52981 10.9204 9.55104 10.9597 9.56088 11.0025C9.57073 11.0452 9.56882 11.0899 9.55536 11.1317C9.51 11.2325 9.43797 11.3191 9.34704 11.382C9.24398 11.4704 9.14793 11.5667 9.05976 11.67C9.01198 11.7234 8.96826 11.7803 8.92896 11.8403C8.91034 11.8636 8.89725 11.8908 8.89068 11.9199C8.88411 11.949 8.88423 11.9792 8.89104 12.0083C8.90467 12.0333 8.92324 12.0554 8.94562 12.0731C8.968 12.0908 8.99374 12.1038 9.02127 12.1113C9.0488 12.1188 9.07757 12.1206 9.10584 12.1167C9.1341 12.1128 9.16129 12.1032 9.18576 12.0885C9.28843 12.0329 9.3809 11.9601 9.45924 11.8735C9.52416 11.8086 9.59808 11.7415 9.69324 11.7881C9.76722 11.8329 9.82922 11.8951 9.87396 11.9691C9.91704 12.0297 9.95532 12.0937 9.99396 12.1569C10.2233 12.5283 10.4554 12.8979 10.6966 13.2618C10.7477 13.1928 10.799 13.1239 10.8526 13.0571C11.1074 12.7488 11.3824 12.4578 11.6758 12.186C11.4163 11.8556 11.1608 11.5212 10.8827 11.2062C10.6704 10.956 10.4205 10.7405 10.1419 10.5673C9.99958 10.4815 9.8467 10.4145 9.68712 10.3681C9.54528 10.3278 9.39792 10.3091 9.25716 10.2642C9.12355 10.2279 9.00529 10.1494 8.92008 10.0403C8.88252 9.98891 8.8518 9.93323 8.81724 9.87995C8.78871 9.827 8.74748 9.78197 8.69724 9.74891C8.5692 9.68099 8.48784 9.82859 8.49132 9.93779C8.49636 10.0938 8.63928 10.2188 8.71728 10.3433C8.72262 10.3528 8.72397 10.364 8.72102 10.3745C8.71807 10.3851 8.71107 10.394 8.70156 10.3993C8.69882 10.4009 8.69592 10.4021 8.69292 10.403C8.54976 10.4529 8.40696 10.5037 8.26368 10.5534C8.18926 10.5739 8.11694 10.6014 8.04768 10.6355C7.99614 10.6617 7.95447 10.704 7.92888 10.7558ZM9.89388 10.8575C9.96421 10.9406 10.0023 11.0462 10.0012 11.1551C10.0012 11.1659 9.99687 11.1762 9.98924 11.1838C9.98161 11.1915 9.97126 11.1957 9.96048 11.1957C9.94969 11.1957 9.93934 11.1915 9.93171 11.1838C9.92408 11.1762 9.9198 11.1659 9.9198 11.1551C9.9215 11.0677 9.89193 10.9826 9.8364 10.9151C9.80316 10.8749 9.8604 10.8171 9.89388 10.8575Z" fill="#A76C6C"/>
<path d="M8.11407 10.5179C8.08216 10.5289 8.05108 10.5421 8.02107 10.5575C7.95427 10.5903 7.89894 10.6425 7.86231 10.7073C7.84594 10.7341 7.83906 10.7656 7.84278 10.7968C7.84651 10.8279 7.86061 10.8569 7.88283 10.8791C7.96203 10.9313 8.0586 10.9502 8.15163 10.9317C8.33453 10.9116 8.51418 10.8687 8.68635 10.8038C8.57742 10.9064 8.48183 11.0223 8.40183 11.1488C8.35876 11.2253 8.32745 11.3079 8.30895 11.3938C8.29033 11.4407 8.28207 11.491 8.28474 11.5413C8.28741 11.5917 8.30095 11.6409 8.32443 11.6855C8.3383 11.7029 8.35617 11.7166 8.37651 11.7256C8.40682 11.7386 8.44056 11.7412 8.47251 11.733C8.51731 11.722 8.55909 11.7011 8.59479 11.6718C8.6433 11.6296 8.68919 11.5844 8.73219 11.5366L8.89407 11.3708C8.99807 11.2646 9.10179 11.1584 9.20523 11.052C9.26823 10.9875 9.40143 10.8452 9.46923 10.9841C9.52131 11.0921 9.44103 11.1904 9.36507 11.2601C9.26823 11.3489 9.16827 11.4318 9.07851 11.5283C8.98455 11.6292 8.81907 11.7976 8.80599 11.9517C8.80313 11.9845 8.80853 12.0175 8.82171 12.0477C8.83799 12.0838 8.86327 12.1151 8.89515 12.1386C9.09915 12.2955 9.32655 12.1146 9.47691 11.9706C9.51222 11.9277 9.55395 11.8904 9.60063 11.8602C9.63819 11.8428 9.67095 11.8655 9.69951 11.8902C9.7659 11.9535 9.82252 12.0263 9.86751 12.1062C10.1293 12.5234 10.3863 12.9431 10.6595 13.3532C10.6606 13.3548 10.6623 13.3554 10.6636 13.3569C10.6677 13.3619 10.6729 13.3658 10.6788 13.3685C10.6847 13.3711 10.6911 13.3722 10.6976 13.3719C10.704 13.3715 10.7103 13.3696 10.7159 13.3664C10.7215 13.3631 10.7262 13.3586 10.7297 13.3532C10.7885 13.2724 10.8486 13.1928 10.9113 13.1151C11.1736 12.7982 11.4571 12.4994 11.7597 12.2206C11.7664 12.2137 11.7704 12.2047 11.771 12.1951C11.7716 12.1855 11.7687 12.176 11.7628 12.1684L11.7597 12.163C11.5042 11.8383 11.2525 11.5102 10.9821 11.1976C10.7594 10.9293 10.4962 10.6973 10.2021 10.51C10.198 10.5076 10.1937 10.5054 10.1901 10.5029C10.1421 10.474 10.0919 10.4472 10.0414 10.422C9.94377 10.3728 9.84217 10.3318 9.73767 10.2996C9.58287 10.253 9.42087 10.2344 9.26727 10.1836C9.19673 10.165 9.13088 10.1318 9.07397 10.0862C9.01706 10.0405 8.97037 9.98346 8.93691 9.91863C8.87439 9.81783 8.80419 9.6802 8.67555 9.6562C8.51955 9.62692 8.41887 9.76972 8.41071 9.91048C8.40087 10.0814 8.52699 10.2111 8.61951 10.3434L8.35671 10.4355L8.25075 10.4727C8.20575 10.4878 8.15943 10.5017 8.11407 10.5179ZM8.69319 10.4031C8.69838 10.4016 8.70323 10.399 8.70745 10.3956C8.71167 10.3923 8.71517 10.3881 8.71777 10.3833C8.72037 10.3786 8.722 10.3734 8.72258 10.368C8.72316 10.3626 8.72268 10.3571 8.72115 10.352C8.7203 10.3489 8.71909 10.346 8.71755 10.3433C8.63955 10.2189 8.49663 10.094 8.49159 9.93784C8.48811 9.82864 8.56947 9.68104 8.69751 9.74896C8.74775 9.78202 8.78899 9.82705 8.81751 9.87999C8.85207 9.93327 8.88279 9.98896 8.92035 10.0403C9.00557 10.15 9.12412 10.229 9.25815 10.2654C9.39891 10.3103 9.54615 10.329 9.68811 10.3694C9.84769 10.4158 10.0006 10.4828 10.1429 10.5686C10.4215 10.7418 10.6714 10.9573 10.8837 11.2074C11.1618 11.5224 11.4173 11.8569 11.6767 12.1872C11.3834 12.4591 11.1084 12.7501 10.8535 13.0583C10.8 13.1254 10.748 13.1937 10.6975 13.263C10.4563 12.8992 10.2243 12.5296 9.99495 12.1582C9.95595 12.095 9.91767 12.031 9.87495 11.9704C9.83022 11.8963 9.76821 11.8342 9.69423 11.7893C9.59907 11.743 9.52515 11.8098 9.46023 11.8748C9.38189 11.9614 9.28942 12.0341 9.18675 12.0898C9.16228 12.1045 9.1351 12.1141 9.10683 12.118C9.07856 12.1219 9.0498 12.12 9.02226 12.1125C8.99473 12.105 8.969 12.092 8.94662 12.0743C8.92424 12.0566 8.90567 12.0346 8.89203 12.0095C8.88523 11.9805 8.88511 11.9503 8.89167 11.9212C8.89824 11.8921 8.91133 11.8648 8.92995 11.8415C8.96925 11.7816 9.01297 11.7247 9.06075 11.6712C9.14892 11.568 9.24497 11.4717 9.34803 11.3832C9.43897 11.3203 9.511 11.2338 9.55635 11.1329C9.56981 11.0911 9.57172 11.0465 9.56188 11.0037C9.55203 10.9609 9.5308 10.9216 9.50043 10.8899C9.46292 10.8589 9.41495 10.8433 9.36636 10.8465C9.31777 10.8497 9.27223 10.8713 9.23907 10.907C9.13755 10.9993 9.0409 11.0968 8.94951 11.1992L8.63835 11.5179C8.59407 11.5743 8.53779 11.6201 8.47359 11.652C8.40855 11.6753 8.37135 11.6295 8.36799 11.568C8.36775 11.4583 8.39241 11.3499 8.44011 11.251C8.53299 11.0482 8.71791 10.8936 8.86731 10.7334C8.89287 10.7061 8.86803 10.6503 8.82771 10.6655C8.63553 10.7435 8.43607 10.8021 8.23227 10.8406C8.17412 10.8507 8.11509 10.8547 8.05611 10.8526C8.02247 10.8517 7.98926 10.8448 7.95807 10.8322C7.94211 10.8237 7.94343 10.8254 7.93407 10.815C7.93025 10.8101 7.92692 10.8048 7.92411 10.7992C7.92172 10.7846 7.92325 10.7697 7.92855 10.7559C7.9543 10.7041 7.99609 10.662 8.04771 10.6359C8.11697 10.6018 8.18929 10.5743 8.26371 10.5538C8.40723 10.5038 8.55003 10.453 8.69319 10.4031ZM11.7761 10.4326V10.2968C11.7761 10.286 11.7718 10.2756 11.7642 10.268C11.7566 10.2604 11.7462 10.2561 11.7354 10.2561C11.7246 10.2561 11.7143 10.2604 11.7067 10.268C11.699 10.2756 11.6947 10.286 11.6947 10.2968V10.4326C11.6947 10.4434 11.699 10.4537 11.7067 10.4614C11.7143 10.469 11.7246 10.4733 11.7354 10.4733C11.7462 10.4733 11.7566 10.469 11.7642 10.4614C11.7718 10.4537 11.7761 10.4434 11.7761 10.4326Z" fill="black"/>
<path d="M14.3108 16.2547C14.4413 16.0768 14.5569 15.8885 14.6565 15.6916C14.4812 15.6105 14.3065 15.5279 14.1325 15.444C13.4605 15.1206 12.7957 14.7832 12.1186 14.4712C12.0417 14.4352 11.9649 14.4005 11.8876 14.3659C11.5828 14.221 11.2638 14.1078 10.9357 14.0283C10.7995 13.9894 10.655 13.9901 10.5193 14.0304C10.3903 14.076 10.2796 14.1624 10.2042 14.2765C10.0844 14.4738 9.98352 14.6819 9.90283 14.898C9.79985 15.1478 9.70251 15.3999 9.61087 15.654C9.55623 15.7668 9.53579 15.8931 9.55208 16.0174C9.56541 16.0793 9.59128 16.1379 9.6281 16.1895C9.66491 16.2411 9.7119 16.2846 9.76616 16.3174C9.88196 16.3867 10.0023 16.4494 10.119 16.5173C10.3638 16.6607 10.6074 16.8062 10.8498 16.9536H10.851L10.8571 16.9577C10.9652 17.0232 11.0732 17.0889 11.1811 17.1547L11.2123 17.1721C11.158 17.1001 11.1282 17.0126 11.1271 16.9224C11.1357 16.8195 11.217 16.6965 11.3338 16.7136C11.4507 16.7308 11.481 16.8611 11.537 16.9455C11.5961 17.03 11.6775 17.0965 11.7722 17.1375C11.9805 17.2192 12.206 17.2469 12.4279 17.2181C12.9567 17.191 13.4674 17.0164 13.9022 16.7141C13.9246 16.6963 13.9462 16.6781 13.968 16.6591C14.0908 16.5318 14.2053 16.3967 14.3108 16.2547Z" fill="#CFF0FA"/>
<path d="M14.4692 16.2138C14.5747 16.0559 14.664 15.8879 14.7358 15.7122C14.5495 16.0786 14.311 16.4161 14.0278 16.714L14.0302 16.7175C14.0809 16.6757 14.1293 16.6314 14.1754 16.5846C14.2848 16.4705 14.3832 16.3464 14.4692 16.2138ZM11.1807 17.1556C11.0728 17.0896 10.9648 17.024 10.8567 16.9586C10.9605 17.0309 11.0687 17.0967 11.1807 17.1556ZM13.9018 16.714C13.9166 16.7029 13.9323 16.6933 13.9468 16.6818C13.954 16.6744 13.9605 16.6665 13.9676 16.6591C13.9458 16.6776 13.9242 16.6966 13.9018 16.714Z" fill="white"/>
<path d="M12.5486 10.3197C12.5431 10.3696 12.5431 10.42 12.5486 10.4699C12.5551 10.521 12.6364 10.5217 12.6298 10.4699C12.6243 10.42 12.6243 10.3696 12.6298 10.3197C12.6344 10.2677 12.553 10.2679 12.5486 10.3197Z" fill="black"/>
<path d="M18.4055 20.2209C18.5196 20.266 18.6435 20.2806 18.7649 20.2632C18.8863 20.2458 19.0011 20.197 19.0979 20.1217C19.1744 20.0477 19.2401 19.9633 19.2932 19.871C19.3572 19.7697 19.4194 19.6674 19.4798 19.5639C19.6005 19.357 19.714 19.1461 19.8202 18.9312C19.908 18.7533 20.0146 18.5745 19.9803 18.3687C19.9658 18.2839 19.9319 18.2037 19.8813 18.1341C19.8306 18.0646 19.7646 18.0077 19.6883 17.9679C19.4547 17.8479 19.2167 17.7357 18.9767 17.6286C18.1358 17.2532 17.2661 16.9393 16.4388 16.5336C16.1285 17.2464 15.5037 17.7855 14.8043 18.1056C14.6135 18.2157 14.4176 18.3169 14.2173 18.4087C14.5422 18.5902 14.8893 18.7375 15.2282 18.8887C15.7268 19.1107 16.2277 19.3276 16.7308 19.5393C16.8458 19.5879 16.961 19.6353 17.0759 19.6833C17.0777 19.6838 17.0794 19.6845 17.081 19.6854C17.3985 19.8189 17.7171 19.9497 18.0368 20.0779C18.159 20.1274 18.2814 20.1765 18.4055 20.2209ZM17.9876 18.6273C17.988 18.6254 17.9885 18.6235 17.9892 18.6217V18.6165C18.003 18.5396 18.036 18.4674 18.0851 18.4066C18.1341 18.3457 18.1978 18.2983 18.27 18.2685C18.3687 18.2337 18.4756 18.2292 18.5769 18.2556C18.6781 18.2819 18.7692 18.3379 18.8385 18.4164C18.9098 18.4975 18.9517 18.6002 18.9576 18.708C18.9635 18.8159 18.933 18.9225 18.871 19.011C18.809 19.0994 18.7191 19.1644 18.6157 19.1955C18.5123 19.2267 18.4014 19.2222 18.3009 19.1828C18.1942 19.1382 18.1055 19.0593 18.0488 18.9586C17.9921 18.8578 17.9704 18.7416 17.9876 18.6273Z" fill="#CFF0FA"/>
<path d="M18.4026 19.1287C18.4941 19.1458 18.5888 19.1306 18.6703 19.0857C18.7518 19.0407 18.8151 18.9688 18.8494 18.8822C18.8837 18.7957 18.8868 18.6999 18.8582 18.6113C18.8296 18.5227 18.7711 18.4468 18.6927 18.3967C18.6253 18.3495 18.5457 18.3231 18.4635 18.3205C18.3813 18.318 18.3002 18.3395 18.2301 18.3824C18.188 18.4116 18.152 18.4489 18.1244 18.492C18.0967 18.5351 18.0778 18.5833 18.0688 18.6338C18.0507 18.7433 18.0752 18.8556 18.1373 18.9476C18.1994 19.0397 18.2943 19.1044 18.4026 19.1287Z" fill="#CFF0FA"/>
<path d="M16.211 16.8032C16.2822 16.6845 16.3432 16.5601 16.3933 16.4312C16.386 16.4327 16.3792 16.4361 16.3735 16.441C16.3678 16.4458 16.3635 16.4521 16.3609 16.4591C16.3698 16.4381 16.3584 16.4645 16.3557 16.4703C16.3157 16.5546 16.2711 16.6367 16.2223 16.7163C16.0969 16.9213 15.9476 17.1106 15.7773 17.2803C15.5711 17.4766 15.3448 17.6507 15.1021 17.7998C14.9981 17.8667 14.8929 17.9315 14.7864 17.9942L14.7998 18.017C15.0022 17.9223 15.1957 17.8096 15.378 17.6802C15.7117 17.4468 15.9951 17.1485 16.211 16.8032Z" fill="white"/>
<path d="M12.8277 18.7445C12.8277 18.7412 12.8272 18.7378 12.8263 18.7346C12.8009 18.7346 12.7753 18.7336 12.7497 18.7324C12.748 18.7362 12.7469 18.7403 12.7465 18.7444C12.7318 18.9937 12.7195 19.2431 12.7095 19.4926L12.7062 19.574C12.6913 19.9556 12.6815 20.3373 12.6767 20.7191C12.6739 20.9631 12.6733 21.2071 12.6751 21.4511C12.6882 21.4501 12.7013 21.4499 12.7143 21.4485C12.7664 21.4429 12.7658 21.5242 12.7143 21.5299C12.7014 21.5312 12.6884 21.5321 12.6755 21.5331C12.6783 21.9281 12.6863 22.3231 12.6995 22.7179C12.7124 23.0875 12.7304 23.4568 12.7535 23.8259C12.7568 23.8779 12.8375 23.8783 12.8348 23.8259C12.7935 23.1684 12.7684 22.5103 12.7593 21.8515C12.7497 21.1852 12.7554 20.519 12.7766 19.8527C12.7796 19.7595 12.7838 19.6663 12.7874 19.573L12.7907 19.4917C12.8012 19.2425 12.8129 18.9934 12.8277 18.7445ZM15.1977 21.2641C15.1637 21.1407 15.1291 21.0176 15.0953 20.8941C15.0713 20.8059 15.0593 20.7039 14.9657 20.6613C14.9291 20.6447 14.8883 20.6399 14.8489 20.6475C14.8094 20.6551 14.7733 20.6748 14.7456 20.7038C14.7159 20.7385 14.6988 20.7821 14.6969 20.8277C14.6896 20.9109 14.6848 20.9943 14.6826 21.0777C14.6733 21.3561 14.6727 21.6349 14.6723 21.9134C14.6712 22.4872 14.6777 23.0611 14.6711 23.6349C14.6703 23.6989 14.6694 23.7626 14.6683 23.8259C14.6689 23.8363 14.6734 23.8461 14.6809 23.8533C14.6885 23.8604 14.6985 23.8644 14.7089 23.8644C14.7193 23.8644 14.7293 23.8604 14.7369 23.8533C14.7444 23.8461 14.749 23.8363 14.7495 23.8259C14.7595 23.2829 14.7542 22.7397 14.7535 22.1966C14.7535 21.9743 14.7543 21.7521 14.756 21.5299H14.7145C14.7041 21.5293 14.6943 21.5248 14.6872 21.5172C14.68 21.5097 14.676 21.4996 14.676 21.4892C14.676 21.4788 14.68 21.4688 14.6872 21.4613C14.6943 21.4537 14.7041 21.4492 14.7145 21.4486H14.7567V21.3926C14.7589 21.2474 14.7607 21.1019 14.7687 20.9569C14.7734 20.8717 14.7605 20.7332 14.8778 20.7253C14.9815 20.7183 14.9924 20.8276 15.0129 20.903C15.044 21.0167 15.0761 21.131 15.1075 21.2441C15.1263 21.3121 15.1445 21.3802 15.1632 21.4481H15.2171C15.2278 21.4481 15.2382 21.4524 15.2458 21.4601C15.2534 21.4677 15.2577 21.478 15.2577 21.4888C15.2577 21.4996 15.2534 21.51 15.2458 21.5176C15.2382 21.5252 15.2278 21.5295 15.2171 21.5295H15.1853C15.2641 21.8186 15.3413 22.108 15.4149 22.3984C15.5229 22.8277 15.6267 23.2589 15.7058 23.6944C15.7145 23.7417 15.7227 23.7891 15.7305 23.8365C15.7391 23.888 15.8174 23.8661 15.8089 23.8149C15.7351 23.368 15.6305 22.9262 15.5209 22.487C15.4185 22.0779 15.3108 21.6703 15.1977 21.2641ZM17.4176 21.3874H17.4267C17.384 21.134 17.3382 20.881 17.2893 20.6285C17.2347 20.3477 17.1765 20.0677 17.1149 19.7885L17.0982 19.711C17.0972 19.706 17.0951 19.7013 17.0921 19.6972C17.0891 19.693 17.0853 19.6896 17.0809 19.687C17.0793 19.6861 17.0776 19.6855 17.0759 19.685C17.0706 19.683 17.0651 19.6822 17.0596 19.6824C17.054 19.6826 17.0485 19.6839 17.0435 19.6862C17.0384 19.6885 17.0339 19.6918 17.0301 19.6959C17.0263 19.6999 17.0234 19.7047 17.0215 19.7099C17.0189 19.7173 17.0182 19.7252 17.0197 19.7329L17.0235 19.7505C17.2544 20.7945 17.4385 21.8494 17.5664 22.9117C17.6031 23.2162 17.6358 23.5213 17.6643 23.8268C17.6693 23.8784 17.7506 23.8789 17.7457 23.8268C17.6711 23.0373 17.5693 22.2513 17.4403 21.4688C17.4327 21.4688 17.4251 21.4688 17.4176 21.4695C17.3652 21.4711 17.3654 21.3897 17.4176 21.3874Z" fill="#B26EE6"/>
<path d="M11.292 17.8622C11.3432 17.8533 11.3651 17.9317 11.3136 17.9406C11.254 17.951 11.193 17.9505 11.1336 17.9391C11.1976 18.0547 11.2801 18.1591 11.3777 18.2482C11.3834 18.2474 11.3893 18.2479 11.3948 18.2496C11.4311 18.2602 11.4692 18.2632 11.5066 18.2582C11.5441 18.2532 11.5801 18.2404 11.6123 18.2206C11.6216 18.2156 11.6324 18.2144 11.6426 18.2172C11.6528 18.2201 11.6614 18.2268 11.6668 18.2359C11.6721 18.245 11.6737 18.2558 11.6712 18.2661C11.6687 18.2763 11.6623 18.2852 11.6533 18.2908C11.6043 18.3196 11.5491 18.336 11.4924 18.3388C11.5767 18.3977 11.6685 18.4452 11.7653 18.4798C11.9158 18.5304 12.0705 18.5673 12.2275 18.5902C12.4065 18.6215 12.5872 18.6423 12.7686 18.6525C13.1228 18.6673 13.4764 18.611 13.8084 18.4868C14.1263 18.3687 14.4337 18.2242 14.7275 18.0548C14.7133 18.0308 14.699 18.0068 14.6852 17.9828C14.4515 17.5738 14.2391 17.1511 13.9652 16.7666C13.7448 16.932 13.4982 17.0593 13.2356 17.1433C12.9877 17.222 12.7318 17.273 12.4726 17.2954C12.2587 17.3229 12.0415 17.3068 11.834 17.2482C11.7381 17.2187 11.649 17.1706 11.5717 17.1066C11.5342 17.0743 11.5009 17.0373 11.4727 16.9966C11.442 16.9526 11.4226 16.9028 11.3951 16.857C11.3711 16.816 11.3293 16.7758 11.2795 16.8026C11.2585 16.8165 11.2411 16.8352 11.2286 16.8571C11.2161 16.8789 11.2089 16.9034 11.2075 16.9286C11.1977 17.0462 11.3083 17.1573 11.3538 17.2584C11.3564 17.2631 11.358 17.2683 11.3586 17.2736C11.3591 17.279 11.3586 17.2844 11.3571 17.2896C11.3556 17.2947 11.353 17.2995 11.3497 17.3037C11.3463 17.3079 11.3421 17.3114 11.3374 17.3139C11.3314 17.3172 11.3246 17.319 11.3178 17.319C11.311 17.319 11.3042 17.3172 11.2982 17.3139C11.159 17.2336 11.0161 17.1612 10.8821 17.073C10.911 17.3376 10.9792 17.5964 11.0844 17.841C11.1506 17.8661 11.2221 17.8734 11.292 17.8622Z" fill="#A76C6C"/>
<path d="M14.7632 18.035C14.7752 18.0295 14.7872 18.023 14.7998 18.0174L14.7864 17.9946C14.7761 17.9772 14.7656 17.9596 14.7554 17.9421C14.5344 17.5219 14.2921 17.1131 14.0297 16.7174L14.0273 16.7139C14.0193 16.7222 14.0121 16.731 14.0041 16.7391C13.9681 16.7768 13.9101 16.7192 13.9466 16.6816C13.9321 16.6936 13.9164 16.7028 13.9016 16.7139C13.4669 17.0163 12.9562 17.1908 12.4273 17.2179C12.2054 17.2467 11.9799 17.219 11.7716 17.1373C11.6769 17.0963 11.5955 17.0298 11.5364 16.9453C11.4804 16.8613 11.4507 16.7306 11.3333 16.7134C11.2158 16.6963 11.1351 16.8193 11.1265 16.9222C11.1276 17.0124 11.1575 17.0999 11.2117 17.172L11.1805 17.1546C11.0686 17.0956 10.9603 17.0298 10.8565 16.9575L10.8504 16.9534H10.8492C10.8397 16.9483 10.8285 16.9472 10.8182 16.9503C10.8079 16.9534 10.7992 16.9605 10.7941 16.97C10.791 16.9758 10.7893 16.9823 10.7893 16.9888L10.7928 17.0143C10.8237 17.3126 10.8992 17.6046 11.0168 17.8804C11.0117 17.8525 11.0312 17.8204 11.064 17.8344C11.0707 17.837 11.0775 17.8388 11.0843 17.8412C10.9791 17.5967 10.9109 17.3378 10.8819 17.0732C11.016 17.1614 11.1589 17.2339 11.2981 17.3142C11.3059 17.3184 11.3148 17.32 11.3236 17.3188C11.3323 17.3175 11.3405 17.3135 11.3467 17.3072C11.353 17.301 11.3571 17.2928 11.3583 17.2841C11.3596 17.2753 11.3579 17.2664 11.3537 17.2586C11.3082 17.1576 11.1977 17.0464 11.2074 16.9288C11.2087 16.9037 11.2159 16.8792 11.2284 16.8573C11.2409 16.8354 11.2584 16.8168 11.2794 16.8028C11.3292 16.7761 11.3706 16.8163 11.3949 16.8572C11.4224 16.903 11.4419 16.9532 11.4726 16.9969C11.5008 17.0376 11.534 17.0745 11.5716 17.1068C11.6489 17.1708 11.738 17.2189 11.8339 17.2484C12.0414 17.3071 12.2586 17.3232 12.4724 17.2957C12.7316 17.2733 12.9875 17.2222 13.2355 17.1435C13.498 17.0595 13.7446 16.9322 13.9651 16.7668C14.2388 17.1508 14.4512 17.5741 14.6851 17.9829C14.6989 18.0069 14.7132 18.0309 14.7273 18.0549C14.4336 18.2243 14.1262 18.3688 13.8083 18.4869C13.4762 18.6111 13.1227 18.6675 12.7685 18.6526C12.587 18.6425 12.4064 18.6217 12.2274 18.5904C12.0703 18.5674 11.9156 18.5305 11.7651 18.48C11.6683 18.4453 11.5766 18.3979 11.4923 18.339C11.4522 18.3419 11.4119 18.3381 11.3731 18.3276C11.3644 18.3247 11.357 18.3191 11.3518 18.3116C11.3467 18.3041 11.3442 18.2951 11.3447 18.286C11.3452 18.2769 11.3488 18.2682 11.3547 18.2613C11.3607 18.2544 11.3687 18.2497 11.3777 18.2479C11.28 18.1588 11.1975 18.0544 11.1336 17.9388C11.1023 17.9333 11.0717 17.9247 11.0421 17.913C11.0366 17.9107 11.0316 17.9074 11.0274 17.9031C11.141 18.1578 11.3385 18.3659 11.5869 18.4926C11.7358 18.5623 11.8931 18.6124 12.0549 18.6415C12.2327 18.677 12.4122 18.7035 12.5927 18.721C12.6704 18.7284 12.7484 18.7328 12.8265 18.7341C13.1184 18.7414 13.4095 18.7009 13.6883 18.6141C13.837 18.5667 13.9833 18.5118 14.1265 18.4495C14.3586 18.3471 14.5849 18.2323 14.8045 18.1054C14.757 18.1269 14.7161 18.0568 14.7632 18.035Z" fill="black"/>
<path d="M6.95216 21.8551C6.75188 21.8153 6.55254 21.7709 6.35432 21.7219C6.34713 21.7198 6.3395 21.72 6.3324 21.7223C6.3253 21.7247 6.31906 21.7291 6.31448 21.735L6.31352 21.7359C6.31233 21.7375 6.31125 21.7392 6.31028 21.741C6.30788 21.7438 6.3059 21.7469 6.3044 21.7503C6.1604 22.1187 6.03116 22.4918 5.85092 22.845C5.84556 22.8543 5.84407 22.8654 5.84679 22.8758C5.8495 22.8862 5.8562 22.8951 5.86544 22.9006C6.20468 23.0467 6.5306 23.2263 6.87716 23.3547V23.3527C6.88004 23.3259 6.88436 23.2993 6.8882 23.2725C6.95299 22.8183 7.13289 22.3882 7.4108 22.0231C7.42976 21.9984 7.44896 21.974 7.46876 21.95C7.29524 21.9242 7.12292 21.8899 6.95216 21.8551Z" fill="#FF8684"/>
<path d="M7.5905 21.9298C7.35477 22.196 7.17697 22.5083 7.06837 22.8469C6.95977 23.1855 6.92275 23.543 6.95966 23.8966C7.08875 23.7612 7.20866 23.6174 7.31858 23.4661C7.41817 23.3312 7.51108 23.1916 7.59698 23.0476C7.5349 23.0331 7.47265 23.0194 7.41026 23.0063C7.3999 23.0034 7.3911 22.9966 7.38579 22.9872C7.38049 22.9779 7.3791 22.9668 7.38194 22.9564L7.52126 22.6252C7.52338 22.6198 7.52661 22.6148 7.53074 22.6107C7.53487 22.6066 7.53982 22.6033 7.54526 22.6012C7.55082 22.5984 7.55694 22.5969 7.56318 22.5967C7.56941 22.5966 7.57559 22.5979 7.58126 22.6005C7.64678 22.6292 7.71146 22.6605 7.7765 22.6901C7.7993 22.6347 7.82066 22.5789 7.83866 22.5221C7.9338 22.2132 7.98542 21.8924 7.99202 21.5692C7.8451 21.674 7.71042 21.795 7.5905 21.9298Z" fill="#FF8684"/>
<path d="M8.80597 23.2529C8.49944 23.0561 8.18027 22.8797 7.85053 22.7249C7.82581 22.7129 7.80085 22.7023 7.77613 22.6909C7.71109 22.6607 7.64641 22.6299 7.58089 22.6012C7.57522 22.5986 7.56904 22.5973 7.56281 22.5975C7.55657 22.5976 7.55045 22.5991 7.54489 22.6019C7.53945 22.6041 7.5345 22.6073 7.53037 22.6114C7.52624 22.6155 7.52301 22.6205 7.52089 22.6259L7.38157 22.9571C7.37873 22.9675 7.38012 22.9786 7.38542 22.9879C7.39073 22.9973 7.39953 23.0042 7.40989 23.0071C7.47229 23.02 7.53445 23.0339 7.59661 23.0483L7.67629 23.0674C8.04217 23.1554 8.40445 23.2605 8.77441 23.3281C8.78383 23.3303 8.79374 23.3291 8.80238 23.3247C8.81102 23.3203 8.81782 23.313 8.82158 23.3041C8.82533 23.2952 8.8258 23.2852 8.8229 23.276C8.82 23.2667 8.81415 23.2581 8.80597 23.2529ZM10.9202 2.25017C11.1139 2.24573 11.3076 2.24321 11.5014 2.24117C11.9334 2.23673 12.3654 2.23481 12.7974 2.22173C12.827 2.22038 12.8557 2.21066 12.88 2.1937C12.9044 2.17674 12.9234 2.15324 12.935 2.1259C12.9465 2.09857 12.9501 2.06853 12.9452 2.03925C12.9404 2.00998 12.9274 1.98267 12.9077 1.96049C12.8508 1.90049 12.7705 1.91069 12.6949 1.91069H12.4127C12.0447 1.91069 11.6765 1.91129 11.3081 1.91249C11.1237 1.91305 10.9393 1.91385 10.755 1.91489C10.7217 1.90952 10.6876 1.91293 10.656 1.92478C10.6245 1.93662 10.5965 1.9565 10.575 1.98245C10.5491 2.02472 10.54 2.07514 10.5493 2.12381C10.5761 2.29985 10.7965 2.25293 10.9202 2.25017ZM10.6506 2.01857C10.6628 2.00907 10.6769 2.0022 10.6919 1.9984C10.7069 1.9946 10.7226 1.99395 10.7378 1.99649L10.8604 1.99577L11.1028 1.99469C11.4157 1.99349 11.7286 1.99273 12.0415 1.99241H12.7133C12.7529 1.98606 12.7934 1.98952 12.8314 2.00249C12.8449 2.01071 12.8555 2.02303 12.8615 2.03765C12.8676 2.05228 12.8689 2.06846 12.8652 2.08385C12.8614 2.09924 12.8529 2.11304 12.8408 2.12327C12.8287 2.1335 12.8137 2.13961 12.7979 2.14073C12.1423 2.16053 11.4864 2.15453 10.8308 2.17133C10.7743 2.17277 10.6711 2.19821 10.6375 2.13641C10.6287 2.11746 10.6252 2.09644 10.6275 2.07566C10.6299 2.05487 10.6378 2.03512 10.6506 2.01857ZM14.3548 2.13137H14.686C14.6968 2.13137 14.7071 2.12708 14.7147 2.11946C14.7224 2.11183 14.7266 2.10148 14.7266 2.09069C14.7266 2.0799 14.7224 2.06955 14.7147 2.06193C14.7071 2.0543 14.6968 2.05001 14.686 2.05001H14.3548C14.344 2.05001 14.3336 2.0543 14.326 2.06193C14.3184 2.06955 14.3141 2.0799 14.3141 2.09069C14.3141 2.10148 14.3184 2.11183 14.326 2.11946C14.3336 2.12708 14.344 2.13137 14.3548 2.13137ZM16.9386 8.16461C16.9414 8.16922 16.945 8.17324 16.9493 8.17644C16.9537 8.17964 16.9586 8.18196 16.9638 8.18327C16.969 8.18457 16.9744 8.18483 16.9797 8.18404C16.9851 8.18325 16.9902 8.18142 16.9948 8.17865C17.0005 8.17518 17.0053 8.17036 17.0088 8.16461C17.1864 7.83185 17.3783 7.50737 17.5384 7.16549C17.5604 7.11833 17.4904 7.07705 17.4682 7.12445C17.319 7.44317 17.1425 7.74677 16.9753 8.05601C16.8661 7.8396 16.777 7.61366 16.7089 7.38101C16.7061 7.3706 16.6992 7.36176 16.6898 7.35643C16.6804 7.35109 16.6693 7.34971 16.6589 7.35257C16.6485 7.35543 16.6396 7.36232 16.6343 7.3717C16.629 7.38109 16.6276 7.3922 16.6304 7.40261C16.7073 7.66631 16.8106 7.9216 16.9386 8.16461Z" fill="black"/>
<path d="M13.5587 4.53081C13.389 4.43241 13.2242 4.32585 13.0547 4.22745C13.0469 4.22302 13.0379 4.22124 13.029 4.22239C13.0201 4.22353 13.0118 4.22754 13.0055 4.23381C12.7679 4.49565 12.5195 4.74729 12.2815 5.00865C12.6204 5.23339 12.9789 5.42724 13.3525 5.58789C13.4304 5.25189 13.4834 4.90917 13.5776 4.57665C13.5798 4.56799 13.5792 4.55884 13.5758 4.55058C13.5723 4.54231 13.5663 4.53538 13.5587 4.53081Z" fill="#7D4AB4"/>
<path d="M16.8544 4.3598H17.9385C17.9493 4.3598 17.9596 4.35552 17.9672 4.34789C17.9749 4.34026 17.9792 4.32991 17.9792 4.31912C17.9792 4.30833 17.9749 4.29799 17.9672 4.29036C17.9596 4.28273 17.9493 4.27844 17.9385 4.27844H16.8544C16.8436 4.27844 16.8333 4.28273 16.8256 4.29036C16.818 4.29799 16.8137 4.30833 16.8137 4.31912C16.8137 4.32991 16.818 4.34026 16.8256 4.34789C16.8333 4.35552 16.8436 4.3598 16.8544 4.3598ZM16.9444 4.82108L17.9986 4.80908C18.0094 4.80908 18.0197 4.8048 18.0274 4.79717C18.035 4.78954 18.0393 4.77919 18.0393 4.7684C18.0393 4.75761 18.035 4.74727 18.0274 4.73964C18.0197 4.73201 18.0094 4.72772 17.9986 4.72772L16.9444 4.73972C16.934 4.74029 16.9242 4.74481 16.9171 4.75237C16.9099 4.75992 16.9059 4.76994 16.9059 4.78034C16.9059 4.79075 16.9099 4.80076 16.9171 4.80832C16.9242 4.81587 16.934 4.82052 16.9444 4.82108ZM16.8849 5.156C16.833 5.16032 16.8326 5.24168 16.8849 5.23724C17.2753 5.20413 17.6672 5.19295 18.0588 5.20376C18.0692 5.2032 18.079 5.19867 18.0862 5.19112C18.0933 5.18356 18.0973 5.17355 18.0973 5.16314C18.0973 5.15274 18.0933 5.14272 18.0862 5.13517C18.079 5.12761 18.0692 5.12309 18.0588 5.12252C17.6672 5.11159 17.2753 5.12277 16.8849 5.156Z" fill="black"/>
<path d="M6.05903 7.67175C5.92764 7.46886 5.82483 7.24883 5.75351 7.01787C5.7512 7.01032 5.74676 7.00359 5.74073 6.9985C5.7347 6.9934 5.72733 6.99014 5.7195 6.98912C5.71167 6.98809 5.70371 6.98934 5.69657 6.99272C5.68943 6.99609 5.68341 7.00145 5.67923 7.00815C5.55769 7.23685 5.4152 7.45378 5.25359 7.65615C5.24817 7.66194 5.24453 7.66916 5.2431 7.67696C5.24168 7.68476 5.24253 7.6928 5.24555 7.70013C5.24858 7.70745 5.25365 7.71376 5.26016 7.71828C5.26667 7.7228 5.27435 7.72535 5.28227 7.72563C5.52923 7.74061 5.77678 7.74305 6.02399 7.73295C6.02988 7.73299 6.0357 7.73164 6.04097 7.72901C6.04625 7.72639 6.05083 7.72256 6.05435 7.71783C6.06069 7.71209 6.06469 7.7042 6.06555 7.69569C6.06641 7.68718 6.06409 7.67865 6.05903 7.67175Z" fill="#FF8684"/>
<path d="M6.21358 11.8965C6.19242 11.8239 6.14832 11.7602 6.08788 11.7147C6.02744 11.6693 5.95391 11.6447 5.8783 11.6445C5.80748 11.6478 5.73909 11.6714 5.68135 11.7126C5.62361 11.7537 5.57895 11.8106 5.55274 11.8765C5.52972 11.9381 5.52621 12.0053 5.5427 12.069C5.55919 12.1327 5.59487 12.1898 5.6449 12.2325C5.86078 12.3948 6.2947 12.1865 6.21358 11.8965Z" fill="#FF9F48"/>
<path d="M6.09316 16.6282L6.09196 16.6267C6.09062 16.6255 6.08917 16.6244 6.08764 16.6234C6.08103 16.6175 6.07251 16.6141 6.06364 16.6139C5.91579 16.6102 5.76786 16.6144 5.62048 16.6267C5.60976 16.6268 5.59952 16.6311 5.59192 16.6387C5.58433 16.6463 5.57998 16.6565 5.5798 16.6672C5.59 16.8241 5.5696 16.9807 5.5798 17.1375C5.57998 17.1482 5.58433 17.1585 5.59192 17.1661C5.5995 17.1737 5.60974 17.178 5.62048 17.1782C5.76916 17.1757 5.91772 17.1808 6.06652 17.1782C6.07724 17.178 6.08749 17.1737 6.09507 17.1661C6.10264 17.1585 6.10695 17.1482 6.10708 17.1375L6.10432 16.654C6.10409 16.6443 6.10009 16.635 6.09316 16.6282ZM5.65948 17.0969C5.65504 16.9664 5.66608 16.8361 5.6614 16.7056C5.7814 16.6963 5.9014 16.6936 6.0226 16.6953C6.02348 16.8293 6.02428 16.9633 6.025 17.0974C5.9032 17.0981 5.7814 17.0959 5.65948 17.0969ZM6.95512 15.6526C6.98724 15.4907 6.99781 15.3253 6.98656 15.1606C6.98296 15.1087 6.9016 15.1083 6.9052 15.1606C6.9166 15.3181 6.90699 15.4764 6.87664 15.6314C6.86668 15.6821 6.94492 15.7041 6.95512 15.6526ZM6.93196 17.2199C6.95688 17.3449 6.96895 17.472 6.96796 17.5994C6.96796 17.6102 6.97224 17.6205 6.97987 17.6281C6.9875 17.6358 6.99785 17.6401 7.00864 17.6401C7.01942 17.6401 7.02977 17.6358 7.0374 17.6281C7.04503 17.6205 7.04932 17.6102 7.04932 17.5994C7.05011 17.4647 7.03712 17.3304 7.01056 17.1983C7.00012 17.147 6.92164 17.1687 6.93196 17.2199ZM7.34968 18.6719C7.28167 18.6513 7.22325 18.6071 7.18492 18.5473C7.1566 18.5036 7.08616 18.5443 7.11472 18.5883C7.16427 18.666 7.23993 18.7234 7.32808 18.7503C7.37824 18.7659 7.3996 18.6874 7.34968 18.6719ZM9.86812 18.7927C9.43742 18.7574 9.00497 18.7486 8.5732 18.7664C8.52112 18.7685 8.52076 18.8504 8.5732 18.8477C9.00497 18.8299 9.43743 18.8386 9.86812 18.874C9.91996 18.8782 9.91972 18.7966 9.86812 18.7927ZM11.4641 18.8187L10.8928 18.8414C10.8407 18.8435 10.8405 18.9254 10.8928 18.9227L11.4641 18.8999C11.5157 18.8979 11.5161 18.8165 11.4641 18.8187ZM9.02452 14.9389H7.85008C7.83968 14.9394 7.8299 14.944 7.82275 14.9515C7.81559 14.9591 7.8116 14.9691 7.8116 14.9795C7.8116 14.9899 7.81559 14.9999 7.82275 15.0075C7.8299 15.015 7.83968 15.0195 7.85008 15.0201H9.02452C9.03491 15.0195 9.04469 15.015 9.05184 15.0075C9.059 14.9999 9.06299 14.9899 9.06299 14.9795C9.06299 14.9691 9.059 14.9591 9.05184 14.9515C9.04469 14.944 9.03491 14.9394 9.02452 14.9389ZM17.8781 14.7886C17.7006 14.7969 17.5228 14.7858 17.3477 14.7555C17.2965 14.7465 17.2745 14.8249 17.326 14.8339C17.5081 14.866 17.6932 14.8781 17.878 14.8699C17.9302 14.8671 17.9306 14.7859 17.8781 14.7886ZM18.4793 14.9573C18.5433 15.139 18.5808 15.329 18.5908 15.5213C18.5936 15.5733 18.6748 15.5737 18.6722 15.5213C18.6621 15.3216 18.6236 15.1243 18.5577 14.9355C18.5405 14.8867 18.4619 14.9078 18.4793 14.9573ZM18.4698 16.154V16.7864C18.4698 16.7972 18.4741 16.8075 18.4818 16.8151C18.4894 16.8228 18.4997 16.8271 18.5105 16.8271C18.5213 16.8271 18.5317 16.8228 18.5393 16.8151C18.5469 16.8075 18.5512 16.7972 18.5512 16.7864V16.154C18.5512 16.1432 18.5469 16.1328 18.5393 16.1252C18.5317 16.1176 18.5213 16.1133 18.5105 16.1133C18.4997 16.1133 18.4894 16.1176 18.4818 16.1252C18.4741 16.1328 18.4698 16.1432 18.4698 16.154ZM7.48288 6.79962C7.91764 6.77478 8.35312 6.7605 8.78836 6.74742C9.26836 6.73302 9.74956 6.72162 10.2302 6.71022C10.4582 6.70478 10.6862 6.69922 10.9142 6.69354C10.9245 6.69298 10.9343 6.68845 10.9415 6.6809C10.9486 6.67334 10.9526 6.66333 10.9526 6.65292C10.9526 6.64252 10.9486 6.63251 10.9415 6.62495C10.9343 6.6174 10.9245 6.61287 10.9142 6.6123C10.4834 6.62358 10.0524 6.63282 9.62164 6.64362C9.13972 6.65562 8.65792 6.66846 8.17624 6.68658C7.945 6.69522 7.71376 6.70506 7.48276 6.71826C7.43092 6.72126 7.43056 6.80262 7.48288 6.79962ZM8.0818 7.3629C7.8818 7.37226 7.68216 7.38302 7.48288 7.39518C7.43092 7.39842 7.43056 7.47918 7.48288 7.47654C8.24212 7.42854 9.00292 7.40514 9.76288 7.3851C9.96088 7.3799 10.1588 7.37522 10.3568 7.37106C10.3671 7.3705 10.3769 7.36597 10.3841 7.35842C10.3912 7.35086 10.3952 7.34085 10.3952 7.33044C10.3952 7.32004 10.3912 7.31003 10.3841 7.30247C10.3769 7.29492 10.3671 7.29039 10.3568 7.28982C9.59848 7.30566 8.83984 7.3275 8.0818 7.3629ZM12.6372 7.88454C11.9584 7.9227 11.2788 7.94214 10.599 7.9539C9.94336 7.96518 9.28756 7.97034 8.63188 7.9839C8.24884 7.9919 7.86584 8.0035 7.48288 8.0187C7.4308 8.02086 7.43044 8.1027 7.48288 8.10006C8.15404 8.07222 8.82556 8.0601 9.4972 8.05098C10.1552 8.04198 10.8132 8.0349 11.471 8.01498C11.8598 8.00346 12.2486 7.98702 12.6372 7.96566C12.6893 7.9629 12.6897 7.88166 12.6372 7.88454ZM9.56668 8.63742C9.04024 8.6583 8.51332 8.65158 7.98676 8.66238C7.81876 8.66582 7.65076 8.67106 7.48276 8.6781C7.43068 8.68038 7.43032 8.7621 7.48276 8.75946C8.0302 8.73606 8.57788 8.73978 9.12556 8.73066C9.27256 8.72826 9.41956 8.72454 9.56656 8.71866C9.61876 8.71662 9.619 8.63538 9.56668 8.63742ZM8.15128 11.5366L7.48876 11.54C7.47836 11.5405 7.46858 11.5451 7.46143 11.5526C7.45427 11.5602 7.45028 11.5702 7.45028 11.5806C7.45028 11.591 7.45427 11.601 7.46143 11.6086C7.46858 11.6161 7.47836 11.6207 7.48876 11.6212L8.15128 11.6179C8.16167 11.6173 8.17145 11.6128 8.1786 11.6052C8.18576 11.5977 8.18975 11.5877 8.18975 11.5772C8.18975 11.5668 8.18576 11.5568 8.1786 11.5493C8.17145 11.5417 8.16167 11.5372 8.15128 11.5366ZM8.15128 12.0781H7.51888C7.50848 12.0786 7.4987 12.0832 7.49155 12.0907C7.48439 12.0983 7.4804 12.1083 7.4804 12.1187C7.4804 12.1291 7.48439 12.1391 7.49155 12.1467C7.4987 12.1542 7.50848 12.1587 7.51888 12.1593H8.15128C8.16167 12.1587 8.17145 12.1542 8.1786 12.1467C8.18576 12.1391 8.18975 12.1291 8.18975 12.1187C8.18975 12.1083 8.18576 12.0983 8.1786 12.0907C8.17145 12.0832 8.16167 12.0786 8.15128 12.0781ZM9.91984 11.1551C9.91984 11.1659 9.92412 11.1763 9.93175 11.1839C9.93938 11.1915 9.94973 11.1958 9.96052 11.1958C9.9713 11.1958 9.98165 11.1915 9.98928 11.1839C9.99691 11.1763 10.0012 11.1659 10.0012 11.1551C10.0023 11.0463 9.96425 10.9406 9.89392 10.8575C9.86044 10.8172 9.8032 10.8749 9.83632 10.915C9.89195 10.9825 9.92158 11.0677 9.91984 11.1551ZM12.7144 21.4486C12.7013 21.4501 12.6882 21.4502 12.6752 21.4513C12.5711 21.4604 12.4662 21.4627 12.3621 21.4649C12.1607 21.4694 11.9592 21.4703 11.7578 21.4708C11.4925 21.4713 11.2271 21.4705 10.9617 21.4685C10.6523 21.4666 10.343 21.464 10.0336 21.4607C9.7004 21.4575 9.36716 21.454 9.03388 21.4502L8.01724 21.4391C7.69628 21.4359 7.37524 21.433 7.05412 21.4305C6.7694 21.4283 6.4846 21.427 6.19972 21.4265C5.971 21.4265 5.7424 21.4265 5.5138 21.43C5.38623 21.4315 5.25869 21.4349 5.13124 21.4405C5.12416 21.4678 5.11756 21.4953 5.1106 21.5227C5.19976 21.5181 5.28916 21.5155 5.37832 21.5137C5.59029 21.5098 5.8023 21.5079 6.01432 21.508C6.2872 21.5075 6.56012 21.5083 6.83308 21.5103C7.14716 21.5122 7.46116 21.5148 7.77508 21.5181L7.92208 21.5195L8.07448 21.5212L8.78032 21.5287L9.7936 21.5397C10.1106 21.5429 10.4277 21.5458 10.7448 21.5483C11.0228 21.5503 11.3008 21.5516 11.5788 21.5522C11.7977 21.5522 12.0167 21.5522 12.2356 21.5486C12.3754 21.5465 12.5157 21.5447 12.6556 21.535C12.6626 21.535 12.6695 21.5338 12.6765 21.5332C12.6894 21.5323 12.7024 21.5313 12.7154 21.53C12.7659 21.5242 12.7665 21.4429 12.7144 21.4486Z" fill="black"/>
<path d="M5.60877 19.5416C5.40111 19.3626 5.18236 19.1969 4.95381 19.0455C4.92645 19.0274 4.89885 19.0095 4.87125 18.992C4.68871 18.8746 4.50009 18.767 4.30617 18.6696C4.30489 18.6692 4.30356 18.6688 4.30221 18.6686C4.29537 18.6636 4.28683 18.6615 4.27845 18.6627C4.27007 18.664 4.26252 18.6685 4.25745 18.6753L4.05609 18.928V18.9305C4.05612 18.9396 4.05289 18.9484 4.04699 18.9553C4.04109 18.9622 4.03291 18.9668 4.02393 18.9682L3.13245 20.0822L2.92065 20.3462C2.94789 20.355 2.97477 20.3648 3.00177 20.3741C3.02877 20.3835 3.05697 20.3925 3.08421 20.4026C3.79394 20.6697 4.44874 21.0646 5.01621 21.5676C5.03901 21.5876 5.06217 21.607 5.08473 21.6276C5.09337 21.5926 5.10213 21.5576 5.11101 21.5228C5.11797 21.4954 5.12457 21.4679 5.13165 21.4406C5.25165 20.9708 5.38257 20.5038 5.50509 20.0349C5.53701 19.9131 5.56749 19.7909 5.59761 19.6686C5.60421 19.6415 5.61153 19.6144 5.61813 19.5873L5.61957 19.5813C5.62152 19.5743 5.62154 19.5669 5.61964 19.5599C5.61774 19.5529 5.61399 19.5466 5.60877 19.5416Z" fill="#FF8684"/>
<path d="M4.75922 21.4568C4.07893 20.8917 3.27577 20.4938 2.41406 20.2949C2.52862 20.4875 2.67191 20.6615 2.83898 20.8109C3.00672 20.9592 3.18984 21.0892 3.38522 21.1985C3.40058 21.1641 3.41534 21.1294 3.43082 21.0951C3.43239 21.0911 3.43473 21.0874 3.43772 21.0843C3.44071 21.0811 3.44428 21.0786 3.44824 21.0769C3.4522 21.0752 3.45646 21.0742 3.46078 21.0741C3.4651 21.074 3.4694 21.0748 3.47342 21.0764L3.4775 21.0783C3.48058 21.0787 3.48361 21.0794 3.4865 21.0806L3.99818 21.324C4.00281 21.3268 4.00684 21.3305 4.01006 21.3348C4.01327 21.3391 4.01559 21.344 4.0169 21.3493C4.0182 21.3545 4.01846 21.3599 4.01766 21.3653C4.01686 21.3706 4.01501 21.3757 4.01222 21.3803C4.01061 21.3831 4.00868 21.3856 4.00646 21.3879C3.98246 21.4146 3.95846 21.442 3.93374 21.4689C3.98558 21.4912 4.03758 21.513 4.08974 21.5344C4.45534 21.6973 4.83995 21.8137 5.23454 21.8807C5.08282 21.732 4.92421 21.5906 4.75922 21.4568Z" fill="#FF8684"/>
<path d="M3.99806 21.3239L3.48638 21.0804C3.48349 21.0793 3.48047 21.0785 3.47738 21.0781C3.47362 21.076 3.46948 21.0747 3.46519 21.0742C3.46091 21.0737 3.45657 21.074 3.45242 21.0752C3.44828 21.0764 3.4444 21.0784 3.44102 21.0811C3.43765 21.0837 3.43483 21.0871 3.43274 21.0908C3.43195 21.0921 3.43126 21.0935 3.4307 21.0949C3.41522 21.1292 3.40046 21.1639 3.3851 21.1984C3.37394 21.2231 3.36314 21.248 3.3521 21.2729C3.13202 21.7689 2.92858 22.272 2.74178 22.7824C2.72474 22.829 2.79086 22.8479 2.81606 22.8137C3.14546 22.3672 3.5057 21.9439 3.8771 21.5316C3.89594 21.5107 3.91466 21.4896 3.93362 21.4687C3.95762 21.4418 3.98162 21.4145 4.00634 21.3877C4.01393 21.3799 4.01811 21.3694 4.01798 21.3585C4.01784 21.3476 4.0134 21.3373 4.00562 21.3296C4.00338 21.3274 4.00083 21.3254 3.99806 21.3239ZM15.2175 21.4486H15.1636C15.028 21.4499 14.8924 21.447 14.7568 21.4486H14.7145C14.7042 21.4491 14.6944 21.4537 14.6872 21.4612C14.6801 21.4688 14.6761 21.4788 14.6761 21.4892C14.6761 21.4996 14.6801 21.5096 14.6872 21.5172C14.6944 21.5247 14.7042 21.5292 14.7145 21.5298H14.7561C14.8993 21.528 15.0425 21.5317 15.1857 21.5298H15.2175C15.2272 21.5241 15.2344 21.515 15.2377 21.5043C15.241 21.4936 15.2401 21.482 15.2352 21.4718C15.2303 21.4633 15.2244 21.4555 15.2175 21.4486ZM20.4401 17.6753C20.4038 16.5809 20.367 15.4864 20.3298 14.3918C20.2885 13.1746 20.2465 11.9573 20.2039 10.74C20.1624 9.55272 20.1199 8.36548 20.0764 7.17828C20.0389 6.1734 20.0001 5.16864 19.9601 4.164C19.9441 3.772 19.9275 3.38 19.9103 2.988C19.8971 2.69112 19.8939 2.39088 19.8665 2.09484C19.8391 1.82105 19.7108 1.56725 19.5066 1.38276C19.3025 1.19827 19.0371 1.09626 18.7619 1.09656C18.6867 1.09656 18.6113 1.09812 18.5361 1.09884L17.1213 1.11312L14.7885 1.13712L11.9963 1.16496L9.21038 1.19316L6.86546 1.21656L5.4281 1.23144C5.3495 1.23228 5.27078 1.23216 5.19218 1.23384C4.92813 1.23812 4.67427 1.3365 4.47628 1.51128C4.2783 1.68605 4.14919 1.92575 4.11218 2.18724C4.09669 2.37667 4.093 2.56687 4.10114 2.75676L4.09898 3.33348C4.09738 3.78564 4.09566 4.23788 4.09382 4.6902C4.08926 5.8014 4.08418 6.9126 4.07858 8.0238C4.07234 9.25132 4.06518 10.4788 4.0571 11.7061C4.0491 12.8741 4.03974 14.0416 4.02902 15.2087C4.02083 16.142 4.00915 17.0753 3.99398 18.0085C3.98898 18.3157 3.98254 18.623 3.97466 18.9301C3.97523 18.9405 3.97976 18.9503 3.98731 18.9574C3.99487 18.9646 4.00488 18.9686 4.01528 18.9686C4.02569 18.9686 4.0357 18.9646 4.04326 18.9574C4.05081 18.9503 4.05534 18.9405 4.0559 18.9301V18.9276C4.07546 18.19 4.0847 17.4516 4.09382 16.7142C4.10686 15.6599 4.11718 14.6055 4.12478 13.5511C4.13454 12.3406 4.14278 11.13 4.1495 9.91956C4.1563 8.73924 4.16238 7.559 4.16774 6.37884C4.17214 5.39868 4.17614 4.41868 4.17974 3.43884C4.18106 3.07704 4.18118 2.71536 4.18358 2.35356C4.18136 2.08211 4.2864 1.82076 4.47587 1.62635C4.66533 1.43194 4.92389 1.32021 5.1953 1.31544C5.47286 1.31016 5.75054 1.3098 6.02822 1.30704L7.96574 1.28748L10.5457 1.26132L13.3666 1.23276L15.9615 1.2066L17.9032 1.18692C18.1871 1.18404 18.471 1.17888 18.7552 1.17828C19.019 1.17643 19.2735 1.27603 19.466 1.45649C19.6584 1.63695 19.7742 1.88447 19.7893 2.14788C19.8067 2.43768 19.8179 2.72808 19.8309 3.01812C19.8689 3.87412 19.9037 4.73064 19.9353 5.58768C19.9773 6.68368 20.0177 7.77968 20.0566 8.87568C20.0998 10.0832 20.1421 11.2908 20.1837 12.4985C20.2237 13.6618 20.2632 14.8251 20.3023 15.9884C20.3352 16.9684 20.3679 17.9484 20.4003 18.9284L20.4375 20.062C20.4456 20.3077 20.458 20.5463 20.3524 20.7769C20.2842 20.9247 20.1828 21.0548 20.0562 21.157C19.9295 21.2593 19.781 21.3309 19.6222 21.3665C19.448 21.3931 19.2712 21.3989 19.0956 21.384C18.894 21.3799 18.6924 21.3769 18.4907 21.3749C18.1362 21.3718 17.7813 21.3708 17.427 21.3869H17.4179C17.3657 21.3892 17.3655 21.4709 17.4179 21.4681C17.4253 21.4681 17.433 21.4681 17.4406 21.4674C17.808 21.4513 18.1763 21.4528 18.5446 21.4565C18.7518 21.4586 18.959 21.462 19.1662 21.4666C19.3394 21.4801 19.5137 21.4696 19.684 21.4352C19.9698 21.3597 20.2151 21.1759 20.368 20.9228C20.4941 20.6918 20.5481 20.4283 20.5231 20.1662C20.4951 19.3361 20.4675 18.5058 20.4401 17.6753ZM22.5503 8.35428L21.0124 9.11796C20.9656 9.14124 21.0067 9.21132 21.0534 9.18816L22.5913 8.42448C22.6383 8.4012 22.5971 8.331 22.5503 8.35428ZM22.8928 9.53256L21.2201 9.7434C21.169 9.74988 21.1683 9.83136 21.2201 9.82476L22.8933 9.6132C22.944 9.60672 22.9446 9.52536 22.8928 9.53256ZM22.8181 10.6415L21.1804 10.3918C21.1291 10.384 21.1071 10.4623 21.1587 10.4701L22.7965 10.7198C22.8478 10.7276 22.8699 10.6493 22.8181 10.6415Z" fill="black"/>
<path d="M11.81 21.0023C11.8806 21.0393 11.9582 21.0611 12.0377 21.0663C12.1172 21.0716 12.197 21.0603 12.2719 21.0331C12.3199 21.0142 12.2991 20.9355 12.2503 20.9547C12.1342 20.994 12.0082 20.9925 11.8931 20.9505C11.778 20.9085 11.6807 20.8285 11.6172 20.7237C11.5554 20.6141 11.5392 20.4846 11.5722 20.3632C11.6051 20.2417 11.6846 20.1382 11.7933 20.0749C11.8522 20.0342 11.9191 20.0067 11.9895 19.9943C12.0599 19.9819 12.1321 19.9848 12.2013 20.0029C12.2115 20.0052 12.2223 20.0035 12.2313 19.9981C12.2403 19.9928 12.2469 19.9841 12.2496 19.974C12.2524 19.9639 12.2512 19.9531 12.2462 19.9439C12.2412 19.9347 12.2329 19.9277 12.2229 19.9245C12.0799 19.8914 11.9297 19.91 11.7991 19.9771C11.6684 20.0442 11.5658 20.1554 11.5094 20.291C11.4596 20.4256 11.463 20.574 11.5189 20.7062C11.5747 20.8383 11.6788 20.9443 11.81 21.0023ZM13.5865 10.4261C13.6778 10.3855 13.7684 10.3433 13.8584 10.2995C13.9055 10.2767 13.8643 10.2065 13.8174 10.2293C13.7274 10.273 13.6367 10.3152 13.5455 10.3558C13.4977 10.3771 13.539 10.4471 13.5865 10.4261ZM12.4393 9.96799C12.4792 9.91713 12.5342 9.88014 12.5964 9.86227C12.6696 9.85027 12.7179 9.91423 12.7644 9.96007C12.8018 9.99667 12.8593 9.93931 12.8219 9.90259C12.758 9.84031 12.695 9.77059 12.5977 9.78019C12.5126 9.79689 12.4361 9.84303 12.3817 9.91051C12.3746 9.91823 12.3707 9.9284 12.371 9.9389C12.3712 9.94939 12.3754 9.95939 12.3829 9.96681C12.3903 9.97423 12.4003 9.9785 12.4108 9.97872C12.4213 9.97894 12.4316 9.97509 12.4393 9.96799ZM11.6814 9.98155C11.7447 9.94327 11.8184 9.92251 11.8716 9.98755C11.9047 10.0281 11.9619 9.97027 11.9291 9.93007C11.9072 9.90523 11.8793 9.88641 11.8481 9.87542C11.8169 9.86443 11.7833 9.86164 11.7507 9.86731C11.7391 9.86946 11.7277 9.87247 11.7165 9.87631C11.6792 9.88779 11.6441 9.90548 11.6126 9.92863C11.5897 9.94509 11.5676 9.96251 11.5461 9.98083C11.5143 10.0081 11.5449 10.0495 11.5787 10.0479C11.5878 10.0477 11.5966 10.0443 11.6036 10.0383C11.628 10.0173 11.654 9.99835 11.6814 9.98155ZM11.0423 17.9134C11.0717 17.9252 11.1023 17.9338 11.1336 17.9392C11.193 17.9506 11.254 17.9511 11.3136 17.9407C11.3651 17.9318 11.3432 17.8534 11.292 17.8623C11.2221 17.8738 11.1504 17.8668 11.0841 17.8419C11.0774 17.8395 11.0706 17.8377 11.0639 17.8351C11.0311 17.8216 11.0115 17.8532 11.0167 17.8811C11.018 17.8895 11.0217 17.8974 11.0275 17.9036C11.0317 17.9078 11.0367 17.9112 11.0423 17.9134ZM11.6123 18.2206C11.5801 18.2404 11.5441 18.2532 11.5066 18.2582C11.4691 18.2632 11.4311 18.2602 11.3948 18.2495C11.3896 18.2479 11.3842 18.2472 11.3788 18.2477C11.3734 18.2482 11.3681 18.2497 11.3633 18.2523C11.3585 18.2548 11.3542 18.2583 11.3508 18.2625C11.3474 18.2667 11.3448 18.2715 11.3432 18.2767C11.3417 18.2819 11.3412 18.2874 11.3418 18.2928C11.3424 18.2982 11.3441 18.3034 11.3468 18.3082C11.3494 18.3129 11.353 18.317 11.3573 18.3204C11.3616 18.3237 11.3665 18.3261 11.3718 18.3275H11.3732C11.4678 18.3524 11.5684 18.3391 11.6533 18.2905C11.6622 18.2848 11.6686 18.276 11.6711 18.2657C11.6736 18.2555 11.6721 18.2446 11.6667 18.2355C11.6614 18.2264 11.6527 18.2197 11.6426 18.2169C11.6324 18.214 11.6215 18.2156 11.6123 18.2206ZM14.9882 15.1255C15.0467 14.9589 15.0962 14.7895 15.1409 14.6189C15.1432 14.6087 15.1415 14.598 15.1361 14.589C15.1308 14.58 15.1221 14.5734 15.112 14.5706C15.1019 14.5679 15.0911 14.5691 15.0819 14.5741C15.0727 14.579 15.0657 14.5874 15.0625 14.5973C14.9734 14.9494 14.8494 15.2917 14.6922 15.619L14.6562 15.6916C14.5566 15.8885 14.4409 16.0769 14.3105 16.2548C14.2048 16.3968 14.0901 16.5318 13.9671 16.6591C13.9601 16.6665 13.9536 16.6744 13.9464 16.6817C13.9104 16.7193 13.9674 16.7769 14.0039 16.7392C14.0119 16.7311 14.0191 16.7223 14.027 16.714C14.3102 16.4161 14.5487 16.0786 14.735 15.7121C14.8326 15.5226 14.9172 15.3266 14.9882 15.1255ZM16.6807 15.8128C16.683 15.8026 16.6813 15.7919 16.676 15.7829C16.6706 15.7739 16.662 15.7673 16.6518 15.7645C16.6417 15.7617 16.631 15.763 16.6217 15.7679C16.6125 15.7729 16.6056 15.7813 16.6023 15.7912C16.5378 16.0063 16.4761 16.2232 16.3933 16.4314C16.3432 16.5604 16.2822 16.6848 16.211 16.8034C15.9951 17.149 15.7117 17.4474 15.3779 17.681C15.1957 17.8104 15.0022 17.9231 14.7998 18.0177C14.7878 18.0235 14.7758 18.0297 14.7632 18.0353C14.7152 18.0572 14.757 18.1273 14.8043 18.1057C15.5036 17.7859 16.1284 17.2467 16.4388 16.5337C16.4496 16.5088 16.4605 16.4841 16.4706 16.4588C16.4729 16.4528 16.4757 16.4468 16.478 16.441C16.5577 16.2358 16.6175 16.0234 16.6807 15.8128Z" fill="black"/>
<path d="M15.1982 17.3543C15.1758 17.4481 15.1485 17.5679 15.0448 17.6022C14.9954 17.6185 15.0166 17.6971 15.0664 17.6806C15.2013 17.6359 15.2464 17.5019 15.2765 17.3759C15.2885 17.325 15.2102 17.3033 15.1982 17.3543ZM12.827 12.8375V12.8716C12.8378 13.4814 12.8309 14.0911 12.8064 14.7006C12.8066 14.7032 12.807 14.7059 12.8078 14.7084C12.8087 14.7134 12.8106 14.7182 12.8134 14.7225C12.8162 14.7267 12.8198 14.7304 12.824 14.7333C12.8282 14.7362 12.833 14.7382 12.838 14.7392C12.843 14.7403 12.8481 14.7403 12.8531 14.7394C12.8623 14.7374 12.8705 14.7326 12.8767 14.7256C12.883 14.7187 12.8868 14.7099 12.8877 14.7006C12.9129 14.08 12.9196 13.4589 12.9078 12.8375C12.9076 12.8337 12.9068 12.8301 12.9054 12.8266C12.9026 12.8174 12.8966 12.8096 12.8886 12.8044C12.8805 12.7993 12.8709 12.7972 12.8614 12.7985C12.8519 12.7998 12.8432 12.8044 12.8368 12.8116C12.8305 12.8187 12.8272 12.8279 12.827 12.8375ZM2.95492 11.8195L1.417 12.5832C1.37008 12.6065 1.41124 12.6767 1.45804 12.6534L2.99596 11.8897C3.04276 11.8664 3.0016 11.7964 2.95492 11.8195ZM2.78824 11.1829L1.11556 11.3945C1.06432 11.401 1.06372 11.4823 1.11556 11.4757L2.78824 11.2642C2.83984 11.2578 2.84056 11.1766 2.78824 11.1829ZM1.2118 10.2878C1.16056 10.28 1.13848 10.3584 1.1902 10.3662L2.82796 10.6159C2.8792 10.6237 2.90128 10.5454 2.84968 10.5376L1.2118 10.2878ZM13.6166 5.69111C13.6073 5.68787 13.5982 5.68403 13.589 5.68067C13.5093 5.65199 13.4306 5.62067 13.3524 5.58791C12.9788 5.42723 12.6204 5.23333 12.2814 5.00855C12.221 4.96919 12.161 4.92919 12.1014 4.88855C12.0581 4.85903 12.0174 4.92947 12.0604 4.95875C12.2182 5.06627 12.3796 5.16911 12.5446 5.26727C12.4777 5.40749 12.4196 5.55177 12.3707 5.69927C12.3611 5.72663 12.3514 5.75391 12.3416 5.78111C12.2995 5.90416 12.2489 6.02417 12.1904 6.14027C12.1853 6.14956 12.1841 6.16043 12.187 6.1706C12.1898 6.18077 12.1965 6.18943 12.2056 6.19476C12.2147 6.20009 12.2255 6.20166 12.2358 6.19915C12.2461 6.19665 12.2549 6.19025 12.2606 6.18131C12.3636 6.03725 12.4785 5.90213 12.6042 5.77739C12.6301 5.75003 12.6557 5.72247 12.681 5.69471C12.7519 5.61873 12.8177 5.5382 12.8781 5.45363C13.0386 5.53763 13.2021 5.61491 13.3701 5.68331C13.4381 5.71115 13.5067 5.73747 13.5759 5.76227C13.5822 5.76467 13.5886 5.76731 13.595 5.76959C13.6011 5.77212 13.6079 5.77272 13.6145 5.77133C13.621 5.76994 13.6269 5.76662 13.6316 5.76179C13.6355 5.75781 13.6387 5.75309 13.6409 5.74789C13.643 5.74269 13.6441 5.73712 13.6441 5.73149C13.6441 5.72587 13.643 5.72029 13.6409 5.71509C13.6387 5.7099 13.6355 5.70517 13.6316 5.70119C13.6274 5.69678 13.6222 5.69334 13.6166 5.69111Z" fill="black"/>
</svg>
