<svg width="24" height="24" viewBox="0 0 24 24" fill="none" xmlns="http://www.w3.org/2000/svg">
<path d="M10.476 8.83809C10.4753 8.82643 10.4703 8.81544 10.4621 8.80718C10.4538 8.79891 10.4428 8.79395 10.4311 8.79321C10.3028 8.79575 10.175 8.81078 10.0495 8.83809C10.0271 8.83809 10.0271 8.88297 10.0495 8.88297C10.1617 8.88297 10.2739 8.90541 10.3863 8.90541V9.55641C10.3863 9.61449 10.44 9.65121 10.476 9.60129C10.4944 9.57516 10.5024 9.54312 10.4985 9.51141C10.4986 9.48897 10.476 8.95029 10.476 8.83809Z" fill="#191919"/>
<path d="M9.89255 9.73592C10.3232 9.73592 10.3574 9.74228 10.3863 9.71348C10.4088 9.69104 10.3949 9.66692 10.3863 9.64616C10.3743 9.61676 10.3188 9.64184 10.274 9.64616C10.2248 9.65096 9.98231 9.69104 9.89255 9.69104C9.84767 9.69104 9.84767 9.73592 9.89255 9.73592Z" fill="#191919"/>
<path d="M7.49091 9.87061C7.42347 10.5889 7.49091 11.3296 7.49091 12.0479C7.49091 12.0703 7.51335 12.0928 7.53579 12.1152C7.74231 12.1598 7.95296 12.1823 8.16423 12.1825C8.36987 12.1675 8.5694 12.1059 8.74779 12.0025C8.77023 11.9801 8.77071 11.9801 8.77023 11.9576C8.75907 11.3064 8.81511 10.6558 8.83755 10.0049C8.38648 9.98579 7.93687 9.94095 7.49091 9.87061Z" fill="#38A1FF"/>
<path d="M6.61549 9.75838C6.54817 9.73594 6.48073 9.73594 6.39097 9.7135C6.2393 10.2421 5.97097 11.0112 5.85229 11.3071C5.85229 11.6214 5.87473 11.9357 5.89717 12.2498C5.89717 12.2947 5.94205 12.3171 5.98693 12.3171C6.16693 12.2498 6.34609 12.1371 6.52573 12.0703C6.5648 12.0557 6.59961 12.0316 6.62703 12.0002C6.65446 11.9687 6.67363 11.931 6.68281 11.8903C7.46401 8.76538 7.09189 10.2762 7.19881 9.84766C6.99709 9.8257 6.81745 9.78082 6.61549 9.75838Z" fill="#38A1FF"/>
<path d="M5.60534 6.00992C5.75347 6.234 5.95371 6.41884 6.1889 6.5486C6.29564 6.61913 6.42015 6.65803 6.54806 6.6608C6.60546 6.66645 6.6634 6.65931 6.71772 6.63991C6.77203 6.62051 6.82138 6.58933 6.86222 6.5486C6.88466 6.52616 6.86222 6.50372 6.81734 6.50372C6.72703 6.54831 6.62516 6.56398 6.52562 6.5486C6.17054 6.46591 5.85528 6.26227 5.6339 5.9726C5.62202 5.95784 5.58566 5.99036 5.60534 6.00992Z" fill="#191919"/>
<path d="M6.88468 4.10205C6.91024 4.18233 7.0456 4.40625 7.06468 4.46121C7.18024 4.80201 7.08868 4.87941 7.17688 4.84281C7.4122 4.74525 6.99808 4.19181 6.90748 4.07961C6.89128 4.05981 6.87772 4.07997 6.88468 4.10205Z" fill="#191919"/>
<path d="M11.2393 9.30951C11.3022 9.45963 11.4026 9.59104 11.531 9.69111C11.6477 9.80261 11.7973 9.87345 11.9575 9.89307C11.968 9.89281 11.9781 9.88911 11.9863 9.88255C11.9945 9.87598 12.0003 9.86691 12.0028 9.85673C12.0054 9.84654 12.0045 9.8358 12.0004 9.82615C11.9962 9.8165 11.989 9.80848 11.9799 9.80331C11.7844 9.73815 11.503 9.67995 11.3066 9.28731C11.2841 9.24219 11.2393 9.28707 11.2393 9.30951Z" fill="#191919"/>
<path d="M7.42355 13.4171C7.56409 13.2725 7.74317 13.1712 7.93955 13.1253C8.1647 13.0942 8.39383 13.1095 8.61287 13.1702C9.05207 13.258 9.58931 13.3622 10.0049 13.2375C10.0497 13.2151 10.0273 13.1702 10.0049 13.1702C9.81051 13.159 9.61566 13.159 9.42131 13.1702C8.74619 13.1702 8.30435 12.8624 7.78271 13.058C7.69657 13.0805 7.6187 13.1272 7.55831 13.1926C7.49279 13.2468 7.43253 13.3071 7.37831 13.3726C7.35611 13.4171 7.40111 13.462 7.42355 13.4171Z" fill="#191919"/>
<path d="M8.92801 12.856C9.13259 12.917 9.34341 12.9546 9.55645 12.9682C9.70662 12.9792 9.85749 12.9765 10.0072 12.96C10.1298 12.9311 10.117 12.9094 10.117 12.8564C10.0514 12.7907 9.51637 12.8974 8.92741 12.7665C8.90497 12.7886 8.88253 12.8336 8.92801 12.856Z" fill="#191919"/>
<path d="M9.26388 12.6539C9.43692 12.6786 10.1106 12.705 10.229 12.5866C10.2515 12.5642 10.229 12.5417 10.2066 12.5193C10.0721 12.4744 9.804 12.6413 9.26388 12.5642C9.219 12.5866 9.219 12.6539 9.26388 12.6539Z" fill="#191919"/>
<path d="M7.55819 12.3171C7.37675 12.3733 6.88439 12.5941 6.70523 12.6539C6.19571 12.8661 5.54039 13.0441 4.30355 13.5068C3.99155 13.6237 3.65255 13.7312 3.33839 13.8435C3.27107 13.8435 3.29351 13.8884 3.33839 13.8884C4.06439 13.6662 7.04435 12.7262 7.60307 12.407C7.61356 12.4003 7.6212 12.3899 7.62451 12.3779C7.62782 12.3659 7.62657 12.3531 7.621 12.3419C7.61543 12.3308 7.60593 12.3221 7.59434 12.3175C7.58275 12.3129 7.56987 12.3128 7.55819 12.3171Z" fill="#191919"/>
<path d="M19.7911 13.08C19.879 13.1915 19.9545 13.3122 20.016 13.44C20.0672 13.5691 20.0974 13.7055 20.1058 13.8441C20.1058 13.889 20.1031 13.9901 20.1731 13.9787C20.2711 13.9628 20.2261 13.3299 19.8589 13.036C19.836 13.0131 19.7687 13.058 19.7911 13.08Z" fill="#191919"/>
<path d="M20.4421 14.0007C20.5289 13.9669 20.6006 13.903 20.6441 13.8207C20.6669 13.7792 20.6839 13.7348 20.6945 13.6887C20.7401 13.4459 20.5985 13.4874 20.5993 13.5558C20.5972 13.6301 20.5779 13.7028 20.5428 13.7683C20.5077 13.8337 20.4579 13.8901 20.3972 13.933C20.3681 13.9522 20.4001 14.0206 20.4421 14.0007Z" fill="#191919"/>
<path d="M20.9297 13.5916C20.9072 13.5691 20.8504 13.5667 20.8457 13.5966C20.8322 13.6912 20.8958 13.798 20.7306 13.8661C20.6924 13.8819 20.6906 13.9381 20.7335 13.9333C20.773 13.9276 20.8106 13.9129 20.8435 13.8904C20.8764 13.8678 20.9037 13.8379 20.9232 13.8031C20.935 13.7732 20.9392 13.7408 20.9352 13.7088C20.9359 13.6639 20.9521 13.614 20.9297 13.5916Z" fill="#191919"/>
<path d="M21.0704 13.7986C21.1377 13.7762 21.2276 13.7312 21.2504 13.6639C21.2719 13.583 21.2719 13.4979 21.2504 13.417C21.0961 12.7311 20.6653 12.359 20.981 12.9905C21.0353 13.091 21.0804 13.1962 21.1157 13.3048C21.1435 13.3843 21.1586 13.4675 21.1607 13.5517C21.1607 13.6414 21.0932 13.6639 21.0259 13.7087C21.0256 13.7536 21.0255 13.8211 21.0704 13.7986Z" fill="#191919"/>
<path d="M16.2222 4.84279C16.3703 4.91671 16.8282 4.76719 16.8282 4.66279C16.8282 4.57327 16.7697 4.58659 16.7384 4.61791C16.6677 4.67799 16.5855 4.72292 16.4967 4.74994C16.408 4.77696 16.3146 4.78549 16.2224 4.77499C16.2 4.77595 16.2 4.84279 16.2222 4.84279Z" fill="#191919"/>
<path d="M14.6734 11.4419C14.4853 11.4419 14.2109 11.4194 13.551 11.4194C13.551 11.4643 13.5286 11.4868 13.5286 11.5316C13.5734 11.5316 14.5836 11.5316 14.6734 11.5092C14.7631 11.5092 14.7631 11.4419 14.6734 11.4419Z" fill="#191919"/>
<path d="M20.712 11.4868C20.6606 10.6914 20.5592 8.54172 20.1059 7.10976C19.9379 6.58044 19.7265 6.34296 19.3203 5.98752C18.7861 5.5934 18.1739 5.31789 17.5247 5.17944C17.5022 5.17944 17.4798 5.22432 17.5022 5.22432C18.0786 5.37887 18.6249 5.62928 19.1183 5.96508C19.9986 6.57816 20.1783 7.59144 20.3303 8.6586C20.4863 9.7566 20.5929 11.2429 20.5995 11.352C20.6227 11.7336 20.622 12.1152 20.6669 12.4968C20.3858 12.6374 19.7028 12.6858 19.3875 12.6988C19.3929 12.3747 19.3628 12.0511 19.2978 11.7336C18.9702 9.6168 18.5222 8.92308 18.2876 8.32188C18.0863 7.80588 17.9286 7.22208 18.0857 6.66084C18.0857 6.6384 18.0408 6.61596 18.0408 6.6384C17.7245 7.58748 18.3366 8.60124 18.6468 9.3768C18.8782 10.104 19.0582 10.8465 19.1855 11.599C19.251 11.9808 19.2753 12.3622 19.3427 12.7436C19.3427 12.7712 19.377 12.7661 19.4121 12.7661C19.1804 13.0477 19.3041 13.6576 19.4324 13.5293C19.5336 13.4282 19.28 13.4926 19.5349 12.7658C19.8349 12.7643 20.4932 12.745 20.7349 12.5641C20.7542 12.2049 20.7465 11.8448 20.712 11.4868Z" fill="#191919"/>
<path d="M14.6736 9.7584C14.8123 9.7584 15.0322 9.7584 14.9428 9.66864C14.7606 9.62304 12.8908 9.58668 12.5636 9.66864C12.4921 9.8124 12.5481 9.7584 14.6736 9.7584Z" fill="#191919"/>
<path d="M15.0999 9.46661C15.0999 10.8662 14.4336 12.1625 14.7632 12.2723C14.9256 12.3087 15.0907 12.3312 15.257 12.3396C15.2674 12.3394 15.2776 12.3357 15.2858 12.3291C15.294 12.3226 15.2998 12.3135 15.3023 12.3033C15.3049 12.2931 15.304 12.2824 15.2999 12.2727C15.2957 12.2631 15.2885 12.2551 15.2794 12.2499C15.1465 12.2178 15.0115 12.1953 14.8754 12.1826C14.5709 12.1826 15.3131 10.9491 15.1672 9.48905C15.1448 9.44405 15.0999 9.44405 15.0999 9.46661Z" fill="#191919"/>
<path d="M15.7956 6.88539C15.5426 7.30704 15.3678 7.77087 15.2796 8.25459C15.2425 8.4088 15.2274 8.5675 15.2347 8.72595C15.2347 8.74839 15.2796 8.74839 15.2796 8.72595C15.3396 8.51763 15.3126 8.35215 15.4816 7.80567C15.5813 7.50606 15.7013 7.21358 15.8407 6.93027C15.8405 6.88539 15.818 6.86295 15.7956 6.88539Z" fill="#191919"/>
<path d="M16.1325 5.78552C15.9009 5.82214 15.6793 5.90617 15.4817 6.03236C15.2909 6.15955 15.1238 6.31916 14.9881 6.50396C14.7188 6.86312 14.5899 7.29176 14.427 7.71596C14.4223 7.72796 14.228 8.35484 14.225 8.36684C14.1551 8.36684 12.4179 8.60804 12.3396 8.5688C12.1586 8.50635 11.9656 8.48647 11.7756 8.51072C11.7008 8.43437 11.6098 8.37577 11.5093 8.33922C11.4089 8.30267 11.3015 8.2891 11.1951 8.29952C11.0733 8.32277 10.9627 8.38613 10.881 8.47952C10.8397 8.5208 10.593 8.81108 10.5891 8.81624C10.5443 8.86112 10.5891 8.88356 10.634 8.86112C10.8389 8.70752 11.0916 8.13416 11.6111 8.53556C11.4461 8.57036 11.2844 8.61922 11.1278 8.6816C11.0537 8.70356 10.9898 8.75132 10.9478 8.81624C10.8545 9.00728 11.2925 8.97896 11.5622 9.09608C11.6572 9.31574 11.8093 9.50591 12.0027 9.64676C12.0763 9.70103 12.1604 9.73925 12.2497 9.75896C12.2602 9.7587 12.2703 9.755 12.2785 9.74844C12.2867 9.74188 12.2925 9.7328 12.2951 9.72262C12.2976 9.71243 12.2968 9.70169 12.2926 9.69205C12.2885 9.6824 12.2813 9.67437 12.2721 9.6692C12.1836 9.62492 12.0911 9.55616 12.0476 9.53444C11.8888 9.43528 11.7564 9.29906 11.6617 9.13748C11.7687 9.18532 11.8859 9.20593 12.0027 9.19748C12.0701 9.19748 12.0701 9.13016 12.0252 9.13016C12.0132 9.13016 11.087 8.8742 11.0763 8.8622C11.2823 8.71352 11.8044 8.63636 11.9579 8.63636C12.3164 8.63636 12.3126 8.67836 12.3469 8.64692C12.4431 8.73338 12.52 8.83901 12.5729 8.95703C12.6257 9.07504 12.6533 9.20282 12.6537 9.33212C12.6537 9.47984 12.6468 9.59456 12.6762 9.62396C12.7602 9.70796 12.7435 9.40976 12.7435 9.28724C12.7435 8.96108 12.5882 8.68208 12.4965 8.63636C12.7233 8.63636 14.2865 8.48036 14.6289 8.41184C14.6738 8.3894 14.6738 8.32208 14.6065 8.32208C14.5161 8.31838 14.4256 8.32592 14.3371 8.34452C14.7348 7.15196 14.9738 6.20744 16.1552 5.85308C16.1774 5.8304 16.1774 5.78552 16.1325 5.78552Z" fill="#191919"/>
<path d="M10.7904 9.37686C10.704 9.32406 10.656 9.55014 10.656 9.69114C10.6619 9.72992 10.6773 9.76664 10.7008 9.79804C10.7243 9.82944 10.7552 9.85455 10.7908 9.87114C10.8988 9.89514 10.9062 9.84318 10.8833 9.82434C10.623 9.60942 10.86 9.42006 10.7904 9.37686Z" fill="#191919"/>
<path d="M10.9252 9.57885C10.9077 9.62778 10.9022 9.68019 10.9092 9.73167C10.9162 9.78315 10.9355 9.83219 10.9655 9.87465C11.0574 10.0234 11.1878 10.0568 11.2169 10.0278C11.302 9.94269 11.1473 9.95049 11.0822 9.84777C11.0403 9.78027 11.017 9.70282 11.0149 9.62337C11.0149 9.53397 10.9415 9.53133 10.9252 9.57885Z" fill="#191919"/>
<path d="M11.7556 9.93786C11.6883 9.93734 11.6217 9.92315 11.5599 9.89615C11.4982 9.86915 11.4426 9.8299 11.3965 9.78078C11.3058 9.65502 11.2724 9.75834 11.3178 9.82938C11.3512 9.89183 11.4016 9.94357 11.4632 9.97865C11.5248 10.0137 11.595 10.0308 11.6658 10.0277C11.8552 10.0277 11.8627 9.93786 11.7556 9.93786Z" fill="#191919"/>
<path d="M16.2671 12.8784C16.9502 13.0833 17.0728 12.9833 17.2098 13.3944C17.396 13.8599 18.7952 18.8916 18.8178 18.9464C18.8351 18.988 18.9036 18.9597 18.8933 18.916C18.8423 18.6186 18.7673 18.3259 18.6688 18.0407C17.3224 13.3286 17.304 13.236 17.1874 13.08C17.0286 12.8948 16.7416 12.8831 16.2671 12.7882C16.2446 12.8336 16.2446 12.856 16.2671 12.8784Z" fill="#191919"/>
<path d="M6.9521 2.64317C6.62035 2.47001 6.23505 2.42988 5.87474 2.53097C5.63722 2.60029 5.42156 2.72965 5.24858 2.90657C5.07559 3.08348 4.95111 3.30199 4.88714 3.54101C4.73774 4.13333 4.9847 4.85873 5.2463 5.69573C5.2463 5.70281 5.33162 5.85605 5.15654 5.20193C5.10978 5.04718 5.07227 4.88978 5.04422 4.73057C4.90538 4.12865 4.82294 3.58757 5.20142 3.09209C5.37896 2.85038 5.63359 2.67642 5.9233 2.59888C6.21301 2.52135 6.52049 2.54489 6.79502 2.66561C7.46066 2.95949 7.55822 3.66521 7.55822 4.39361C7.53578 4.32617 7.46846 4.10177 7.44602 4.05689C7.44974 3.95907 7.44217 3.86114 7.42346 3.76505C7.39621 3.61792 7.35099 3.47468 7.28882 3.33857C7.18982 3.11813 6.90746 2.86937 6.6155 2.88977C6.25646 2.91473 6.03722 3.29489 5.9645 3.60797C5.88242 3.96209 6.0401 4.18973 6.09926 4.66289C6.10994 5.08614 6.06446 5.50895 5.96402 5.92025C5.96402 5.94269 5.98646 5.94269 6.0089 5.92025C6.34574 4.74173 6.11858 4.28825 6.07634 4.03481C6.1843 3.86494 6.27453 3.68443 6.34562 3.49613C6.43538 3.51857 7.10882 3.63077 7.17614 3.60833C7.40714 4.07045 7.73066 5.02589 7.46798 5.47133C7.3505 5.67041 7.10882 5.74073 6.8843 5.74073C6.62908 5.73179 6.38098 5.65423 6.1661 5.51621C6.14366 5.49377 6.09878 5.53865 6.12122 5.56109C6.2754 5.70544 6.46791 5.8023 6.67571 5.84008C6.88351 5.87785 7.09779 5.85494 7.2929 5.77409C7.32945 6.05315 7.34294 6.33474 7.33322 6.61601C7.31162 6.90785 7.22102 7.24457 6.90674 7.33433C6.74386 7.36799 6.57582 7.36799 6.41294 7.33433C5.9099 7.24016 5.44332 7.00686 5.06618 6.66089C4.93418 6.54581 4.7969 6.41405 4.7969 6.23453C4.80473 6.1626 4.82668 6.09291 4.86148 6.02947C4.89628 5.96603 4.94325 5.91007 4.9997 5.86481C5.00197 5.96176 5.02461 6.05715 5.06614 6.14479C5.10768 6.23242 5.16718 6.31034 5.24078 6.37349C5.26646 6.39197 5.29214 6.36737 5.27546 6.34037C5.23612 6.28683 5.20355 6.22863 5.1785 6.16709C5.08956 5.96954 5.07365 5.74683 5.13362 5.53865C5.20238 5.40113 5.11826 5.38265 5.04374 5.60597C5.02655 5.65334 5.01354 5.70213 5.00486 5.75177C4.86831 5.82978 4.76308 5.95279 4.70714 6.09977C4.68663 6.178 4.68616 6.26013 4.70577 6.33859C4.72538 6.41705 4.76444 6.48931 4.81934 6.54869C5.08061 6.81983 5.38375 7.04721 5.71718 7.22213C6.03146 7.37921 6.41318 7.51529 6.79454 7.46897C6.87897 7.46647 6.96208 7.44734 7.03911 7.41269C7.11614 7.37804 7.18558 7.32853 7.24346 7.26701C7.34674 7.14708 7.4097 6.99772 7.42346 6.84005C7.47508 6.47149 7.45376 6.09638 7.3607 5.73605C7.60202 5.58341 7.67042 5.31125 7.67042 5.02169C7.67042 4.90949 7.64798 4.81973 7.64798 4.70741C7.76018 3.96749 7.67006 3.02537 6.9521 2.64317Z" fill="#191919"/>
<path d="M8.63563 12.4743C8.31919 12.5195 8.30527 12.6434 7.86619 12.5725C7.86763 12.5605 7.84027 12.2401 7.83751 12.228C7.82719 12.1843 7.76023 12.1825 7.76023 12.2274C7.74778 12.3167 7.74029 12.4066 7.73779 12.4968C7.73775 12.5426 7.74533 12.5881 7.76023 12.6314C7.97851 12.806 8.45491 12.7145 8.68051 12.5641C8.72539 12.5417 8.70295 12.4743 8.63563 12.4743Z" fill="#191919"/>
<path d="M6.61557 4.39387C6.61618 4.37715 6.61067 4.36078 6.60008 4.34782C6.5895 4.33486 6.57456 4.32619 6.55805 4.32345C6.54155 4.3207 6.5246 4.32405 6.51039 4.33288C6.49618 4.34171 6.48566 4.35541 6.48081 4.37143C6.45777 4.46935 6.61557 4.62367 6.61557 4.39387Z" fill="#191919"/>
<path d="M7.13183 4.10203C7.10615 4.21063 7.24415 4.28647 7.26647 4.19179C7.30475 4.02979 7.15019 4.02391 7.13183 4.10203Z" fill="#191919"/>
<path d="M16.3352 3.81122C16.3354 3.8289 16.3384 3.84638 16.3442 3.86267C16.3499 3.87896 16.3583 3.89373 16.3689 3.90615C16.3794 3.91857 16.3918 3.92838 16.4055 3.93504C16.4192 3.94169 16.4338 3.94506 16.4485 3.94493C16.4632 3.94481 16.4778 3.94121 16.4914 3.93433C16.5049 3.92746 16.5172 3.91744 16.5275 3.90485C16.5378 3.89226 16.546 3.87735 16.5515 3.86097C16.557 3.84459 16.5597 3.82706 16.5596 3.80938C16.5595 3.7917 16.5564 3.77421 16.5506 3.75793C16.5449 3.74164 16.5365 3.72686 16.526 3.71445C16.5154 3.70203 16.503 3.69221 16.4893 3.68556C16.4757 3.6789 16.461 3.67554 16.4463 3.67566C16.4316 3.67578 16.417 3.67939 16.4035 3.68626C16.3899 3.69314 16.3776 3.70316 16.3673 3.71575C16.357 3.72833 16.3488 3.74324 16.3433 3.75963C16.3378 3.77601 16.3351 3.79354 16.3352 3.81122Z" fill="#191919"/>
<path d="M16.2895 3.45114C16.3568 3.40626 16.4241 3.36126 16.4916 3.40626C16.5365 3.4287 16.5813 3.56334 16.6716 3.51846C16.7389 3.47358 16.6716 3.38382 16.6267 3.33846C16.5908 3.306 16.5474 3.28287 16.5004 3.27113C16.4534 3.25939 16.4043 3.25939 16.3573 3.27114C16.176 3.36174 16.2673 3.46218 16.2895 3.45114Z" fill="#191919"/>
<path d="M16.0875 3.49611C16.0426 3.58587 16.0202 3.67611 15.9753 3.76539C15.911 3.8951 15.8583 4.03032 15.8181 4.16943C15.8181 4.23675 16.0426 4.41639 16.11 4.43883C16.1548 4.43883 16.1997 4.39395 16.1548 4.34907C16.1324 4.30407 15.8869 4.19307 15.9748 3.98991C16.0458 3.82803 16.212 3.37203 16.0875 3.49611Z" fill="#191919"/>
<path d="M7.17655 5.13453C7.22143 5.13453 7.26631 5.04477 7.19899 5.02233C7.17827 5.01127 7.15515 5.00549 7.13167 5.00549C7.10819 5.00549 7.08507 5.01127 7.06435 5.02233C7.02408 5.03966 6.9863 5.0623 6.95203 5.08965C6.87678 5.13264 6.79184 5.1558 6.70519 5.15697C6.66031 5.15697 6.63787 5.13453 6.59299 5.13453C6.57055 5.13453 6.55039 5.15493 6.57055 5.17941C6.63155 5.23969 6.71013 5.27902 6.79495 5.29173C6.90295 5.31873 7.07467 5.36505 7.17655 5.31417C7.24903 5.26581 7.23847 5.19597 7.17655 5.13453Z" fill="#38A1FF"/>
<path d="M17.2771 14.0231C17.258 15.4698 17.3255 16.9164 17.4792 18.3551C17.4792 18.4224 17.6138 18.3999 17.5914 18.3326C17.5689 18.0409 17.5465 17.7715 17.5016 17.4796C17.3175 15.0868 17.3408 14.5788 17.2995 14.0006C17.322 14.0006 17.2776 14.0006 17.2771 14.0231Z" fill="#191919"/>
<path d="M23.3825 15.684C23.2865 15.444 22.5948 14.3821 22.4397 14.1352C22.3405 13.9479 22.2281 13.7679 22.1031 13.5966C22.0357 13.5068 21.9459 13.5292 21.8562 13.5741C21.84 13.5806 20.1252 14.2447 19.7239 14.4271C19.7239 14.4271 19.5891 14.0455 19.6565 13.9782C20.0394 13.7868 20.0381 13.8206 20.0381 13.7762C20.0381 13.7318 19.9932 13.5517 19.9259 13.5741C19.8137 13.619 19.3872 13.7986 19.3647 13.9108C19.3878 14.122 19.4488 14.3273 19.5447 14.5168C19.4425 14.5606 19.2599 14.6314 19.0963 14.6976C18.9883 14.2628 18.5571 12.3806 18.5571 12.8335C18.6687 13.2424 18.6839 13.61 18.978 14.746C18.9006 14.7724 18.8271 14.8087 18.7591 14.854C18.4731 15.358 18.4183 15.4069 18.5571 15.6844C18.6651 15.9556 19.5731 17.5213 19.5891 17.5474C19.6239 17.6024 19.6611 17.6994 19.7205 17.7238C19.7937 17.9779 19.8968 18.4257 19.9485 18.58C19.8102 18.7163 19.6511 18.8298 19.4772 18.916C19.3051 18.9964 19.1243 19.0568 18.9385 19.096C18.9296 19.096 18.921 19.0996 18.9147 19.1059C18.9084 19.1122 18.9048 19.1208 18.9048 19.1297C18.9048 19.1386 18.9084 19.1472 18.9147 19.1535C18.921 19.1598 18.9296 19.1634 18.9385 19.1634C19.1405 19.1858 19.3409 19.0922 19.5445 19.0063C19.6559 18.9588 19.7614 18.8984 19.8588 18.8263C19.9549 18.7725 20.027 18.6843 20.0607 18.5794C20.0402 18.5588 19.9109 18.0354 19.8288 17.7201C20.0766 17.6678 22.4922 16.7397 23.0011 16.4919C23.0878 16.458 23.1595 16.3941 23.2032 16.3119C23.2434 16.2104 23.2735 16.1051 23.2929 15.9976C23.3825 15.886 23.4273 15.7738 23.3825 15.684ZM20.5321 16.2901C20.577 16.1779 20.6443 16.088 20.6893 15.9758C20.8219 15.6846 20.9344 15.3846 21.0259 15.078C20.9547 15.0984 20.8868 15.1286 20.8239 15.1677C20.7791 15.1902 20.7117 15.1453 20.7566 15.1004C20.9775 14.7241 21.225 14.364 21.4973 14.023C21.5197 14.0006 21.5421 14.023 21.5421 14.0455C21.3244 14.3493 21.1221 14.664 20.9361 14.9882C21.1077 14.9024 21.1881 14.9557 21.1607 15.0106C21.0669 15.3487 20.9468 15.6789 20.8015 15.9982C20.7628 16.1093 20.71 16.215 20.6443 16.3125C20.5992 16.38 20.5094 16.335 20.5321 16.2901ZM21.7218 16.3798C21.6545 16.4247 20.3975 16.8958 20.3298 16.941C20.2625 16.9634 20.2176 17.0083 20.1498 16.9634C20.1002 16.9209 20.0617 16.867 20.0376 16.8063C19.9478 16.6717 19.2565 15.3676 19.0949 15.0331C19.073 14.988 19.1173 14.9658 19.1397 15.0106C19.3418 15.3249 20.1273 16.6492 20.2397 16.8512C20.679 16.6616 21.1285 16.4967 21.5863 16.3574C21.6208 16.3393 21.6598 16.3315 21.6986 16.335C21.7441 16.3125 21.7667 16.3573 21.7218 16.3798Z" fill="#191919"/>
<path d="M19.9601 19.2599C19.86 19.3599 19.845 19.3876 19.857 19.4377C19.8604 19.4445 19.8655 19.4503 19.8718 19.4545C19.8782 19.4587 19.8855 19.4612 19.893 19.4617C19.9472 19.4617 20.0234 19.3657 20.0501 19.3046C20.0632 19.2683 20.0632 19.2286 20.0501 19.1923C20.0189 19.2131 19.9888 19.2357 19.9601 19.2599Z" fill="#191919"/>
<path d="M20.6439 19.657C20.4869 19.4999 20.3298 19.3651 20.1726 19.2081C20.1566 19.274 20.1259 19.3356 20.0828 19.3881C20.0633 19.4213 20.0373 19.4504 20.0064 19.4735C19.9755 19.4967 19.9403 19.5134 19.9028 19.5228C19.8363 19.5336 19.788 19.5235 19.7682 19.4555C19.7423 19.3666 19.851 19.225 19.9701 19.1412C20.0014 19.1141 20.041 19.0983 20.0823 19.0963L19.9477 18.9616C19.8579 18.8942 19.7906 18.9391 19.7232 18.9841C19.409 19.2983 19.1396 19.3207 19.0947 19.5001C19.0913 19.5506 19.0997 19.6013 19.1191 19.648C19.1386 19.6947 19.1687 19.7363 19.2069 19.7694C19.208 19.8151 19.2155 19.8605 19.2294 19.904C19.2744 19.949 19.6334 19.9939 19.6559 19.9939L19.7232 19.949C19.9392 20.021 20.0547 20.1942 20.868 20.4651C20.9353 20.4651 21.0026 20.4875 21.048 20.4426C21.0929 20.4202 21.0929 20.3752 21.1153 20.3303C21.1153 20.1126 21.12 20.0654 20.6439 19.657Z" fill="#191919"/>
<path d="M17.3668 18.7592C17.1435 18.7867 16.9181 18.7942 16.6935 18.7816L16.3568 18.9162C16.4408 18.9162 16.6727 18.9922 16.6486 19.1408C16.6395 19.1748 16.6189 19.2046 16.5902 19.2251C16.5615 19.2455 16.5267 19.2554 16.4915 19.253C16.2885 19.2417 16.267 18.9611 16.2894 18.9611C16.0188 19.0691 15.6596 19.2537 15.5264 19.3203C15.4365 19.3652 15.3018 19.41 15.257 19.5224C15.2485 19.5669 15.2578 19.6131 15.283 19.6508C15.3082 19.6886 15.3472 19.715 15.3916 19.7243C15.5033 19.7494 16.8057 19.4999 16.8281 19.4999C16.8281 19.5224 16.8506 19.5897 16.873 19.5897C16.918 19.6346 17.2322 19.5897 17.3219 19.5897C17.3336 19.5889 17.3446 19.584 17.3528 19.5757C17.3611 19.5674 17.3661 19.5565 17.3668 19.5448C17.4115 19.3004 17.4341 19.0525 17.4342 18.804C17.4342 18.7816 17.3894 18.7592 17.3668 18.7592Z" fill="#191919"/>
<path d="M16.267 18.8937C16.3118 18.8753 16.2799 18.7458 16.2445 18.6245C16.2364 18.5865 16.2202 18.5508 16.1969 18.5197C16.1737 18.4886 16.144 18.463 16.1099 18.4445C16.017 18.4135 15.8152 18.5586 15.9977 18.7812C16.025 18.8259 16.0657 18.8609 16.1141 18.8811C16.1624 18.9013 16.2159 18.9057 16.267 18.8937ZM16.1099 18.5796C16.1566 18.6132 16.1772 18.7655 16.1772 18.8264C16.1208 18.7948 16.0742 18.7482 16.0426 18.6918C16.0153 18.6261 16.0284 18.5209 16.1099 18.5796Z" fill="#191919"/>
<path d="M20.4195 18.647C20.3774 18.6511 20.3369 18.6656 20.3017 18.689C20.2665 18.7125 20.2376 18.7443 20.2176 18.7816C20.1322 18.9523 20.1654 19.1183 20.195 19.1183C20.24 19.0959 20.3713 19.0022 20.3971 18.9837C20.4316 18.9587 20.5704 18.8771 20.5771 18.8265C20.5791 18.8042 20.5766 18.7818 20.5697 18.7605C20.5628 18.7393 20.5517 18.7196 20.5369 18.7029C20.5222 18.6861 20.5042 18.6724 20.484 18.6628C20.4638 18.6532 20.4419 18.6478 20.4195 18.647ZM20.4868 18.8041C20.467 18.8641 20.3068 18.9394 20.24 19.0061C20.2408 18.9545 20.2558 18.904 20.2836 18.8604C20.3113 18.8168 20.3506 18.7818 20.3971 18.7592C20.448 18.7441 20.4868 18.7502 20.4868 18.8041Z" fill="#191919"/>
<path d="M14.9426 13.1925C14.9394 13.2045 13.9106 17.1308 13.9106 17.1431C13.9106 17.1655 13.9555 17.1879 13.9555 17.1655C14.2285 16.6195 14.9851 13.2498 14.9875 13.2374C14.9879 13.1701 14.9426 13.1477 14.9426 13.1925Z" fill="#191919"/>
<path d="M15.9527 2.82263C16.0558 2.61659 15.9838 2.63447 16.2446 2.37371C16.3803 2.23073 16.564 2.14284 16.7606 2.12687C16.9626 2.12687 17.0979 2.30375 17.2992 2.35127C17.3954 2.36933 17.4933 2.37686 17.5911 2.37371C17.6933 2.38639 17.7966 2.36254 17.8829 2.30639C17.8881 2.30247 17.8924 2.29738 17.8953 2.29154C17.8982 2.2857 17.8997 2.27926 17.8997 2.27273C17.8997 2.2662 17.8982 2.25976 17.8953 2.25392C17.8924 2.24808 17.8881 2.24299 17.8829 2.23907C17.8155 2.19419 17.7257 2.23907 17.636 2.23907C17.554 2.24962 17.4711 2.24962 17.3891 2.23907C17.2331 2.19107 17.1197 2.05907 16.9402 2.01467C16.5202 1.88543 15.9082 2.38499 15.9082 2.80019C15.9078 2.84507 15.9303 2.84507 15.9527 2.82263Z" fill="#191919"/>
<path d="M16.3793 2.93492C16.4293 2.85783 16.4991 2.79565 16.5814 2.75492C16.6489 2.70435 16.7249 2.66634 16.8058 2.64272C16.8878 2.62703 16.9726 2.6333 17.0514 2.66088C17.1302 2.68847 17.2004 2.73639 17.2547 2.7998C17.3094 2.85775 17.3756 2.90367 17.449 2.93466C17.5225 2.96565 17.6015 2.98102 17.6812 2.9798C17.8454 2.98633 18.0059 2.93013 18.1301 2.8226C18.175 2.80016 18.1301 2.7104 18.0853 2.73284C17.4467 3.00656 17.4358 2.73044 17.165 2.57576C17.0909 2.54248 17.0105 2.52527 16.9293 2.52527C16.848 2.52527 16.7677 2.54248 16.6936 2.57576C16.5289 2.63654 16.3928 2.75662 16.312 2.91248C16.3139 2.91921 16.3175 2.92536 16.3223 2.93042C16.3271 2.93547 16.3331 2.93927 16.3397 2.94148C16.3464 2.94369 16.3535 2.94425 16.3604 2.9431C16.3673 2.94196 16.3738 2.93915 16.3793 2.93492Z" fill="#191919"/>
<path d="M16.1099 11.7112C16.1908 11.6926 16.2738 11.6851 16.3568 11.6888V11.6215H15.9528C15.9415 11.7033 15.9415 11.7864 15.9528 11.8683H16.3343V11.7785C16.2588 11.7822 16.1832 11.7746 16.1099 11.7561C16.0875 11.7561 16.0875 11.7112 16.1099 11.7112Z" fill="#191919"/>
<path d="M16.9574 11.9357C16.9791 12.1852 17.0031 12.4326 17.0302 12.6763C17.0302 12.7521 17.1022 12.7437 17.5689 12.7437C17.8816 12.7437 18.7831 12.6303 19.0952 12.4519C19.0952 12.4295 19.0727 12.3846 19.0503 12.3846C18.8386 12.3846 18.0883 12.609 17.5465 12.609C17.4039 12.6053 17.2613 12.6128 17.12 12.6315C17.0069 11.2745 16.7505 8.13722 17.0527 6.81806C17.1712 6.33608 17.3766 5.87972 17.6587 5.4713C17.6811 5.44886 17.6362 5.42642 17.6362 5.44886C17.3827 5.73337 17.187 6.06459 17.0602 6.42398C17.0567 6.41748 17.0517 6.4119 17.0456 6.4077C17.0395 6.4035 17.0325 6.40081 17.0252 6.39984C17.0179 6.39887 17.0104 6.39964 17.0035 6.40211C16.9965 6.40457 16.9902 6.40866 16.9851 6.41402C16.8953 6.50378 16.5137 6.90782 16.4913 6.93002C16.4913 6.88514 16.4266 6.59282 16.4014 6.4811C16.3609 6.3005 16.3117 6.14438 16.2668 5.9873C16.3565 5.94242 17.2319 5.31398 17.2768 5.2913C17.3217 5.2463 17.3667 5.22386 17.3891 5.17898C17.3779 4.96965 17.3779 4.75987 17.3891 4.55054C17.5931 4.3979 17.7418 4.20746 17.5691 4.03454C17.5691 4.03454 17.5142 3.65054 17.4903 3.46094C17.8199 3.60002 18.0119 3.31646 17.8607 3.31646C17.7547 3.31646 17.6072 3.4445 17.3447 3.18182C17.2101 3.06962 17.0081 2.97986 16.8509 3.1145C16.8285 3.13694 16.8734 3.18182 16.8959 3.18182C17.1022 3.07862 17.3031 3.36086 17.4359 3.4349C17.4479 3.60475 17.4474 3.77525 17.4343 3.94502C17.361 3.9292 17.2848 3.93339 17.2137 3.95714C17.1427 3.9809 17.0793 4.02334 17.0302 4.08002C17.0302 4.08002 16.9629 3.56402 16.9629 3.4067C16.9629 3.38414 16.918 3.38414 16.918 3.4067C16.8956 3.60866 16.918 4.2371 17.0078 4.2371C17.4791 3.78818 17.7038 4.32686 17.2995 4.55138C17.2846 4.76106 17.2921 4.97174 17.3219 5.17982L16.4241 5.85326C16.4278 5.69581 16.4203 5.53829 16.4017 5.3819C16.4785 5.38005 16.5545 5.36487 16.6262 5.33702C16.6711 5.31458 16.6711 5.2247 16.6037 5.2247C16.4915 5.2247 15.863 5.24714 15.7957 5.2247C15.7059 5.20226 15.6835 5.1125 15.6835 5.02274C15.6889 4.3697 15.7338 3.71758 15.8181 3.06998C15.8181 3.04754 15.7732 3.0251 15.7508 3.06998C15.693 3.28265 15.6555 3.5003 15.6386 3.72002C15.6146 3.94442 15.5488 4.97702 15.5488 5.08922C15.544 5.13347 15.552 5.17818 15.5719 5.21801C15.5918 5.25783 15.6227 5.29107 15.661 5.31374C15.865 5.42174 16.267 5.38106 16.2895 5.38106C16.267 5.47082 16.3119 5.89706 16.2895 5.89706C16.267 5.9195 16.2221 5.94194 16.1997 5.98682C16.1997 5.98682 15.8405 6.70514 15.8405 6.86282C15.8405 6.9077 15.8854 6.9077 15.9079 6.86282C15.995 6.60153 16.1001 6.34653 16.2221 6.09962C16.2628 6.23931 16.2928 6.38188 16.3119 6.5261C16.3343 6.61586 16.4467 7.08722 16.4691 7.06478C16.6659 6.8899 16.853 6.7043 17.0294 6.50882C16.92 6.82525 16.8597 7.15657 16.8506 7.49126C16.7479 8.78726 16.8164 10.101 16.9156 11.4197C16.8087 11.4225 16.6853 11.4418 16.5813 11.4418C16.1533 11.4418 15.8733 11.4603 15.6835 11.3519C15.5035 11.2621 15.4547 11.0159 15.4141 10.8359C15.3668 10.6146 15.3442 10.3888 15.3467 10.1626C15.3467 10.1401 15.3019 10.1401 15.3019 10.1626C15.2757 10.3569 15.2833 10.5544 15.3243 10.7461C15.3377 10.9153 15.3755 11.0816 15.4365 11.2399C15.4607 11.3006 15.4992 11.3545 15.5488 11.397C15.5318 11.4785 15.5318 11.5625 15.5488 11.644C15.5596 11.7105 15.5488 11.8459 15.6386 11.8684C15.6463 11.8684 15.6565 11.8691 15.6683 11.8702C15.7753 12.8794 16.3444 17.9662 16.3792 18.1757C16.403 18.3168 16.4181 18.4592 16.4242 18.6022C16.5971 18.6635 16.7795 18.6939 16.9629 18.6919C17.0608 18.6919 17.4365 18.6672 17.524 18.5797C17.5465 18.5797 17.5465 18.5349 17.524 18.5349C17.3668 18.4955 17.3271 18.5797 16.9853 18.5797C16.8255 18.5841 16.6662 18.5614 16.514 18.5124C16.5177 18.3997 16.5102 18.2869 16.4915 18.1757C16.4659 18.0477 16.3955 17.2891 16.3792 17.1208C16.2991 16.3182 15.734 12.0059 15.7161 11.8755C15.7685 11.8821 15.8265 11.8908 15.8405 11.8908C15.8132 11.7808 15.7981 11.6681 15.7957 11.5548C15.7964 11.5432 15.8014 11.5322 15.8096 11.5239C15.8179 11.5156 15.8289 11.5107 15.8405 11.5099H16.3343C16.3464 11.5088 16.3586 11.5103 16.37 11.5144C16.3815 11.5185 16.3919 11.5251 16.4004 11.5336C16.409 11.5422 16.4156 11.5526 16.4197 11.564C16.4238 11.5754 16.4254 11.5876 16.4242 11.5997C16.4272 11.7124 16.4197 11.8251 16.4017 11.9364L16.9574 11.9357Z" fill="#191919"/>
<path d="M4.0567 14.8537C3.49558 15.9535 2.96062 17.0672 2.4631 18.1756C2.32366 18.4864 2.09602 18.8729 2.03662 19.0516C2.0227 19.0516 1.2061 19.1465 1.2061 18.7149C1.63438 17.002 2.64898 13.9823 3.20386 12.3178C3.2263 12.2729 3.15886 12.2729 3.13642 12.2954C2.13226 14.9991 1.25974 17.9234 1.0939 18.67C1.12502 18.7706 1.17876 18.8628 1.25098 18.9394C1.28493 18.9734 1.32205 19.0042 1.36186 19.0311C1.04979 19.4919 0.794048 19.9884 0.600098 20.51C0.600098 20.5324 0.622538 20.5773 0.644978 20.5773C0.767018 20.5773 0.962138 20.4028 1.18366 20.2406C1.34266 20.1248 1.49273 19.9973 1.63258 19.859C1.63258 19.8814 1.65502 19.9039 1.67746 19.9263C1.68263 19.9354 1.69065 19.9426 1.7003 19.9468C1.70995 19.9509 1.72069 19.9518 1.73087 19.9492C1.74106 19.9467 1.75013 19.9409 1.75669 19.9327C1.76326 19.9245 1.76696 19.9144 1.76722 19.9039C1.7953 19.8338 1.95418 19.1359 1.95466 19.1239C2.01294 19.1229 2.07077 19.1135 2.12638 19.096C2.28394 18.9385 3.4609 16.0661 4.10158 14.8762C4.12402 14.8537 4.07914 14.8312 4.0567 14.8537Z" fill="#191919"/>
<path d="M4.23592 19.859C4.22788 19.847 3.77992 19.1917 3.74224 19.0881C3.81424 19.0761 3.96148 18.9812 3.87676 18.9388C3.871 18.9368 3.98668 18.9608 3.04624 18.8041C3.26776 18.5825 3.62788 16.2134 3.6298 16.2001C3.6298 16.1776 3.60736 16.1776 3.58492 16.2001C3.11692 18.6577 2.9116 18.625 2.9116 18.8935C2.9496 18.9305 2.99337 18.9611 3.0412 18.9841C2.94797 19.1806 2.89622 19.3943 2.88916 19.6118C2.88916 19.6791 2.95648 19.6791 3.00136 19.6342C3.04794 19.5764 3.10061 19.5237 3.15844 19.4771C3.43828 19.7102 3.83524 19.8245 4.19044 19.9035C4.21372 19.9489 4.2586 19.9039 4.23592 19.859Z" fill="#191919"/>
<path d="M4.59533 17.5021C4.53365 17.6175 4.48113 17.7376 4.43825 17.8612C4.38593 18.0184 4.15865 18.5152 4.12397 18.602C4.05483 18.7247 3.99467 18.8522 3.94397 18.9836C3.92153 19.0285 3.98885 19.0285 4.01129 19.006C4.2899 18.5307 4.51572 18.0264 4.68473 17.5021C4.64033 17.4796 4.59533 17.4796 4.59533 17.5021Z" fill="#191919"/>
<path d="M9.84758 20.5772C13.4466 17.6324 13.5157 17.5594 13.5286 17.547C13.5516 17.5252 13.5286 17.5021 13.5061 17.5246C13.0547 17.8118 10.3261 20.0308 9.80258 20.5548C9.7799 20.5772 9.82514 20.5997 9.84758 20.5772Z" fill="#191919"/>
<path d="M7.84992 19.5223C7.92332 19.3629 7.98352 19.1978 8.02992 19.0285C8.09073 18.8667 8.14317 18.7019 8.187 18.5347C8.29188 18.1956 8.38896 17.8613 8.47884 17.5027C8.52619 17.3178 8.56365 17.1305 8.59104 16.9416C8.58912 16.9349 8.5856 16.9287 8.58077 16.9237C8.57593 16.9186 8.56994 16.9148 8.5633 16.9126C8.55667 16.9104 8.5496 16.9098 8.5427 16.911C8.5358 16.9121 8.52929 16.9149 8.52372 16.9192C8.47884 16.964 8.47884 17.0764 8.4564 17.1437C7.96584 19.1058 8.02092 18.5717 7.78296 19.5229C7.78694 19.528 7.79204 19.5322 7.79787 19.535C7.8037 19.5378 7.81011 19.5392 7.81659 19.5392C7.82307 19.5391 7.82944 19.5376 7.83523 19.5347C7.84101 19.5317 7.84603 19.5275 7.84992 19.5223Z" fill="#191919"/>
<path d="M8.1418 16.6042C8.17659 16.4151 8.27099 16.242 8.4112 16.1104C8.53488 15.9674 8.68796 15.8528 8.86 15.7744C8.89976 15.7493 8.94411 15.7322 8.99049 15.7242C9.03687 15.7162 9.08437 15.7175 9.13027 15.7279C9.17616 15.7383 9.21954 15.7577 9.25792 15.785C9.2963 15.8122 9.32893 15.8467 9.35392 15.8866C9.39681 15.9652 9.42114 16.0526 9.42503 16.142C9.42892 16.2315 9.41227 16.3206 9.37636 16.4026C9.24244 16.8043 9.1096 17.0415 9.17428 17.3005C9.20203 17.394 9.23964 17.4843 9.28648 17.5699C9.36375 17.7382 9.38729 17.9263 9.35392 18.1085C9.17188 18.8366 8.4772 19.0685 8.05204 19.3879C8.00716 19.4103 8.05204 19.4767 8.09692 19.4553C8.41204 19.3065 8.91928 19.0101 9.15184 18.737C9.39964 18.446 9.55588 18.0187 9.42124 17.6372C9.37636 17.5473 9.33136 17.4572 9.28648 17.3453C9.15448 17.0149 9.3994 16.6799 9.46648 16.3133C9.48892 16.1333 9.48892 15.9317 9.37672 15.7973C9.32502 15.7245 9.25147 15.67 9.16672 15.6417C9.08198 15.6135 8.99044 15.6129 8.90536 15.6401C8.68847 15.7168 8.49511 15.8482 8.34412 16.0217C8.23192 16.1789 8.09728 16.3585 8.09728 16.5829C8.09692 16.6268 8.1418 16.6268 8.1418 16.6042Z" fill="#191919"/>
<path d="M8.70282 21.0262C8.68554 20.9915 8.6421 20.9044 8.5917 20.8863C8.64941 20.6225 8.67914 20.3535 8.68038 20.0835C8.66922 19.5444 8.6355 19.5448 8.32122 19.5448C8.23146 19.5448 8.23146 19.5897 8.27634 19.5897C8.32152 19.5863 8.36691 19.5925 8.40949 19.608C8.45207 19.6234 8.49087 19.6478 8.5233 19.6794C8.38507 19.7221 8.24146 19.7447 8.09682 19.7468C7.82106 19.777 7.54329 19.7845 7.2663 19.7692C7.22142 19.7692 6.70518 19.7019 6.70518 19.657C6.70518 19.5696 7.18686 19.5023 7.19898 19.4999C7.22142 19.4999 7.22142 19.4775 7.19898 19.4775C7.07018 19.4715 6.94127 19.4866 6.81738 19.5224C6.5481 19.6121 6.57054 19.7468 6.57054 20.2184C6.5727 20.4454 6.59159 20.6721 6.62706 20.8964C6.48918 21.0074 6.21246 21.2669 6.14406 21.3182C6.12162 21.3406 6.14406 21.3632 6.1665 21.3632C6.2385 21.3272 6.5385 21.1058 6.65682 21.0177C6.77682 21.4121 7.06482 21.605 7.47546 21.6515C7.4715 21.7668 7.46838 21.8739 7.46838 21.9243C7.44594 21.9692 7.5357 22.0365 7.55814 21.9916C7.59318 21.9566 7.58718 21.7707 7.58286 21.6591C7.78604 21.6689 7.98718 21.6146 8.15777 21.5038C8.32837 21.393 8.45978 21.2313 8.53338 21.0417C8.62938 21.1848 8.8383 21.4986 8.86002 21.5202C8.86394 21.5255 8.86903 21.5297 8.87487 21.5326C8.88071 21.5355 8.88715 21.537 8.89368 21.537C8.90021 21.537 8.90665 21.5355 8.91249 21.5326C8.91833 21.5297 8.92342 21.5255 8.92734 21.5202C8.97222 21.4978 8.97222 21.4754 8.97222 21.4529C8.94978 21.408 8.74794 21.0935 8.70282 21.0262ZM6.68274 19.7468C7.55874 20.0386 8.59074 19.7916 8.59074 19.7916C8.51874 20.0436 8.61738 20.5871 8.45874 20.937C8.19177 21.0391 7.91067 21.0994 7.62534 21.116C7.38884 21.116 7.15385 21.0781 6.92934 21.0038C6.86384 20.9794 6.8033 20.9434 6.75066 20.8974C6.6729 20.6339 6.68274 20.457 6.68274 19.7468ZM6.81042 21.0562C6.83958 21.0714 7.03686 21.1522 7.06434 21.1608C7.2022 21.2051 7.34605 21.2278 7.49082 21.2282C7.49082 21.2394 7.48518 21.3797 7.47954 21.534C7.33565 21.5209 7.19784 21.4697 7.08025 21.3858C6.96267 21.3018 6.86954 21.188 6.81042 21.0562ZM7.58058 21.5408V21.2506C7.746 21.2468 7.91098 21.2318 8.07438 21.2057C8.11302 21.1961 8.31678 21.1397 8.34786 21.1298C8.26278 21.2553 8.14851 21.3582 8.01487 21.4298C7.88122 21.5014 7.73219 21.5395 7.58058 21.5408Z" fill="#191919"/>
<path d="M15.2571 12.7212C14.9438 12.9093 11.2291 15.0484 11.2168 15.0556C11.2168 15.0107 11.2618 14.4047 11.2618 14.3823C11.7505 14.199 14.3835 12.7408 14.7633 12.5193C14.7857 12.4968 14.7633 12.4519 14.7409 12.4744C14.2525 12.6964 12.3649 13.7518 11.2394 14.3149C10.7006 14.2925 7.13957 14.157 6.80909 14.1568C6.66509 13.7637 6.35981 13.4061 5.89709 13.4171C5.80384 13.4189 5.71194 13.4397 5.62703 13.4783C5.54211 13.5169 5.46598 13.5724 5.40329 13.6415C5.24285 13.8408 5.27129 14.0897 5.33597 14.3375C5.37115 14.4708 5.41578 14.6015 5.46953 14.7285C5.02685 14.6644 4.53257 14.6469 4.32593 14.6292C3.94505 14.5969 3.56273 14.5619 3.15869 14.5619C3.15737 14.5488 3.08753 14.0304 3.06893 13.9559C3.39552 14.0097 3.72559 14.0397 4.05653 14.0457C4.43801 14.0697 4.81973 14.113 5.20133 14.113C5.21026 14.113 5.21882 14.1094 5.22513 14.1031C5.23145 14.0968 5.23499 14.0882 5.23499 14.0793C5.23499 14.0704 5.23145 14.0618 5.22513 14.0555C5.21882 14.0492 5.21026 14.0457 5.20133 14.0457C4.81973 14.0008 4.46045 13.9798 4.07897 13.9559C3.91349 13.9455 3.02405 13.8577 3.02405 13.9335C2.99729 14.1749 3.06893 14.4838 3.06893 14.6068C3.06887 14.6097 3.0694 14.6127 3.07051 14.6154C3.07161 14.6182 3.07326 14.6207 3.07536 14.6228C3.07746 14.6249 3.07996 14.6265 3.08271 14.6276C3.08546 14.6287 3.08841 14.6293 3.09137 14.6292C4.21193 14.7538 4.10369 14.722 4.33817 14.7451C4.38857 15.0046 5.09873 19.6084 5.19821 20.2217C5.1888 20.2343 5.18398 20.2497 5.18454 20.2654C5.18511 20.2811 5.19104 20.2961 5.20133 20.308C5.26301 20.3235 5.79533 20.3529 5.80733 20.3529C5.91533 20.3529 6.29729 20.4043 6.41333 20.3753C6.43577 20.3753 6.45821 20.3304 6.41333 20.3304C6.21296 20.2952 6.01055 20.2727 5.80733 20.2631C5.75501 20.2631 5.37101 20.2302 5.24201 20.2207C5.14529 19.2304 5.22041 19.9623 4.77485 16.7841C4.71185 16.3345 4.63625 15.8869 4.55033 15.4373C4.51891 15.206 4.47274 14.9769 4.41209 14.7515C4.58381 14.7646 4.76549 14.7678 4.93193 14.7864C5.03093 14.7864 5.39477 14.8306 5.50709 14.8147C5.70149 15.2448 5.92589 15.5435 5.89709 15.8862C5.87633 16.1333 5.62781 16.2903 5.56037 16.5371C5.54422 16.6522 5.55186 16.7693 5.58283 16.8813C5.61379 16.9933 5.66741 17.0977 5.74037 17.1881C6.05741 17.6033 6.80957 17.8378 6.52601 18.3103C6.43613 18.5124 6.25289 18.7619 6.41369 18.9838C6.47721 19.076 6.5736 19.1404 6.68309 19.1638C6.81546 19.2033 6.95049 19.2333 7.08713 19.2535C7.20584 19.2751 7.32747 19.2751 7.44617 19.2535C7.46545 19.3904 7.4955 19.5255 7.53605 19.6576C7.54041 19.671 7.54955 19.6824 7.56173 19.6895C7.57391 19.6966 7.58829 19.6991 7.60214 19.6963C7.61598 19.6935 7.62833 19.6858 7.63683 19.6745C7.64533 19.6632 7.6494 19.6492 7.64825 19.6351C7.62581 19.5005 7.60337 19.3882 7.58093 19.2535C7.73076 19.1077 7.84971 18.9331 7.93069 18.7403C8.01167 18.5475 8.05302 18.3404 8.05229 18.1313C8.04548 17.9058 7.99195 17.6841 7.89509 17.4803C7.82936 17.3669 7.77666 17.2465 7.73801 17.1213C7.65029 16.6823 7.92257 16.4229 7.85021 16.0438C7.76117 15.5773 7.27181 15.5568 7.01981 14.9664C6.91685 14.7256 6.90485 14.4486 6.82637 14.2065C7.60853 14.2855 10.6192 14.4053 11.2171 14.4053C11.1902 14.6288 11.1752 14.8535 11.1722 15.0786C11.0761 15.06 10.9782 15.0525 10.8805 15.0562C10.7457 15.0562 9.98249 14.9943 9.73565 14.9889C9.21905 14.9777 7.58093 14.8767 7.28909 14.8542C7.24421 14.8542 7.24421 14.8991 7.28909 14.9215C8.10701 14.9927 9.74165 15.0919 10.4529 15.1301C10.2274 16.5199 9.60089 19.9625 9.60089 20.5781C9.60062 20.5827 9.60128 20.5873 9.60285 20.5916C9.60442 20.5959 9.60686 20.5999 9.61001 20.6032C9.61316 20.6066 9.61696 20.6092 9.62118 20.6111C9.62541 20.6129 9.62995 20.6138 9.63455 20.6138C9.63915 20.6138 9.6437 20.6129 9.64792 20.6111C9.65214 20.6092 9.65594 20.6066 9.6591 20.6032C9.66225 20.5999 9.66468 20.5959 9.66625 20.5916C9.66782 20.5873 9.66849 20.5827 9.66821 20.5781C9.66821 20.3897 10.3183 16.3225 10.4974 15.1327C10.9586 15.1567 10.8501 15.1404 11.2174 15.1687C11.8462 14.9068 15.0368 13.0103 15.28 12.7671C15.3241 12.744 15.2795 12.7212 15.2571 12.7212ZM7.06445 15.3923C7.19993 15.5483 7.40105 15.6616 7.53581 15.8412C7.69289 16.0212 7.64801 16.2453 7.60313 16.4697C7.53581 16.6942 7.46849 16.9186 7.53581 17.1431C7.60313 17.3676 7.73981 17.5689 7.80509 17.794C7.93877 18.2568 7.77533 18.7477 7.51337 19.1407C7.25981 18.1265 6.87653 16.6771 6.50321 15.7066C6.50321 15.684 6.45833 15.684 6.45833 15.7066C6.87017 17.1319 7.31621 18.9455 7.35617 19.1856C7.11262 19.183 6.87072 19.1452 6.63797 19.0734C6.52577 19.0285 6.43805 18.9832 6.41345 18.8489C6.37817 18.6569 6.60257 18.346 6.63797 18.1529C6.65084 18.0436 6.62717 17.9331 6.57065 17.8386C6.37589 17.4694 5.78201 17.3422 5.62793 16.8286C5.59428 16.7189 5.59428 16.6016 5.62793 16.4919C5.68289 16.3866 5.75073 16.2885 5.82989 16.2C6.15149 15.756 5.77865 15.2377 5.58305 14.808C5.42057 14.4513 5.10605 13.7621 5.62793 13.551C5.95385 13.419 6.32645 13.527 6.57065 14.0448C6.80693 14.5462 6.62153 14.8809 7.06445 15.3923Z" fill="#191919"/>
<path d="M6.39088 4.10209C6.35164 4.12897 6.34108 4.20349 6.32356 4.21429C6.28684 4.23697 6.27796 4.09933 6.33988 4.05289C6.37109 4.02683 6.41136 4.01422 6.45185 4.01782C6.49235 4.02141 6.52976 4.04094 6.55588 4.07209C6.58588 4.09897 6.57016 4.10209 6.57016 4.10209C6.54477 4.08162 6.51314 4.07045 6.48052 4.07045C6.4479 4.07045 6.41627 4.08162 6.39088 4.10209Z" fill="#191919"/>
<path d="M7.15423 3.85524C7.13179 3.85524 7.08691 3.83268 7.06447 3.85524C7.04203 3.8778 7.02643 3.91224 6.99715 3.90012C6.97639 3.89148 6.99415 3.80232 7.06447 3.7878C7.10203 3.78012 7.16455 3.78096 7.17667 3.81024C7.18519 3.831 7.17667 3.85524 7.15423 3.85524Z" fill="#191919"/>
<path d="M13.7083 10.9255C13.6648 10.8432 13.593 10.7793 13.5062 10.7455C13.208 10.6223 12.8856 10.5686 12.5635 10.5885C12.3391 10.5885 12.0921 10.566 11.8675 10.566C11.7104 10.566 11.5756 10.5436 11.4186 10.5436C11.1196 10.5881 10.8261 10.6633 10.5426 10.768C10.2292 10.861 9.93656 10.9925 9.62228 11.1047C9.48191 11.1665 9.36977 11.2786 9.308 11.419C9.25899 11.5711 9.24396 11.7322 9.26396 11.8908C9.27038 11.9614 9.29712 12.0287 9.34095 12.0844C9.38477 12.1402 9.44381 12.1821 9.51092 12.205C9.62312 12.2274 9.75776 12.2274 9.87008 12.2499C10.0047 12.2499 10.1394 12.2693 10.274 12.2723C12.6226 12.3257 12.0013 12.4589 13.3491 11.6887C13.4148 11.662 13.4744 11.6224 13.5245 11.5723C13.5746 11.5222 13.6142 11.4625 13.641 11.3969C13.7307 11.2398 13.776 11.0379 13.7083 10.9255ZM9.87008 11.8458C9.8252 11.9581 9.60068 11.9806 9.57824 11.8458C9.57656 11.7445 9.59967 11.6444 9.64556 11.5541C9.67964 11.503 9.9998 11.4565 9.87008 11.8458ZM11.352 11.7561C11.2846 11.9133 11.104 11.9995 10.9479 12.0479C10.773 12.102 10.2459 12.1319 10.1174 12.003C10.0052 11.8908 10.1174 11.7112 10.2296 11.6439C10.252 11.6214 10.297 11.6663 10.2745 11.6887C10.2387 11.7429 10.2157 11.8044 10.2072 11.8687C10.2072 11.9719 10.8594 12.0436 11.1499 11.8014C11.1948 11.779 11.2172 11.7341 11.2622 11.6892C11.2662 11.6824 11.2716 11.6765 11.278 11.672C11.2845 11.6674 11.2918 11.6642 11.2996 11.6626C11.3073 11.6611 11.3153 11.6612 11.323 11.6629C11.3307 11.6646 11.338 11.6679 11.3443 11.6727C11.3506 11.6774 11.3559 11.6834 11.3598 11.6903C11.3636 11.6972 11.366 11.7048 11.3667 11.7127C11.3674 11.7205 11.3665 11.7284 11.364 11.7359C11.3614 11.7434 11.3573 11.7503 11.352 11.7561ZM11.9131 11.9806C11.8682 12.0479 11.6212 12.0703 11.5988 11.9806C11.5884 11.8664 11.6037 11.7513 11.6437 11.6439C11.6661 11.599 11.8237 11.599 11.8682 11.599C12.0217 11.568 11.9689 11.9247 11.9131 11.9806ZM12.0477 11.4195C11.8455 11.4232 11.6431 11.4157 11.4417 11.3969C11.036 11.3818 10.6314 11.3443 10.2297 11.2847C10.2073 11.2847 10.2073 11.2398 10.2297 11.2398C10.532 11.2398 10.8954 11.2847 12.1152 11.2847C12.5192 11.2847 12.8335 11.0154 13.1926 10.9031C13.2643 10.9755 12.3834 11.4195 12.0477 11.4195Z" fill="#38A1FF"/>
<path d="M11.7108 11.9357H11.823L11.8454 11.7336L11.6882 11.7561L11.7108 11.9357Z" fill="#38A1FF"/>
<path d="M9.69041 11.6438L9.82517 11.6662L9.78017 11.8458H9.66797L9.69041 11.6438Z" fill="#38A1FF"/>
<path d="M16.3569 18.984C16.3569 18.984 16.3794 19.1411 16.4693 19.164C16.5591 19.1869 16.559 19.0967 16.4917 19.0518C16.4496 19.024 16.4044 19.0012 16.3569 18.984Z" fill="#191919"/>
<path d="M6.57062 7.9627C5.40746 7.4539 5.06198 6.95338 4.41578 6.88534C4.39334 6.88534 4.39334 6.83986 4.41578 6.84046C4.8875 6.85162 5.29286 7.15246 5.67278 7.40158C6.01659 7.62436 6.38581 7.8052 6.77258 7.94026C6.79737 7.79177 6.81236 7.6418 6.81746 7.49134C6.81746 7.4689 6.86234 7.44646 6.86234 7.49134C6.86777 7.65627 6.8603 7.82137 6.84002 7.98514C7.51034 8.20858 7.5455 8.20666 8.72546 8.47894C8.80918 8.0256 8.80155 7.5601 8.70302 7.10974C8.60655 6.67354 8.35035 6.28922 7.98482 6.03238C7.80877 5.91132 7.59979 5.84724 7.38614 5.84878C7.46618 6.23386 7.52162 6.98878 7.24406 7.26694C7.18618 7.32846 7.11674 7.37797 7.03971 7.41262C6.96268 7.44728 6.87957 7.4664 6.79514 7.4689C6.41378 7.51522 6.03206 7.37914 5.71778 7.22206C5.38435 7.04714 5.0812 6.81976 4.81994 6.54862C4.75806 6.47739 4.71586 6.39122 4.69754 6.29866C4.58222 6.31981 4.47612 6.37571 4.39346 6.45886C4.08002 6.77182 3.88514 7.55758 3.78734 7.98514C3.66422 8.52322 3.6251 8.41462 3.45062 9.28702C3.24962 10.2918 2.9891 11.1735 2.73242 12.1152C2.73242 12.1376 2.73242 12.1825 2.7773 12.1825C3.36086 12.2947 5.15654 12.3846 5.31362 12.3625C5.38898 12.3625 5.35982 12.4358 6.34562 9.73642C5.77042 9.65119 5.20093 9.53108 4.6403 9.37678C4.61774 9.37678 4.61774 9.3319 4.66274 9.3319C6.17366 9.61522 5.97374 9.61078 7.87238 9.8479C8.51317 9.92196 9.15765 9.95938 9.8027 9.95998C9.89267 9.79186 9.95353 9.60973 9.9827 9.4213C10.0162 9.22069 10.0387 9.01838 10.05 8.8153C9.51602 8.66314 8.42762 8.58202 6.57062 7.9627ZM7.80506 7.2445C7.80506 7.22206 7.84994 7.2445 7.84994 7.26694C7.75262 7.49687 7.68476 7.73819 7.64798 7.98514C7.64798 8.02318 7.55822 8.1265 7.55822 7.98514C7.59262 7.7248 7.6764 7.47342 7.80506 7.2445ZM4.41602 7.71598C4.31999 7.91342 4.25908 8.12608 4.23602 8.34442C4.23602 8.36686 4.21358 8.36686 4.21358 8.34442C4.23328 8.12086 4.28622 7.90148 4.37066 7.69354C4.41824 7.58913 4.47871 7.49108 4.55066 7.4017C4.60705 7.31269 4.68205 7.23696 4.7705 7.1797C4.77336 7.18601 4.77495 7.19282 4.77518 7.19974C4.63068 7.35319 4.50965 7.52715 4.41602 7.71598Z" fill="#38A1FF"/>
<path d="M16.4687 6.79266C16.5199 6.72342 16.4687 6.68538 16.4687 6.63834C16.4457 6.58062 16.4306 6.52008 16.4238 6.45834C16.423 6.44788 16.4189 6.43794 16.4121 6.42999C16.4052 6.42204 16.396 6.4165 16.3857 6.41418C16.4047 6.49098 16.4472 6.6849 16.4687 6.79266Z" fill="#38A1FF"/>
<path d="M15.6161 10.7909C15.6386 10.8358 15.7283 10.8582 15.7283 10.7909C15.8096 10.4252 16.0726 9.94503 16.1548 9.53403C16.183 9.13923 16.1772 8.97711 16.1772 7.08735C16.2509 7.01383 16.3246 6.94019 16.3982 6.86643C16.3514 6.71399 16.3157 6.55839 16.2912 6.40083C16.2235 6.38381 16.1522 6.38842 16.0872 6.41403C16.0408 6.49973 16.0032 6.58996 15.975 6.68331C15.975 6.70575 15.975 6.72831 15.9975 6.72831C16.0126 6.84925 16.0351 6.96915 16.0648 7.08735C15.9656 7.28571 15.2874 9.08259 15.2343 9.24219C15.1863 9.48219 15.3342 9.61779 15.3914 9.96051C15.4815 10.2298 15.5488 10.5216 15.6161 10.7909Z" fill="#38A1FF"/>
</svg>
