<svg width="24" height="24" viewBox="0 0 24 24" fill="none" xmlns="http://www.w3.org/2000/svg">
<path d="M13.9303 2.19725C13.489 2.03347 13.0625 1.83234 12.6553 1.59607C12.2431 1.82072 11.8191 2.02291 11.385 2.20179L11.3873 2.75103C11.3894 3.51328 11.9044 4.37487 12.6666 4.67014C13.447 4.364 13.9371 3.48605 13.9348 2.74422L13.9303 2.19725Z" fill="#FECFC4"/>
<path d="M12.635 10.691C12.4538 10.691 12.2766 10.7448 12.1258 10.8455C11.9751 10.9462 11.8576 11.0893 11.7883 11.2568C11.7189 11.4243 11.7008 11.6086 11.7361 11.7864C11.7715 11.9641 11.8588 12.1274 11.9869 12.2557C12.1152 12.3838 12.2784 12.4711 12.4562 12.5065C12.6339 12.5419 12.8183 12.5237 12.9857 12.4543C13.1532 12.385 13.2964 12.2675 13.397 12.1168C13.4978 11.966 13.5515 11.7888 13.5515 11.6076C13.5514 11.3645 13.4548 11.1314 13.283 10.9596C13.1112 10.7877 12.8781 10.6911 12.635 10.691Z" fill="#FECFC4"/>
<path d="M14.5451 15.6387L10.7703 15.6546L10.7793 17.2244C10.7787 17.4734 10.8273 17.7199 10.9224 17.95C11.0175 18.1801 11.1571 18.3891 11.3333 18.5649C11.5094 18.7408 11.7187 18.8801 11.9489 18.9748C12.1791 19.0695 12.4259 19.1177 12.6747 19.1167C12.9236 19.1156 13.17 19.0653 13.3993 18.9687C13.6288 18.8721 13.8368 18.731 14.0115 18.5537C14.1862 18.3764 14.3241 18.1662 14.4172 17.9353C14.5103 17.7044 14.5569 17.4575 14.5542 17.2085L14.5451 15.6387Z" fill="#FECFC4"/>
<path d="M5.30747 6.60986C5.25004 6.60986 5.1939 6.62689 5.14614 6.65881C5.09839 6.69071 5.06117 6.73606 5.03919 6.78912C5.01721 6.84218 5.01147 6.90057 5.02267 6.9569C5.03387 7.01322 5.06153 7.06497 5.10214 7.10558C5.14275 7.14619 5.19448 7.17384 5.25082 7.18505C5.30715 7.19625 5.36554 7.19051 5.4186 7.16852C5.47165 7.14654 5.51701 7.10933 5.54891 7.06158C5.58082 7.01382 5.59785 6.95768 5.59785 6.90025C5.59796 6.86209 5.59052 6.82427 5.57597 6.78899C5.56141 6.75371 5.54003 6.72166 5.51304 6.69467C5.48606 6.66768 5.454 6.64629 5.41872 6.63174C5.38345 6.6172 5.34563 6.60976 5.30747 6.60986Z" fill="#6153BD"/>
<path d="M14.064 13.7513C13.1498 12.7372 11.4575 12.9913 10.9221 14.2435C11.0473 14.2716 11.1774 14.2685 11.301 14.2344C11.3658 14.2195 11.4236 14.1827 11.4642 14.13C11.5911 13.953 11.7573 13.8079 11.9497 13.7059C12.1658 13.5907 12.4071 13.5305 12.6521 13.531C12.8971 13.5313 13.1382 13.5922 13.3539 13.7082C13.5496 13.8141 13.7187 13.963 13.8485 14.1436C13.8904 14.1877 13.9439 14.2191 14.0028 14.2344C14.1282 14.2665 14.2596 14.2689 14.3862 14.2413C14.3052 14.0621 14.1965 13.8967 14.064 13.7513Z" fill="#6153BD"/>
<path d="M11.2058 14.8178C11.1994 14.8758 11.1963 14.9341 11.1968 14.9925V15.6526L10.7703 15.6549V15.0083C10.7703 14.9335 10.7748 14.8586 10.7816 14.786C10.9208 14.8168 11.0636 14.8276 11.2058 14.8178Z" fill="#6153BD"/>
<path d="M14.5336 14.7836C14.3977 14.8157 14.2577 14.8277 14.1184 14.8194C14.1229 14.8716 14.1275 14.926 14.1275 14.9805V15.6406L14.5454 15.6384V14.9922C14.5449 14.9218 14.5404 14.8515 14.5336 14.7836Z" fill="#6153BD"/>
<path d="M13.0029 16.6141C13.0028 16.5955 12.9954 16.5777 12.9822 16.5645C12.969 16.5513 12.9512 16.5439 12.9326 16.5438L12.3953 16.5461C12.3767 16.5462 12.3589 16.5536 12.3456 16.5667C12.3325 16.58 12.3251 16.5978 12.325 16.6164L12.3296 17.6895C12.3296 17.7081 12.3371 17.7259 12.3503 17.7391C12.3634 17.7523 12.3812 17.7597 12.3998 17.7598L12.9371 17.7575C12.9557 17.7574 12.9735 17.75 12.9868 17.7369C12.9999 17.7236 13.0073 17.7058 13.0074 17.6872L13.0029 16.6141Z" fill="#6153BD"/>
<path d="M4.17773 9.91732V6.55764C4.17779 6.34948 4.26051 6.14987 4.4077 6.00268C4.55489 5.85548 4.75451 5.77276 4.96267 5.77271H20.3341C20.5422 5.7728 20.7418 5.85553 20.8889 6.00272C21.0362 6.1499 21.1189 6.3495 21.1189 6.55764V9.91505" stroke="#120071" stroke-width="0.12" stroke-linecap="round" stroke-linejoin="round"/>
<path d="M21.1191 12.0975V10.4982" stroke="#120071" stroke-width="0.12" stroke-linecap="round" stroke-linejoin="round"/>
<path d="M21.1191 12.7599V17.61C21.119 17.8182 21.0363 18.0178 20.8891 18.165C20.742 18.3121 20.5424 18.3949 20.3343 18.395H14.1411" stroke="#120071" stroke-width="0.12" stroke-linecap="round" stroke-linejoin="round"/>
<path d="M11.1921 18.395H4.96267C4.75451 18.3949 4.55489 18.3123 4.4077 18.1651C4.26051 18.0179 4.17779 17.8182 4.17773 17.6101V12.7577" stroke="#120071" stroke-width="0.12" stroke-linecap="round" stroke-linejoin="round"/>
<path d="M4.17773 10.5004V12.0838" stroke="#120071" stroke-width="0.12" stroke-linecap="round" stroke-linejoin="round"/>
<path d="M21.1192 8.01868H4.17773" stroke="#120071" stroke-width="0.12" stroke-linecap="round" stroke-linejoin="round"/>
<path d="M5.59785 6.90025C5.59785 6.95768 5.58082 7.01382 5.54891 7.06158C5.51701 7.10933 5.47165 7.14654 5.4186 7.16852C5.36554 7.19051 5.30715 7.19625 5.25082 7.18505C5.19448 7.17384 5.14275 7.14619 5.10214 7.10558C5.06153 7.06497 5.03387 7.01322 5.02267 6.9569C5.01147 6.90057 5.01721 6.84218 5.03919 6.78912C5.06117 6.73606 5.09839 6.69071 5.14614 6.65881C5.1939 6.62689 5.25004 6.60986 5.30747 6.60986C5.34563 6.60976 5.38345 6.6172 5.41872 6.63174C5.454 6.64629 5.48606 6.66768 5.51304 6.69467C5.54003 6.72166 5.56141 6.75371 5.57597 6.78899C5.59052 6.82427 5.59796 6.86209 5.59785 6.90025Z" stroke="#120071" stroke-width="0.12" stroke-linecap="round" stroke-linejoin="round"/>
<path d="M6.47359 6.90025C6.47359 6.95768 6.45655 7.01382 6.42465 7.06158C6.39275 7.10933 6.34739 7.14654 6.29432 7.16852C6.24127 7.19051 6.18289 7.19625 6.12656 7.18505C6.07022 7.17384 6.01849 7.14619 5.97788 7.10558C5.93726 7.06497 5.90961 7.01322 5.89841 6.9569C5.88719 6.90057 5.89295 6.84218 5.91493 6.78912C5.9369 6.73606 5.97413 6.69071 6.02188 6.65881C6.06963 6.62689 6.12577 6.60986 6.18321 6.60986C6.22137 6.60976 6.25918 6.6172 6.29446 6.63174C6.32974 6.64629 6.3618 6.66768 6.38878 6.69467C6.41577 6.72166 6.43715 6.75371 6.45171 6.78899C6.46626 6.82427 6.4737 6.86209 6.47359 6.90025Z" stroke="#120071" stroke-width="0.12" stroke-linecap="round" stroke-linejoin="round"/>
<path d="M7.35127 6.90025C7.35127 6.95769 7.33423 7.01383 7.30233 7.06159C7.27041 7.10934 7.22505 7.14656 7.17199 7.16854C7.11892 7.19051 7.06053 7.19625 7.0042 7.18504C6.94786 7.17383 6.89612 7.14616 6.85552 7.10553C6.81491 7.06491 6.78726 7.01316 6.77607 6.95683C6.76488 6.90048 6.77065 6.8421 6.79264 6.78904C6.81464 6.73599 6.85188 6.69064 6.89965 6.65875C6.94742 6.62686 7.00358 6.60984 7.06101 6.60986C7.09917 6.60976 7.13697 6.6172 7.17224 6.63175C7.20752 6.64631 7.23957 6.66769 7.26654 6.69467C7.29351 6.72167 7.31489 6.75372 7.32943 6.789C7.34397 6.82428 7.3514 6.86209 7.35127 6.90025Z" stroke="#120071" stroke-width="0.12" stroke-linecap="round" stroke-linejoin="round"/>
<path d="M13.9303 2.1953C13.489 2.03151 13.0625 1.83038 12.6553 1.59412C12.2431 1.81877 11.8191 2.02096 11.385 2.19983L11.3873 2.7511C11.3894 3.51335 11.9044 4.37494 12.6666 4.67022C13.447 4.36408 13.9371 3.48613 13.9348 2.7443L13.9303 2.1953Z" stroke="#120071" stroke-width="0.12" stroke-linecap="round" stroke-linejoin="round"/>
<path d="M12.1562 2.86904L12.6644 3.57457L13.1635 2.68982" stroke="#120071" stroke-width="0.12" stroke-linecap="round" stroke-linejoin="round"/>
<path d="M1.39436 13.0685L1.39209 14.543" stroke="#120071" stroke-width="0.12" stroke-linecap="round" stroke-linejoin="round"/>
<path d="M2.1293 13.8057L0.656982 13.8035" stroke="#120071" stroke-width="0.12" stroke-linecap="round" stroke-linejoin="round"/>
<path d="M23.3378 7.97331C23.3469 8.01246 23.344 8.0534 23.3298 8.09096C23.3154 8.12852 23.2904 8.161 23.2577 8.18429C23.2249 8.20757 23.186 8.22062 23.1459 8.22179C23.1057 8.22295 23.0661 8.21218 23.0321 8.19082C22.9981 8.16946 22.9711 8.13849 22.9547 8.10182C22.9383 8.06515 22.9331 8.02444 22.9399 7.98483C22.9466 7.94523 22.965 7.90851 22.9926 7.87934C23.0202 7.85017 23.0559 7.82985 23.095 7.82096C23.1475 7.80906 23.2024 7.81841 23.2479 7.84697C23.2934 7.87553 23.3257 7.92097 23.3378 7.97331Z" stroke="#120071" stroke-width="0.12" stroke-linecap="round" stroke-linejoin="round"/>
<path d="M13.5513 11.6074C13.5513 11.7887 13.4976 11.9659 13.3968 12.1167C13.2961 12.2674 13.153 12.3848 12.9855 12.4542C12.8181 12.5236 12.6337 12.5417 12.4559 12.5064C12.2781 12.4709 12.1149 12.3837 11.9867 12.2555C11.8585 12.1273 11.7712 11.964 11.7359 11.7862C11.7005 11.6084 11.7187 11.4242 11.788 11.2567C11.8574 11.0892 11.9749 10.9461 12.1255 10.8454C12.2763 10.7447 12.4535 10.6909 12.6348 10.6909C12.8779 10.691 13.1109 10.7876 13.2828 10.9595C13.4546 11.1313 13.5512 11.3644 13.5513 11.6074Z" stroke="#120071" stroke-width="0.12" stroke-linecap="round" stroke-linejoin="round"/>
<path d="M14.7424 14.7198C14.9735 15.0289 15.157 15.3706 15.2869 15.7339" stroke="#120071" stroke-width="0.12" stroke-linecap="round" stroke-linejoin="round"/>
<path d="M9.98291 15.734C10.1085 15.3649 10.289 15.017 10.5183 14.7018" stroke="#120071" stroke-width="0.12" stroke-linecap="round" stroke-linejoin="round"/>
<path d="M10.7771 17.0293C10.1855 16.718 9.68037 16.2649 9.30667 15.7108C8.93297 15.1565 8.70237 14.5183 8.6355 13.8533" stroke="#120071" stroke-width="0.12" stroke-linecap="round" stroke-linejoin="round"/>
<path d="M16.6841 13.8397C16.6198 14.505 16.3916 15.1439 16.0198 15.6994C15.6481 16.2548 15.1445 16.7094 14.554 17.0224" stroke="#120071" stroke-width="0.12" stroke-linecap="round" stroke-linejoin="round"/>
<path d="M8.88501 11.9976C9.17852 11.2359 9.69564 10.5808 10.3684 10.1184C11.0412 9.65606 11.8381 9.40809 12.6545 9.40711C13.4708 9.40613 14.2683 9.65218 14.9422 10.1129C15.6161 10.5737 16.1347 11.2275 16.4301 11.9886" stroke="#120071" stroke-width="0.12" stroke-linecap="round" stroke-linejoin="round"/>
<path d="M14.5451 15.6387L10.7703 15.6546L10.7793 17.2244C10.7787 17.4734 10.8273 17.7199 10.9224 17.95C11.0175 18.1801 11.1571 18.3891 11.3333 18.5649C11.5094 18.7408 11.7187 18.8801 11.9489 18.9748C12.1791 19.0695 12.4259 19.1177 12.6747 19.1167C12.9236 19.1156 13.17 19.0653 13.3993 18.9687C13.6288 18.8721 13.8368 18.731 14.0115 18.5537C14.1862 18.3764 14.3241 18.1662 14.4172 17.9353C14.5103 17.7044 14.5569 17.4575 14.5542 17.2085L14.5451 15.6387Z" stroke="#120071" stroke-width="0.12" stroke-linecap="round" stroke-linejoin="round"/>
<path d="M10.9221 14.2434C11.0726 13.8967 11.3251 13.6039 11.6461 13.4043C11.9671 13.2047 12.3413 13.1075 12.7189 13.1259C13.0732 13.1376 13.4172 13.2482 13.7118 13.4454C14.0065 13.6425 14.2401 13.9181 14.3862 14.2412" stroke="#120071" stroke-width="0.12" stroke-linecap="round" stroke-linejoin="round"/>
<path d="M13.8485 14.1438C13.7128 13.9551 13.5343 13.8012 13.3277 13.6947C13.1212 13.5881 12.8924 13.5319 12.6599 13.5305C12.4274 13.5292 12.1981 13.5828 11.9903 13.6871C11.7825 13.7913 11.6023 13.9431 11.4644 14.1302" stroke="#120071" stroke-width="0.12" stroke-linecap="round" stroke-linejoin="round"/>
<path d="M11.2058 14.8178C11.1994 14.8758 11.1963 14.9341 11.1968 14.9925V15.6526L10.7703 15.6549V15.0083C10.7703 14.9335 10.7748 14.8586 10.7816 14.786" stroke="#120071" stroke-width="0.12" stroke-linecap="round" stroke-linejoin="round"/>
<path d="M14.5336 14.7834C14.5404 14.8515 14.5449 14.9218 14.5449 14.9922V15.6387L14.127 15.641V14.9808C14.127 14.9264 14.1225 14.8719 14.1179 14.8197" stroke="#120071" stroke-width="0.12" stroke-linecap="round" stroke-linejoin="round"/>
<path d="M13.0047 17.6872L13.0024 16.6165C13.0023 16.5978 12.9949 16.5801 12.9818 16.5668C12.9685 16.5537 12.9507 16.5463 12.9321 16.5461L12.3948 16.5484C12.3762 16.5485 12.3584 16.5559 12.3451 16.5691C12.332 16.5823 12.3246 16.6001 12.3245 16.6187L12.3291 17.6895C12.3292 17.7081 12.3366 17.7259 12.3498 17.7392C12.3629 17.7523 12.3807 17.7597 12.3993 17.7598L12.9347 17.7576C12.9532 17.7573 12.971 17.7499 12.9841 17.7368C12.9972 17.7235 13.0046 17.7058 13.0047 17.6872Z" stroke="#120071" stroke-width="0.12" stroke-linecap="round" stroke-linejoin="round"/>
<path d="M6.12872 12.9278C5.16683 13.3271 3.85785 12.8416 3.31339 11.9682C2.77131 11.1016 3.15459 10.1624 4.14823 9.92193C5.17137 9.67478 6.46674 10.2713 6.85014 11.2513C6.921 11.4302 6.95496 11.6216 6.94995 11.8139C6.93909 12.1151 6.81515 12.401 6.60286 12.6148" stroke="#120071" stroke-width="0.12" stroke-linecap="round" stroke-linejoin="round"/>
<path d="M6.3166 12.068L6.34836 11.9931C6.38185 11.8901 6.39349 11.7812 6.38255 11.6734C6.37162 11.5656 6.33834 11.4612 6.28484 11.367C6.0058 10.8112 5.29119 10.4301 4.63556 10.4301C4.18411 10.4301 3.80299 10.607 3.67368 10.9246C3.47679 11.4078 3.92143 12.0634 4.645 12.3581C5.0142 12.5178 5.42649 12.5482 5.81512 12.4443" stroke="#120071" stroke-width="0.12" stroke-linecap="round" stroke-linejoin="round"/>
<path d="M6.8501 11.2559C7.69784 11.2264 8.82593 11.7187 9.27511 12.4424C9.51523 12.8292 9.52382 13.2782 9.1821 13.5767" stroke="#120071" stroke-width="0.12" stroke-linecap="round" stroke-linejoin="round"/>
<path d="M8.84638 13.1138L8.8736 13.073C8.92805 12.9391 8.81916 12.7304 8.66036 12.558C8.26335 12.1247 7.52379 11.823 6.94995 11.8162" stroke="#120071" stroke-width="0.12" stroke-linecap="round" stroke-linejoin="round"/>
<path d="M8.60816 13.8267C7.75517 13.9742 6.61645 13.5114 6.06972 12.8626C5.52669 12.2168 5.73444 11.5952 6.2875 11.3676" stroke="#120071" stroke-width="0.12" stroke-linecap="round" stroke-linejoin="round"/>
<path d="M6.31654 12.068C6.25302 12.4039 6.80787 12.8148 7.11103 12.9764C7.47513 13.1757 7.88191 13.2843 8.29691 13.293" stroke="#120071" stroke-width="0.12" stroke-linecap="round" stroke-linejoin="round"/>
<path d="M9.27515 12.4401C9.78772 12.4722 10.272 12.6861 10.6408 13.0435C10.8231 13.2176 10.9325 13.4544 10.9471 13.7059C10.9477 13.7963 10.929 13.8858 10.8923 13.9684C10.8556 14.051 10.8018 14.1248 10.7343 14.185" stroke="#120071" stroke-width="0.12" stroke-linecap="round" stroke-linejoin="round"/>
<path d="M10.3551 13.774C10.373 13.7592 10.3844 13.7381 10.3869 13.7151C10.3937 13.6195 10.2803 13.436 10.0398 13.2733C9.86081 13.1539 9.66057 13.0699 9.44995 13.026" stroke="#120071" stroke-width="0.12" stroke-linecap="round" stroke-linejoin="round"/>
<path d="M10.0783 14.4137C9.80277 14.4168 9.52949 14.3635 9.27526 14.2571C8.83742 14.078 8.38823 13.7332 8.29748 13.2931C8.26503 13.1475 8.28306 12.9952 8.34861 12.8612C8.41416 12.7272 8.52334 12.6195 8.6582 12.5558" stroke="#120071" stroke-width="0.12" stroke-linecap="round" stroke-linejoin="round"/>
<path d="M8.8464 13.1138C8.81237 13.1954 8.92126 13.3973 9.17988 13.5743C9.36413 13.6992 9.57169 13.7856 9.79013 13.8284" stroke="#120071" stroke-width="0.12" stroke-linecap="round" stroke-linejoin="round"/>
<path d="M10.0374 13.2726C9.53999 13.6944 9.81735 14.4875 10.6487 14.75C11.5734 15.0421 12.3168 14.4015 11.9502 13.7036" stroke="#120071" stroke-width="0.12" stroke-linecap="round" stroke-linejoin="round"/>
<path d="M11.4643 14.1301C11.3807 14.272 11.0655 14.2883 10.8411 14.224C10.6231 14.1614 10.3158 13.9527 10.3526 13.7739C10.3579 13.7519 10.3688 13.7316 10.3844 13.715" stroke="#120071" stroke-width="0.12" stroke-linecap="round" stroke-linejoin="round"/>
<path d="M10.6409 13.0457C11.0194 13.0245 11.3922 13.145 11.6866 13.3838" stroke="#120071" stroke-width="0.12" stroke-linecap="round" stroke-linejoin="round"/>
<path d="M11.2375 13.749C11.1469 13.6922 11.0471 13.6516 10.9426 13.6288" stroke="#120071" stroke-width="0.12" stroke-linecap="round" stroke-linejoin="round"/>
<path d="M19.1751 12.9278C20.137 13.3271 21.4459 12.8416 21.9903 11.9682C22.5325 11.1016 22.1491 10.1624 21.1555 9.92193C20.1323 9.67477 18.8371 10.2714 18.4537 11.2513C18.2479 11.7917 18.3733 12.2835 18.701 12.6148" stroke="#120071" stroke-width="0.12" stroke-linecap="round" stroke-linejoin="round"/>
<path d="M18.989 12.068C18.9359 11.9577 18.9108 11.8361 18.9159 11.7138C18.9211 11.5915 18.9563 11.4724 19.0185 11.367C19.2975 10.8112 20.0121 10.4301 20.6677 10.4301C22.0596 10.4301 21.958 11.8288 20.6586 12.3584C20.2894 12.518 19.8771 12.5484 19.4885 12.4446" stroke="#120071" stroke-width="0.12" stroke-linecap="round" stroke-linejoin="round"/>
<path d="M18.4536 11.2559C17.6051 11.2264 16.4776 11.7187 16.0286 12.4424C15.7492 12.8925 15.8292 13.3206 16.1206 13.5758" stroke="#120071" stroke-width="0.12" stroke-linecap="round" stroke-linejoin="round"/>
<path d="M16.4572 13.1138C16.3531 12.9339 16.5023 12.7109 16.6432 12.558C17.0402 12.1247 17.7798 11.823 18.3537 11.8162" stroke="#120071" stroke-width="0.12" stroke-linecap="round" stroke-linejoin="round"/>
<path d="M17.0063 13.293C17.6342 13.2766 18.2352 13.036 18.701 12.6147C18.8621 12.4582 19.0186 12.2359 18.9868 12.068" stroke="#120071" stroke-width="0.12" stroke-linecap="round" stroke-linejoin="round"/>
<path d="M19.0163 11.3672C19.1228 11.4069 19.2201 11.4677 19.3024 11.5461C19.3847 11.6245 19.4502 11.7187 19.495 11.8232C19.6425 12.1839 19.4859 12.5627 19.2341 12.862C18.6874 13.5108 17.5486 13.9736 16.6956 13.8261" stroke="#120071" stroke-width="0.12" stroke-linecap="round" stroke-linejoin="round"/>
<path d="M14.9491 13.774C14.94 13.7669 14.9325 13.758 14.927 13.7479C14.9216 13.7377 14.9183 13.7265 14.9173 13.715C14.9054 13.5505 15.2464 13.1539 15.8566 13.0248" stroke="#120071" stroke-width="0.12" stroke-linecap="round" stroke-linejoin="round"/>
<path d="M16.0301 12.4399C15.517 12.4717 15.0321 12.6858 14.663 13.0435C14.4808 13.2176 14.3713 13.4544 14.3567 13.7059C14.3562 13.7963 14.375 13.8856 14.4117 13.9681C14.4485 14.0506 14.5025 14.1244 14.5699 14.1845" stroke="#120071" stroke-width="0.12" stroke-linecap="round" stroke-linejoin="round"/>
<path d="M15.2256 14.4137C16.0765 14.4282 16.891 13.8525 17.0063 13.2931C17.0388 13.1475 17.0208 12.9952 16.9552 12.8612C16.8897 12.7272 16.7805 12.6195 16.6456 12.5558" stroke="#120071" stroke-width="0.12" stroke-linecap="round" stroke-linejoin="round"/>
<path d="M16.4574 13.1138C16.5347 13.2991 16.0667 13.7235 15.5142 13.8284" stroke="#120071" stroke-width="0.12" stroke-linecap="round" stroke-linejoin="round"/>
<path d="M14.9194 13.715C14.9349 13.7316 14.9459 13.7519 14.9512 13.7739C14.987 13.9477 14.7052 14.1413 14.5156 14.2076C14.3194 14.2761 13.9654 14.2929 13.8486 14.1437" stroke="#120071" stroke-width="0.12" stroke-linecap="round" stroke-linejoin="round"/>
<path d="M15.2665 13.2726C15.3477 13.3403 15.4122 13.426 15.4547 13.5228C15.4972 13.6197 15.5166 13.725 15.5115 13.8307C15.4911 14.2714 15.0888 14.6048 14.6776 14.7431C13.9907 14.9739 13.2588 14.6758 13.2588 14.0643C13.2608 13.9393 13.2926 13.8164 13.3514 13.7061" stroke="#120071" stroke-width="0.12" stroke-linecap="round" stroke-linejoin="round"/>
<path d="M14.6626 13.0435C14.283 13.0224 13.9092 13.1437 13.6145 13.3838" stroke="#120071" stroke-width="0.12" stroke-linecap="round" stroke-linejoin="round"/>
<path d="M14.064 13.7491C14.1558 13.6925 14.2561 13.6511 14.3612 13.6266" stroke="#120071" stroke-width="0.12" stroke-linecap="round" stroke-linejoin="round"/>
<path d="M16.158 20.4094V20.9219" stroke="#120071" stroke-width="0.12" stroke-linecap="round" stroke-linejoin="round"/>
<path d="M17.155 21.4064H16.6426" stroke="#120071" stroke-width="0.12" stroke-linecap="round" stroke-linejoin="round"/>
<path d="M16.158 22.4035V21.891" stroke="#120071" stroke-width="0.12" stroke-linecap="round" stroke-linejoin="round"/>
<path d="M15.1609 21.4064H15.6736" stroke="#120071" stroke-width="0.12" stroke-linecap="round" stroke-linejoin="round"/>
<path d="M16.6425 21.4064C16.5789 21.4065 16.5158 21.394 16.457 21.3697C16.3981 21.3454 16.3446 21.3097 16.2996 21.2647C16.2546 21.2197 16.2189 21.1663 16.1946 21.1074C16.1703 21.0486 16.1578 20.9855 16.1579 20.9219C16.158 20.9855 16.1456 21.0486 16.1212 21.1074C16.097 21.1662 16.0613 21.2197 16.0163 21.2647C15.9712 21.3097 15.9179 21.3454 15.859 21.3696C15.8003 21.394 15.7372 21.4065 15.6736 21.4064C15.7372 21.4063 15.8003 21.4188 15.859 21.4432C15.9179 21.4675 15.9712 21.5032 16.0163 21.5482C16.0613 21.5933 16.097 21.6468 16.1212 21.7055C16.1456 21.7644 16.158 21.8274 16.1579 21.891C16.1578 21.8274 16.1703 21.7644 16.1946 21.7055C16.2189 21.6466 16.2546 21.5931 16.2996 21.5481C16.3446 21.5031 16.3981 21.4674 16.457 21.4432C16.5158 21.4188 16.5789 21.4063 16.6425 21.4064Z" stroke="#120071" stroke-width="0.12" stroke-linecap="round" stroke-linejoin="round"/>
</svg>
