<svg width="36" height="10" viewBox="0 0 36 10" fill="none" xmlns="http://www.w3.org/2000/svg">
<path d="M1 1H35V9H1L5 5L1 1Z" fill="#B39342" stroke="white" stroke-width="0.5"/>
<path d="M9.39258 6V3.14453H9.72461V5.69922H10.9844V6H9.39258ZM11.7461 6H11.4219V3.85938H11.7461V6ZM11.3945 3.2793C11.3945 3.20508 11.4128 3.15104 11.4492 3.11719C11.4857 3.08203 11.5312 3.06445 11.5859 3.06445C11.638 3.06445 11.6829 3.08203 11.7207 3.11719C11.7585 3.15234 11.7773 3.20638 11.7773 3.2793C11.7773 3.35221 11.7585 3.4069 11.7207 3.44336C11.6829 3.47852 11.638 3.49609 11.5859 3.49609C11.5312 3.49609 11.4857 3.47852 11.4492 3.44336C11.4128 3.4069 11.3945 3.35221 11.3945 3.2793ZM13.8145 5.41602C13.8145 5.61523 13.7402 5.76888 13.5918 5.87695C13.4434 5.98503 13.235 6.03906 12.9668 6.03906C12.6829 6.03906 12.4616 5.99414 12.3027 5.9043V5.60352C12.4056 5.6556 12.5156 5.69661 12.6328 5.72656C12.7513 5.75651 12.8652 5.77148 12.9746 5.77148C13.1439 5.77148 13.2741 5.74479 13.3652 5.69141C13.4564 5.63672 13.502 5.55404 13.502 5.44336C13.502 5.36003 13.4655 5.28906 13.3926 5.23047C13.321 5.17057 13.1803 5.10026 12.9707 5.01953C12.7715 4.94531 12.6296 4.88086 12.5449 4.82617C12.4616 4.77018 12.3991 4.70703 12.3574 4.63672C12.3171 4.56641 12.2969 4.48242 12.2969 4.38477C12.2969 4.21029 12.3678 4.07292 12.5098 3.97266C12.6517 3.87109 12.8464 3.82031 13.0938 3.82031C13.3242 3.82031 13.5495 3.86719 13.7695 3.96094L13.6543 4.22461C13.4395 4.13607 13.2448 4.0918 13.0703 4.0918C12.9167 4.0918 12.8008 4.11589 12.7227 4.16406C12.6445 4.21224 12.6055 4.27865 12.6055 4.36328C12.6055 4.42057 12.6198 4.4694 12.6484 4.50977C12.6784 4.55013 12.7259 4.58854 12.791 4.625C12.8561 4.66146 12.9811 4.71419 13.166 4.7832C13.4199 4.87565 13.5911 4.96875 13.6797 5.0625C13.7695 5.15625 13.8145 5.27409 13.8145 5.41602ZM15.0352 5.77148C15.0924 5.77148 15.1478 5.76758 15.2012 5.75977C15.2546 5.75065 15.2969 5.74154 15.3281 5.73242V5.98047C15.293 5.9974 15.2409 6.01107 15.1719 6.02148C15.1042 6.0332 15.043 6.03906 14.9883 6.03906C14.5742 6.03906 14.3672 5.82096 14.3672 5.38477V4.11133H14.0605V3.95508L14.3672 3.82031L14.5039 3.36328H14.6914V3.85938H15.3125V4.11133H14.6914V5.37109C14.6914 5.5 14.722 5.59896 14.7832 5.66797C14.8444 5.73698 14.9284 5.77148 15.0352 5.77148ZM18.5449 6L18.1523 4.74414C18.1276 4.66732 18.0814 4.49284 18.0137 4.2207H17.998C17.946 4.44857 17.9004 4.62435 17.8613 4.74805L17.457 6H17.082L16.498 3.85938H16.8379C16.9759 4.39714 17.0807 4.80664 17.1523 5.08789C17.2253 5.36914 17.2669 5.55859 17.2773 5.65625H17.293C17.3073 5.58203 17.3301 5.48633 17.3613 5.36914C17.3939 5.25065 17.4219 5.1569 17.4453 5.08789L17.8379 3.85938H18.1895L18.5723 5.08789C18.6452 5.31185 18.6947 5.5 18.7207 5.65234H18.7363C18.7415 5.60547 18.7552 5.5332 18.7773 5.43555C18.8008 5.33789 18.9368 4.8125 19.1855 3.85938H19.5215L18.9297 6H18.5449ZM20.2344 6H19.9102V3.85938H20.2344V6ZM19.8828 3.2793C19.8828 3.20508 19.901 3.15104 19.9375 3.11719C19.974 3.08203 20.0195 3.06445 20.0742 3.06445C20.1263 3.06445 20.1712 3.08203 20.209 3.11719C20.2467 3.15234 20.2656 3.20638 20.2656 3.2793C20.2656 3.35221 20.2467 3.4069 20.209 3.44336C20.1712 3.47852 20.1263 3.49609 20.0742 3.49609C20.0195 3.49609 19.974 3.47852 19.9375 3.44336C19.901 3.4069 19.8828 3.35221 19.8828 3.2793ZM21.6133 5.77148C21.6706 5.77148 21.7259 5.76758 21.7793 5.75977C21.8327 5.75065 21.875 5.74154 21.9062 5.73242V5.98047C21.8711 5.9974 21.819 6.01107 21.75 6.02148C21.6823 6.0332 21.6211 6.03906 21.5664 6.03906C21.1523 6.03906 20.9453 5.82096 20.9453 5.38477V4.11133H20.6387V3.95508L20.9453 3.82031L21.082 3.36328H21.2695V3.85938H21.8906V4.11133H21.2695V5.37109C21.2695 5.5 21.3001 5.59896 21.3613 5.66797C21.4225 5.73698 21.5065 5.77148 21.6133 5.77148ZM23.8008 6V4.61523C23.8008 4.44076 23.7611 4.31055 23.6816 4.22461C23.6022 4.13867 23.4779 4.0957 23.3086 4.0957C23.0833 4.0957 22.9186 4.1569 22.8145 4.2793C22.7116 4.40169 22.6602 4.60221 22.6602 4.88086V6H22.3359V2.96094H22.6602V3.88086C22.6602 3.99154 22.6549 4.08333 22.6445 4.15625H22.6641C22.7279 4.05339 22.8184 3.97266 22.9355 3.91406C23.054 3.85417 23.1888 3.82422 23.3398 3.82422C23.6016 3.82422 23.7975 3.88672 23.9277 4.01172C24.0592 4.13542 24.125 4.33268 24.125 4.60352V6H23.8008ZM26.1367 3.85938V5.24805C26.1367 5.42253 26.1764 5.55273 26.2559 5.63867C26.3353 5.72461 26.4596 5.76758 26.6289 5.76758C26.8529 5.76758 27.0163 5.70638 27.1191 5.58398C27.2233 5.46159 27.2754 5.26172 27.2754 4.98438V3.85938H27.5996V6H27.332L27.2852 5.71289H27.2676C27.2012 5.81836 27.1087 5.89909 26.9902 5.95508C26.873 6.01107 26.7389 6.03906 26.5879 6.03906C26.3275 6.03906 26.1322 5.97721 26.002 5.85352C25.873 5.72982 25.8086 5.5319 25.8086 5.25977V3.85938H26.1367ZM29.6699 5.41602C29.6699 5.61523 29.5957 5.76888 29.4473 5.87695C29.2988 5.98503 29.0905 6.03906 28.8223 6.03906C28.5384 6.03906 28.3171 5.99414 28.1582 5.9043V5.60352C28.2611 5.6556 28.3711 5.69661 28.4883 5.72656C28.6068 5.75651 28.7207 5.77148 28.8301 5.77148C28.9993 5.77148 29.1296 5.74479 29.2207 5.69141C29.3118 5.63672 29.3574 5.55404 29.3574 5.44336C29.3574 5.36003 29.321 5.28906 29.248 5.23047C29.1764 5.17057 29.0358 5.10026 28.8262 5.01953C28.627 4.94531 28.485 4.88086 28.4004 4.82617C28.3171 4.77018 28.2546 4.70703 28.2129 4.63672C28.1725 4.56641 28.1523 4.48242 28.1523 4.38477C28.1523 4.21029 28.2233 4.07292 28.3652 3.97266C28.5072 3.87109 28.7018 3.82031 28.9492 3.82031C29.1797 3.82031 29.4049 3.86719 29.625 3.96094L29.5098 4.22461C29.2949 4.13607 29.1003 4.0918 28.9258 4.0918C28.7721 4.0918 28.6562 4.11589 28.5781 4.16406C28.5 4.21224 28.4609 4.27865 28.4609 4.36328C28.4609 4.42057 28.4753 4.4694 28.5039 4.50977C28.5339 4.55013 28.5814 4.58854 28.6465 4.625C28.7116 4.66146 28.8366 4.71419 29.0215 4.7832C29.2754 4.87565 29.4466 4.96875 29.5352 5.0625C29.625 5.15625 29.6699 5.27409 29.6699 5.41602Z" fill="white"/>
</svg>
