<svg width="85" height="81" viewBox="0 0 85 81" fill="none" xmlns="http://www.w3.org/2000/svg">
<g filter="url(#filter0_d_62_2054)">
<path d="M5 16.5V54.8583C5 57.1465 5 58.2906 5.74407 58.7247C6.48813 59.1589 7.48415 58.5959 9.47617 57.47L14.9762 54.3613C15.7195 53.9411 16.0912 53.7311 16.2956 53.3807C16.5 53.0304 16.5 52.6035 16.5 51.7496V39.5421C16.5 37.2928 16.5 36.1681 17.233 35.732C17.966 35.2958 18.9544 35.8324 20.9313 36.9056L29.5687 41.5945C31.5456 42.6676 32.534 43.2042 33.267 42.768C34 42.3319 34 41.2072 34 38.9579V30.652C34 29.8442 34 29.4403 33.814 29.1024C33.6279 28.7646 33.2866 28.5487 32.6039 28.1168L10.2346 13.9648L10.2346 13.9648C9.86978 13.7339 9.68736 13.6185 9.48283 13.5593C9.2783 13.5 9.06243 13.5 8.6307 13.5H8C6.58579 13.5 5.87868 13.5 5.43934 13.9393C5 14.3787 5 15.0858 5 16.5Z" fill="url(#paint0_linear_62_2054)" shape-rendering="crispEdges"/>
<path d="M68.1106 58.3841L52.1106 68.566C50.0745 69.8617 49.0564 70.5096 48.2782 70.0824C47.5 69.6552 47.5 68.4485 47.5 66.035V33.6196C47.5 32.827 47.5 32.4307 47.6801 32.0972C47.8601 31.7637 48.1914 31.5463 48.854 31.1114L48.854 31.1114L74.854 14.0489C76.9014 12.7053 77.9251 12.0335 78.7126 12.4586C79.5 12.8837 79.5 14.1081 79.5 16.5571V23.8501C79.5 24.6569 79.5 25.0603 79.3143 25.3979C79.1287 25.7355 78.788 25.9515 78.1066 26.3836L60.3934 37.6164C59.712 38.0485 59.3713 38.2645 59.1857 38.6021C59 38.9397 59 39.3431 59 40.1499V42.3944C59 44.862 59 46.0958 59.7922 46.5197C60.5844 46.9437 61.611 46.2593 63.6641 44.8906L64.8359 44.1094C66.889 42.7407 67.9156 42.0563 68.7078 42.4803C69.5 42.9042 69.5 44.138 69.5 46.6055V55.8532C69.5 56.6585 69.5 57.0612 69.3149 57.3984C69.1298 57.7356 68.7901 57.9518 68.1106 58.3841Z" fill="url(#paint1_linear_62_2054)" shape-rendering="crispEdges"/>
<path d="M56 13.6056V19.4197C56 21.4869 56 22.5205 55.3219 22.9646C54.6437 23.4088 53.6962 22.9958 51.8012 22.1698L38.3012 16.2852C37.4273 15.9042 36.9904 15.7138 36.7452 15.3394C36.5 14.965 36.5 14.4884 36.5 13.5351V4.60555C36.5 2.13801 36.5 0.904243 37.2922 0.480264C38.0844 0.0562842 39.111 0.740656 41.1641 2.1094L54.6641 11.1094C55.3181 11.5454 55.645 11.7633 55.8225 12.095C56 12.4266 56 12.8196 56 13.6056Z" fill="url(#paint2_linear_62_2054)" shape-rendering="crispEdges"/>
</g>
<defs>
<filter id="filter0_d_62_2054" x="0" y="0.355469" width="84.5" height="79.8578" filterUnits="userSpaceOnUse" color-interpolation-filters="sRGB">
<feFlood flood-opacity="0" result="BackgroundImageFix"/>
<feColorMatrix in="SourceAlpha" type="matrix" values="0 0 0 0 0 0 0 0 0 0 0 0 0 0 0 0 0 0 127 0" result="hardAlpha"/>
<feOffset dy="5"/>
<feGaussianBlur stdDeviation="2.5"/>
<feComposite in2="hardAlpha" operator="out"/>
<feColorMatrix type="matrix" values="0 0 0 0 0.945 0 0 0 0 0.92295 0 0 0 0 0.92295 0 0 0 0.17 0"/>
<feBlend mode="normal" in2="BackgroundImageFix" result="effect1_dropShadow_62_2054"/>
<feBlend mode="normal" in="SourceGraphic" in2="effect1_dropShadow_62_2054" result="shape"/>
</filter>
<linearGradient id="paint0_linear_62_2054" x1="42.25" y1="-1" x2="42.25" y2="71.5" gradientUnits="userSpaceOnUse">
<stop stop-color="white"/>
<stop offset="0.0001" stop-color="white" stop-opacity="0.56"/>
<stop offset="0.91" stop-color="#2F2F2F"/>
</linearGradient>
<linearGradient id="paint1_linear_62_2054" x1="42.25" y1="-1" x2="42.25" y2="71.5" gradientUnits="userSpaceOnUse">
<stop stop-color="white"/>
<stop offset="0.0001" stop-color="white" stop-opacity="0.56"/>
<stop offset="0.91" stop-color="#2F2F2F"/>
</linearGradient>
<linearGradient id="paint2_linear_62_2054" x1="42.25" y1="-1" x2="42.25" y2="71.5" gradientUnits="userSpaceOnUse">
<stop stop-color="white"/>
<stop offset="0.0001" stop-color="white" stop-opacity="0.56"/>
<stop offset="0.91" stop-color="#2F2F2F"/>
</linearGradient>
</defs>
</svg>
