<svg width="38" height="34" viewBox="0 0 38 34" fill="none" xmlns="http://www.w3.org/2000/svg">
<g filter="url(#filter0_d_33_1262)">
<path d="M19 25.9351C27.2843 25.9351 34 20.1293 34 12.9676C34 5.80577 27.2843 0 19 0C10.7157 0 4 5.80577 4 12.9676C4 20.1293 10.7157 25.9351 19 25.9351Z" fill="#0971BD"/>
<path fill-rule="evenodd" clip-rule="evenodd" d="M12 9.28009C12 9.28009 18.0372 12.2397 19.209 12.2397C20.4372 12.2397 26.409 9.33662 26.409 9.33662L26.4186 8.81792C26.4186 8.24527 25.881 7.78052 25.2168 7.78052H13.2012C12.5376 7.78052 12 8.24527 12 8.81792V9.28009ZM26.409 10.8927C26.409 10.8927 20.4936 13.6662 19.209 13.6662C18.0372 13.6662 12.009 10.8927 12.0096 10.8927L12 17.1172C12 17.6898 12.5382 18.1546 13.2012 18.1546H25.2168C25.881 18.1546 26.4186 17.6898 26.4186 17.1172L26.409 10.8927Z" fill="white"/>
</g>
<defs>
<filter id="filter0_d_33_1262" x="0" y="0" width="38" height="33.9351" filterUnits="userSpaceOnUse" color-interpolation-filters="sRGB">
<feFlood flood-opacity="0" result="BackgroundImageFix"/>
<feColorMatrix in="SourceAlpha" type="matrix" values="0 0 0 0 0 0 0 0 0 0 0 0 0 0 0 0 0 0 127 0" result="hardAlpha"/>
<feOffset dy="4"/>
<feGaussianBlur stdDeviation="2"/>
<feComposite in2="hardAlpha" operator="out"/>
<feColorMatrix type="matrix" values="0 0 0 0 0 0 0 0 0 0 0 0 0 0 0 0 0 0 0.25 0"/>
<feBlend mode="normal" in2="BackgroundImageFix" result="effect1_dropShadow_33_1262"/>
<feBlend mode="normal" in="SourceGraphic" in2="effect1_dropShadow_33_1262" result="shape"/>
</filter>
</defs>
</svg>
