<svg width="50" height="50" viewBox="0 0 50 50" fill="none" xmlns="http://www.w3.org/2000/svg">
<path d="M45.8334 13.0209V23.6459C45.8334 26.2917 44.9584 28.5209 43.3959 30.0626C41.8543 31.6251 39.6251 32.5 36.9792 32.5V36.2709C36.9792 37.6875 35.3959 38.5417 34.2292 37.7501L32.2084 36.4167C32.3959 35.7709 32.4792 35.0625 32.4792 34.3125V25.8335C32.4792 21.5835 29.6459 18.7501 25.3959 18.7501H11.2501C10.9584 18.7501 10.6876 18.771 10.4167 18.7918V13.0209C10.4167 7.70842 13.9584 4.16675 19.2709 4.16675H36.9792C42.2917 4.16675 45.8334 7.70842 45.8334 13.0209Z" stroke="white" stroke-width="1.5" stroke-miterlimit="10" stroke-linecap="round" stroke-linejoin="round"/>
<path d="M32.4792 25.8334V34.3124C32.4792 35.0624 32.3959 35.7708 32.2084 36.4166C31.4376 39.4791 28.8959 41.3958 25.3959 41.3958H19.7292L13.4376 45.5833C12.5001 46.2292 11.2501 45.5417 11.2501 44.4167V41.3958C9.12507 41.3958 7.35425 40.6875 6.12509 39.4583C4.87509 38.2083 4.16675 36.4374 4.16675 34.3124V25.8334C4.16675 21.8751 6.62508 19.1459 10.4167 18.7917C10.6876 18.7709 10.9584 18.75 11.2501 18.75H25.3959C29.6459 18.75 32.4792 21.5834 32.4792 25.8334Z" stroke="white" stroke-width="1.5" stroke-miterlimit="10" stroke-linecap="round" stroke-linejoin="round"/>
</svg>
