<svg width="30" height="26" viewBox="0 0 30 26" fill="none" xmlns="http://www.w3.org/2000/svg">
<path d="M0 12.9676C0 5.80577 6.71573 0 15 0C23.2843 0 30 5.80577 30 12.9676C30 20.1293 23.2843 25.9351 15 25.9351C6.71573 25.9351 0 20.1293 0 12.9676Z" fill="#6FD454"/>
<path d="M10.6071 6.51035C10.7893 6.49712 10.9454 6.53549 11.0464 6.67973C11.273 6.9973 11.501 7.31488 11.7169 7.6404C11.9664 8.0162 12.1959 8.40259 12.4408 8.78236C12.5036 8.88425 12.5909 8.97688 12.6643 9.0748C12.7317 9.16742 12.796 9.2627 12.8587 9.35532C12.9873 9.56572 12.9812 9.77744 12.7898 9.94549C12.5174 10.1863 12.2174 10.4099 11.9281 10.6389C11.6862 10.8307 11.4352 11.0147 11.1995 11.2105C11.0158 11.364 10.9684 11.5559 11.0924 11.7583C11.2837 12.068 11.4735 12.3776 11.6832 12.6806C12.4607 13.8014 13.4541 14.7542 14.7093 15.4886C15.1929 15.7731 15.6965 16.0337 16.2047 16.2825C16.6838 16.5167 16.8705 16.477 17.2425 16.1184C17.5884 15.7863 17.9221 15.4489 18.2665 15.1141C18.3491 15.0334 18.4486 14.9619 18.545 14.8931C18.741 14.7502 18.9552 14.7343 19.1802 14.8322C19.243 14.8587 19.3104 14.8825 19.3655 14.9169C19.9624 15.2861 20.6298 15.5468 21.2604 15.8604C21.5987 16.0284 21.9277 16.2084 22.2599 16.3804C22.439 16.4717 22.5109 16.6054 22.4987 16.7893C22.465 17.3067 22.3655 17.8148 22.0181 18.2515C21.8726 18.4328 21.666 18.5916 21.4578 18.7199C20.8808 19.0692 20.2364 19.2849 19.5507 19.4173C18.9277 19.5377 18.3063 19.494 17.7093 19.3326C16.5567 19.0256 15.421 18.6736 14.3756 18.1403C13.4266 17.6547 12.5633 17.0685 11.7643 16.4135C10.7526 15.5812 9.84948 14.6734 9.11936 13.64C8.64334 12.9691 8.30353 12.2466 7.99588 11.5096C7.80914 11.065 7.62546 10.6243 7.54281 10.1532C7.44791 9.61997 7.51372 9.10655 7.71118 8.60107C7.88873 8.14456 8.11067 7.70789 8.44588 7.31753C8.70915 7.01451 9.03824 6.7922 9.46376 6.69296C9.80509 6.61489 10.1495 6.5527 10.4923 6.48389C10.5367 6.51432 10.5719 6.51432 10.6071 6.51035Z" fill="white"/>
</svg>
