<svg width="37" height="50" viewBox="0 0 37 50" fill="none" xmlns="http://www.w3.org/2000/svg">
<path d="M27.6673 28.2483C29.1922 26.0043 29.9982 23.3258 29.9982 20.5024C29.9982 17.0406 28.7816 13.7955 26.5725 11.3647C24.3637 8.93443 21.4363 7.62202 18.334 7.67203C15.3275 7.71952 12.495 9.06582 10.3582 11.4629C8.22156 13.86 7.02983 17.0281 7.00251 20.3836C6.97912 23.2602 7.78982 25.9868 9.34695 28.2688C11.8748 31.9733 13.267 36.511 13.267 41.0461V46.0083C13.267 48.2095 14.8716 50.0002 16.8439 50.0002H20.1711C22.1434 50.0002 23.748 48.2093 23.748 46.0083V41.0464C23.7481 36.4612 25.0936 32.0356 27.6673 28.2483ZM10.5198 27.2721C9.16277 25.2835 8.45625 22.9066 8.47659 20.3986C8.52563 14.3735 12.9569 9.40231 18.3548 9.31709C21.0627 9.27651 23.612 10.4177 25.5374 12.5364C27.4634 14.6554 28.524 17.4846 28.524 20.5025C28.524 22.9639 27.8216 25.2986 26.4927 27.2543C23.7809 31.2449 22.3207 35.9005 22.261 40.737H14.7391C14.6775 35.9475 13.1846 31.1773 10.5198 27.2721ZM14.7412 45.4508V44.7849L22.2739 45.748V46.0083C22.2739 46.1454 22.2612 46.279 22.2409 46.4096L14.7412 45.4508ZM14.7412 43.1289V42.3822H22.2739V44.092L14.7412 43.1289ZM16.8439 48.3551C16.0521 48.3551 15.3617 47.8637 15.0031 47.1402L21.3487 47.9515C21.0124 48.2061 20.6071 48.355 20.1712 48.355H16.8439V48.3551Z" fill="white"/>
<path d="M11.2113 21.7393C11.1538 21.3088 11.1263 20.8666 11.13 20.425C11.1337 19.9708 10.8067 19.5992 10.3997 19.595C9.99535 19.5911 9.65963 19.9557 9.6559 20.41C9.65157 20.9376 9.6843 21.4664 9.75319 21.982C9.80774 22.3903 10.1222 22.6834 10.4813 22.6834C10.5175 22.6834 10.5542 22.6805 10.591 22.6743C10.9936 22.6072 11.2713 22.1887 11.2113 21.7393Z" fill="white"/>
<path d="M15.549 34.2338C15.6253 34.2338 15.7029 34.2205 15.7794 34.1925C16.1661 34.0506 16.3765 33.5856 16.2494 33.1542C15.4325 30.3818 14.215 27.7989 12.6307 25.4774C12.3689 25.0936 12.1369 24.6848 11.9412 24.2622C11.7543 23.8586 11.3096 23.7007 10.9479 23.9093C10.5863 24.1179 10.4447 24.6142 10.6317 25.0178C10.8665 25.5248 11.1445 26.0147 11.458 26.4741C12.9426 28.6497 14.0835 31.0701 14.849 33.668C14.951 34.0143 15.2393 34.2338 15.549 34.2338Z" fill="white"/>
<path d="M26.2449 23.3189C25.8711 23.1392 25.4374 23.3317 25.2764 23.749C25.0429 24.3542 24.7407 24.9314 24.3782 25.4647C24.1322 25.8266 24.1958 26.3426 24.5201 26.6172C24.6533 26.7299 24.8097 26.7843 24.9649 26.7843C25.1877 26.7843 25.4079 26.6721 25.5528 26.4587C25.9871 25.8196 26.3496 25.1268 26.6303 24.3998C26.7913 23.9826 26.6189 23.4986 26.2449 23.3189Z" fill="white"/>
<path d="M18.5001 12.277C22.5641 12.277 25.8704 15.9669 25.8704 20.5023C25.8704 20.7602 25.8598 21.02 25.8389 21.2746C25.8017 21.727 26.1001 22.1273 26.5055 22.1689C26.5284 22.1712 26.5511 22.1724 26.5737 22.1724C26.9504 22.1724 27.2718 21.8518 27.3069 21.4249C27.3318 21.1206 27.3446 20.8102 27.3446 20.5023C27.3446 15.0598 23.377 10.6318 18.5001 10.6318C18.093 10.6318 17.763 11.0001 17.763 11.4544C17.763 11.9087 18.093 12.277 18.5001 12.277Z" fill="white"/>
<path d="M18.5001 6.25165C18.9072 6.25165 19.2372 5.88335 19.2372 5.42906V0.822585C19.2372 0.368299 18.9072 0 18.5001 0C18.093 0 17.763 0.368299 17.763 0.822585V5.42906C17.763 5.88335 18.093 6.25165 18.5001 6.25165Z" fill="white"/>
<path d="M11.0429 7.87679C11.1796 8.14078 11.4272 8.2883 11.682 8.2883C11.807 8.2883 11.9337 8.25276 12.0498 8.17796C12.4023 7.95082 12.5232 7.44773 12.3197 7.05431L10.2568 3.06642C10.0532 2.67289 9.60247 2.5381 9.24995 2.76524C8.89742 2.99239 8.77654 3.49548 8.98007 3.88889L11.0429 7.87679Z" fill="white"/>
<path d="M34.2523 29.8455L30.6789 27.5434C30.3262 27.3161 29.8754 27.451 29.672 27.8445C29.4685 28.238 29.5892 28.7411 29.9419 28.9682L33.5153 31.2703C33.6313 31.3451 33.758 31.3807 33.8831 31.3807C34.1379 31.3807 34.3856 31.233 34.5221 30.9692C34.7257 30.5757 34.6048 30.0727 34.2523 29.8455Z" fill="white"/>
<path d="M2.74801 11.4467L6.32143 13.7489C6.4375 13.8237 6.56418 13.8592 6.68929 13.8592C6.94403 13.8592 7.19179 13.7116 7.3283 13.4477C7.53183 13.0543 7.41105 12.5512 7.05842 12.324L3.48501 10.0219C3.13248 9.79463 2.68168 9.92954 2.47814 10.3231C2.27461 10.7165 2.39539 11.2195 2.74801 11.4467Z" fill="white"/>
<path d="M36.2629 19.8234H32.1352C31.7282 19.8234 31.3981 20.1917 31.3981 20.6459C31.3981 21.1002 31.7282 21.4685 32.1352 21.4685H36.2629C36.67 21.4685 37 21.1002 37 20.6459C37 20.1917 36.6701 19.8234 36.2629 19.8234Z" fill="white"/>
<path d="M5.60189 20.6459C5.60189 20.1917 5.27187 19.8234 4.8648 19.8234H0.737091C0.33002 19.8234 0 20.1917 0 20.6459C0 21.1002 0.33002 21.4685 0.737091 21.4685H4.8648C5.27197 21.4685 5.60189 21.1002 5.60189 20.6459Z" fill="white"/>
<path d="M30.311 13.8592C30.436 13.8592 30.5628 13.8237 30.6788 13.7489L34.2523 11.4468C34.6048 11.2196 34.7257 10.7165 34.5221 10.3231C34.3186 9.92969 33.8677 9.79479 33.5153 10.0219L29.9418 12.3241C29.5893 12.5512 29.4684 13.0543 29.672 13.4477C29.8085 13.7116 30.0563 13.8592 30.311 13.8592Z" fill="white"/>
<path d="M6.32141 27.5433L2.74799 29.8455C2.39547 30.0726 2.27458 30.5757 2.47812 30.9691C2.61463 31.233 2.86239 31.3806 3.11713 31.3806C3.24214 31.3806 3.36892 31.3451 3.48499 31.2703L7.0584 28.9681C7.41093 28.741 7.53181 28.2379 7.32828 27.8445C7.12484 27.451 6.67374 27.3162 6.32141 27.5433Z" fill="white"/>
<path d="M24.9501 8.17796C25.0662 8.25276 25.1929 8.2883 25.318 8.2883C25.5727 8.2883 25.8205 8.14067 25.957 7.87679L28.0199 3.88889C28.2234 3.49548 28.1025 2.99239 27.75 2.76524C27.3976 2.5381 26.9467 2.67289 26.7431 3.06642L24.6803 7.05431C24.4767 7.44773 24.5976 7.95082 24.9501 8.17796Z" fill="white"/>
</svg>
