<svg width="26" height="27" viewBox="0 0 26 27" fill="none" xmlns="http://www.w3.org/2000/svg">
<path d="M18 11.9065C18 12.1718 17.8946 12.4261 17.7071 12.6136C17.5196 12.8012 17.2652 12.9065 17 12.9065H9C8.73478 12.9065 8.48043 12.8012 8.29289 12.6136C8.10536 12.4261 8 12.1718 8 11.9065C8 11.6413 8.10536 11.387 8.29289 11.1994C8.48043 11.0119 8.73478 10.9065 9 10.9065H17C17.2652 10.9065 17.5196 11.0119 17.7071 11.1994C17.8946 11.387 18 11.6413 18 11.9065ZM17 14.9065H9C8.73478 14.9065 8.48043 15.0119 8.29289 15.1994C8.10536 15.387 8 15.6413 8 15.9065C8 16.1718 8.10536 16.4261 8.29289 16.6136C8.48043 16.8012 8.73478 16.9065 9 16.9065H17C17.2652 16.9065 17.5196 16.8012 17.7071 16.6136C17.8946 16.4261 18 16.1718 18 15.9065C18 15.6413 17.8946 15.387 17.7071 15.1994C17.5196 15.0119 17.2652 14.9065 17 14.9065ZM26 13.9065C26.0005 16.1509 25.4199 18.3573 24.3147 20.3107C23.2095 22.2642 21.6174 23.8982 19.6934 25.0538C17.7693 26.2094 15.5788 26.8472 13.3352 26.905C11.0915 26.9629 8.87107 26.4389 6.89 25.384L2.63375 26.8028C2.28136 26.9203 1.9032 26.9374 1.54166 26.852C1.18012 26.7667 0.849484 26.5824 0.586814 26.3197C0.324144 26.057 0.139818 25.7264 0.0544969 25.3649C-0.0308244 25.0033 -0.0137696 24.6252 0.10375 24.2728L1.5225 20.0165C0.595185 18.2731 0.0772463 16.3413 0.00799667 14.3677C-0.061253 12.3942 0.320007 10.4309 1.12284 8.6267C1.92567 6.82253 3.12897 5.22497 4.6414 3.95527C6.15383 2.68558 7.93564 1.77713 9.85158 1.29888C11.7675 0.820625 13.7672 0.785141 15.699 1.19512C17.6307 1.6051 19.4436 2.44976 21.0001 3.665C22.5566 4.88023 23.8158 6.4341 24.6822 8.20865C25.5485 9.9832 25.9992 11.9318 26 13.9065ZM24 13.9065C23.9995 12.2192 23.6109 10.5546 22.8641 9.04146C22.1174 7.52836 21.0325 6.20733 19.6935 5.18057C18.3545 4.15382 16.7973 3.44887 15.1422 3.12027C13.4872 2.79166 11.7787 2.84821 10.149 3.28553C8.51935 3.72285 7.01212 4.52923 5.74394 5.64227C4.47577 6.75532 3.48065 8.14519 2.83558 9.70436C2.1905 11.2635 1.91277 12.9502 2.02387 14.6339C2.13496 16.3176 2.63191 17.9531 3.47625 19.414C3.54712 19.5367 3.59112 19.673 3.60534 19.8139C3.61956 19.9549 3.60368 20.0972 3.55875 20.2315L2 24.9065L6.675 23.3478C6.77683 23.3131 6.88367 23.2953 6.99125 23.2953C7.16688 23.2956 7.33933 23.3422 7.49125 23.4303C9.1635 24.3978 11.0611 24.9078 12.9931 24.9091C14.925 24.9103 16.8232 24.4026 18.4967 23.4372C20.1702 22.4718 21.5599 21.0827 22.526 19.4096C23.492 17.7365 24.0004 15.8385 24 13.9065Z" fill="#00ADB5"/>
</svg>
