<svg width="22" height="23" viewBox="0 0 22 23" fill="none" xmlns="http://www.w3.org/2000/svg">
<path d="M17.5 13.9065H15V9.9065H17.5C18.39 9.9065 19.26 9.64258 20.0001 9.14811C20.7401 8.65364 21.3169 7.95084 21.6575 7.12857C21.9981 6.3063 22.0872 5.4015 21.9135 4.52859C21.7399 3.65567 21.3113 2.85385 20.682 2.22452C20.0526 1.59518 19.2508 1.1666 18.3779 0.992962C17.505 0.819329 16.6002 0.908444 15.7779 1.24904C14.9557 1.58963 14.2529 2.16641 13.7584 2.90643C13.2639 3.64645 13 4.51648 13 5.4065V7.9065H9V5.4065C9 4.51648 8.73608 3.64645 8.24162 2.90643C7.74715 2.16641 7.04434 1.58963 6.22208 1.24904C5.39981 0.908444 4.49501 0.819329 3.6221 0.992962C2.74918 1.1666 1.94736 1.59518 1.31802 2.22452C0.688685 2.85385 0.260102 3.65567 0.0864683 4.52859C-0.0871652 5.4015 0.00194976 6.3063 0.342544 7.12857C0.683138 7.95084 1.25991 8.65364 1.99994 9.14811C2.73996 9.64258 3.60999 9.9065 4.5 9.9065H7V13.9065H4.5C3.60999 13.9065 2.73996 14.1704 1.99994 14.6649C1.25991 15.1593 0.683138 15.8622 0.342544 16.6844C0.00194976 17.5067 -0.0871652 18.4115 0.0864683 19.2844C0.260102 20.1573 0.688685 20.9591 1.31802 21.5885C1.94736 22.2178 2.74918 22.6464 3.6221 22.82C4.49501 22.9937 5.39981 22.9045 6.22208 22.564C7.04434 22.2234 7.74715 21.6466 8.24162 20.9066C8.73608 20.1665 9 19.2965 9 18.4065V15.9065H13V18.4065C13 19.2965 13.2639 20.1665 13.7584 20.9066C14.2529 21.6466 14.9557 22.2234 15.7779 22.564C16.6002 22.9045 17.505 22.9937 18.3779 22.82C19.2508 22.6464 20.0526 22.2178 20.682 21.5885C21.3113 20.9591 21.7399 20.1573 21.9135 19.2844C22.0872 18.4115 21.9981 17.5067 21.6575 16.6844C21.3169 15.8622 20.7401 15.1593 20.0001 14.6649C19.26 14.1704 18.39 13.9065 17.5 13.9065ZM15 5.4065C15 4.91204 15.1466 4.42869 15.4213 4.01757C15.696 3.60645 16.0865 3.28602 16.5433 3.0968C17.0001 2.90758 17.5028 2.85807 17.9877 2.95453C18.4727 3.051 18.9181 3.2891 19.2678 3.63873C19.6174 3.98836 19.8555 4.43382 19.952 4.91877C20.0484 5.40372 19.9989 5.90639 19.8097 6.3632C19.6205 6.82002 19.3001 7.21047 18.8889 7.48517C18.4778 7.75987 17.9945 7.9065 17.5 7.9065H15V5.4065ZM2 5.4065C2 4.74345 2.26339 4.10757 2.73223 3.63873C3.20108 3.16989 3.83696 2.9065 4.5 2.9065C5.16304 2.9065 5.79893 3.16989 6.26777 3.63873C6.73661 4.10757 7 4.74345 7 5.4065V7.9065H4.5C3.83696 7.9065 3.20108 7.6431 2.73223 7.17426C2.26339 6.70542 2 6.06954 2 5.4065ZM7 18.4065C7 18.9009 6.85338 19.3843 6.57868 19.7954C6.30397 20.2065 5.91353 20.527 5.45671 20.7162C4.9999 20.9054 4.49723 20.9549 4.01228 20.8585C3.52732 20.762 3.08187 20.5239 2.73223 20.1743C2.3826 19.8246 2.1445 19.3792 2.04804 18.8942C1.95158 18.4093 2.00108 17.9066 2.1903 17.4498C2.37952 16.993 2.69995 16.6025 3.11108 16.3278C3.5222 16.0531 4.00555 15.9065 4.5 15.9065H7V18.4065ZM9 9.9065H13V13.9065H9V9.9065ZM17.5 20.9065C16.837 20.9065 16.2011 20.6431 15.7322 20.1743C15.2634 19.7054 15 19.0695 15 18.4065V15.9065H17.5C18.163 15.9065 18.7989 16.1699 19.2678 16.6387C19.7366 17.1076 20 17.7435 20 18.4065C20 19.0695 19.7366 19.7054 19.2678 20.1743C18.7989 20.6431 18.163 20.9065 17.5 20.9065Z" fill="#00ADB5"/>
</svg>
