<svg width="24" height="25" viewBox="0 0 24 25" fill="none" xmlns="http://www.w3.org/2000/svg">
<path d="M19 4.90649H1C0.734784 4.90649 0.48043 5.01185 0.292893 5.19939C0.105357 5.38692 0 5.64128 0 5.90649V23.9065C0 24.1717 0.105357 24.4261 0.292893 24.6136C0.48043 24.8011 0.734784 24.9065 1 24.9065H19C19.2652 24.9065 19.5196 24.8011 19.7071 24.6136C19.8946 24.4261 20 24.1717 20 23.9065V5.90649C20 5.64128 19.8946 5.38692 19.7071 5.19939C19.5196 5.01185 19.2652 4.90649 19 4.90649ZM18 22.9065H2V6.90649H18V22.9065ZM24 1.90649V19.9065C24 20.1717 23.8946 20.4261 23.7071 20.6136C23.5196 20.8011 23.2652 20.9065 23 20.9065C22.7348 20.9065 22.4804 20.8011 22.2929 20.6136C22.1054 20.4261 22 20.1717 22 19.9065V2.90649H5C4.73478 2.90649 4.48043 2.80114 4.29289 2.6136C4.10536 2.42606 4 2.17171 4 1.90649C4 1.64128 4.10536 1.38692 4.29289 1.19939C4.48043 1.01185 4.73478 0.906494 5 0.906494H23C23.2652 0.906494 23.5196 1.01185 23.7071 1.19939C23.8946 1.38692 24 1.64128 24 1.90649Z" fill="#00ADB5"/>
</svg>
