<svg width="13" height="16" viewBox="0 0 13 16" fill="none" xmlns="http://www.w3.org/2000/svg">
<path d="M11.5 5.89861V5.81299C11.5 4.48691 10.9732 3.21514 10.0355 2.27745C9.09785 1.33977 7.82608 0.812988 6.5 0.812988C5.17392 0.812988 3.90215 1.33977 2.96447 2.27745C2.02679 3.21514 1.5 4.48691 1.5 5.81299V5.89861C1.16628 6.01648 0.884986 6.24855 0.705856 6.5538C0.526726 6.85905 0.461299 7.2178 0.521145 7.56663C0.580991 7.91546 0.762255 8.23189 1.03288 8.45997C1.30351 8.68805 1.64608 8.8131 2 8.81299H2.21L6.06563 15.563C6.10932 15.6396 6.17253 15.7034 6.24882 15.7477C6.32511 15.792 6.41177 15.8154 6.5 15.8154C6.58823 15.8154 6.6749 15.792 6.75119 15.7477C6.82748 15.7034 6.89068 15.6396 6.93438 15.563L10.79 8.81299H11C11.3539 8.8131 11.6965 8.68805 11.9671 8.45997C12.2377 8.23189 12.419 7.91546 12.4789 7.56663C12.5387 7.2178 12.4733 6.85905 12.2941 6.5538C12.115 6.24855 11.8337 6.01648 11.5 5.89861ZM6.5 14.3055L3.36188 8.81299H4.56688L7.1025 13.2505L6.5 14.3055ZM7.67875 12.243L5.71875 8.81299H6.92438L8.28125 11.188L7.67875 12.243ZM8.85688 10.1805L8.07563 8.81299H9.63813L8.85688 10.1805Z" fill="#00ADB5"/>
</svg>
